<?xml version="1.0" encoding="UTF-8"?>
<!DOCTYPE svg PUBLIC "-//W3C//DTD SVG 1.1//EN" "http://www.w3.org/Graphics/SVG/1.1/DTD/svg11.dtd">
<!-- Creator: CorelDRAW -->
<svg xmlns="http://www.w3.org/2000/svg" xml:space="preserve" width="8.5in" height="11in" version="1.1" style="shape-rendering:geometricPrecision; text-rendering:geometricPrecision; image-rendering:optimizeQuality; fill-rule:evenodd; clip-rule:evenodd"
viewBox="0 0 8500 11000"
 xmlns:xlink="http://www.w3.org/1999/xlink">
 <defs>
  <style type="text/css">
   <![CDATA[
    .fil11 {fill:none}
    .fil6 {fill:#00923F}
    .fil2 {fill:#0093DD}
    .fil5 {fill:#203481}
    .fil0 {fill:#28166F}
    .fil3 {fill:#2C186F}
    .fil8 {fill:#2E3639}
    .fil14 {fill:#ACCE22}
    .fil7 {fill:#E62129}
    .fil4 {fill:#FEFEFE}
    .fil1 {fill:#FFF000}
    .fil15 {fill:#3D3A3D;fill-rule:nonzero}
    .fil12 {fill:#009B4C;fill-rule:nonzero}
    .fil16 {fill:#191C1E;fill-rule:nonzero}
    .fil9 {fill:#1D1819;fill-rule:nonzero}
    .fil10 {fill:#2E3639;fill-rule:nonzero}
    .fil13 {fill:#ACCE22;fill-rule:nonzero}
   ]]>
  </style>
 </defs>
 <g id="Layer_x0020_1">
  <metadata id="CorelCorpID_0Corel-Layer"/>
  <g id="logo_kabupaten_probolinggo.cdr">
   <path class="fil0" d="M3629 4538l1242 0 0 855c0,134 -10,257 -67,383 -142,312 -444,295 -554,419 -110,-124 -412,-107 -554,-419 -57,-126 -67,-249 -67,-383l0 -855z"/>
   <path class="fil1" d="M4250 6181c30,-31 71,-52 109,-69 24,-11 49,-21 74,-31 26,-11 52,-22 78,-34 56,-26 109,-57 156,-99 56,-49 98,-108 129,-176 56,-124 65,-246 65,-379l0 -846 -1222 0 0 846c0,133 9,255 65,379 31,68 73,127 129,176 47,42 100,73 156,99 26,12 52,23 78,34 25,10 50,20 74,31 38,17 79,38 109,69z"/>
   <path class="fil0" d="M4244 6138c-28,-22 -59,-38 -91,-52 -25,-11 -50,-21 -75,-32 -26,-10 -51,-21 -77,-33 -53,-25 -104,-55 -149,-94 -53,-47 -92,-103 -121,-167 -54,-119 -64,-239 -64,-367l0 -817 1166 0 0 817c0,128 -10,248 -64,367 -29,64 -68,120 -121,167 -45,39 -96,69 -149,94 -26,12 -51,23 -77,33 -25,11 -50,21 -75,32 -32,14 -63,30 -91,52l-6 4 -6 -4z"/>
   <path class="fil2" d="M4250 6130c28,-22 61,-38 93,-53 25,-11 50,-21 75,-31 26,-11 52,-22 77,-34 53,-24 103,-54 146,-92 52,-46 91,-101 120,-164 53,-118 62,-236 62,-363l0 -807 -1146 0 0 807c0,127 9,245 62,363 29,63 68,118 120,164 43,38 93,68 146,92 25,12 51,23 77,34 25,10 50,20 75,31 32,15 65,31 93,53z"/>
   <polygon class="fil1" points="4249,4854 4208,4975 4086,4974 4188,5051 4149,5166 4254,5092 4352,5165 4314,5042 4414,4972 4285,4970 "/>
   <path class="fil3" d="M4742 5456l0 40c0,266 -217,483 -483,483l0 0c-265,0 -483,-217 -483,-483l0 -40 966 0z"/>
   <path class="fil4" d="M4742 5483l0 12c-4,2 -8,4 -13,4 -6,0 -11,-3 -16,-5 -4,-2 -8,-4 -11,-4 -3,0 -6,2 -9,4 -5,3 -9,6 -15,6 -6,0 -11,-2 -17,-4 -4,-2 -8,-3 -11,-3 -4,0 -6,1 -9,2 -4,2 -9,4 -14,4 -5,0 -10,-2 -15,-4 -4,-2 -8,-4 -12,-4 -4,0 -7,2 -11,3 -5,3 -9,5 -15,5 -6,0 -11,-2 -16,-3 -5,-2 -9,-3 -12,-3 -4,0 -8,1 -12,3 -4,1 -9,3 -15,3 -5,0 -9,-2 -14,-4 -3,-2 -7,-3 -10,-3 -4,0 -7,2 -11,3 -4,3 -9,5 -14,5 -6,0 -10,-2 -14,-5 -4,-1 -7,-3 -10,-3 -4,0 -9,2 -13,3 -5,3 -11,5 -16,5 -7,0 -11,-2 -16,-4 -3,-2 -7,-3 -10,-3 -3,0 -7,1 -10,2l0 0c-5,2 -9,3 -15,3 -5,0 -9,-2 -13,-4 -3,-2 -7,-3 -10,-3 -4,0 -8,2 -12,4 -5,2 -11,5 -16,5 -6,0 -11,-2 -15,-4 -10,-3 -19,-3 -29,0 -4,2 -9,4 -15,4 -5,0 -11,-3 -16,-5 -4,-2 -8,-4 -12,-4 -4,0 -7,1 -10,3 -4,2 -8,4 -13,4 -6,0 -10,-1 -15,-3l0 0c-3,-1 -7,-2 -10,-2 -4,0 -7,1 -10,3 -5,2 -9,4 -16,4 -5,0 -11,-2 -16,-5 -5,-1 -9,-3 -13,-3 -3,0 -7,2 -10,3 -4,3 -8,5 -14,5 -5,0 -10,-2 -15,-5 -3,-1 -7,-3 -10,-3 -3,0 -7,1 -10,3 -5,2 -9,4 -15,4 -5,0 -10,-2 -14,-3 -4,-2 -8,-3 -12,-3 -3,0 -8,1 -12,3 -5,1 -10,3 -16,3 -6,0 -10,-2 -15,-5 -4,-1 -7,-3 -11,-3 -4,0 -8,2 -12,4 -5,2 -10,4 -15,4 -6,0 -10,-2 -14,-4 -3,-1 -6,-2 -9,-2 -3,0 -7,1 -11,3 -6,2 -11,4 -17,4 -6,0 -11,-3 -15,-6 -3,-2 -6,-4 -9,-4 -3,0 -7,2 -11,4 -5,2 -10,5 -16,5 -6,0 -12,-3 -16,-6 -4,-2 -8,-4 -11,-4 -3,0 -5,2 -7,4 -5,4 -9,7 -17,6 -6,-1 -10,-6 -14,-10 0,-1 0,-1 -1,-2l0 -14c4,2 7,6 9,9 3,3 5,6 8,6 3,1 6,-1 8,-3 4,-3 8,-6 14,-6 6,0 11,2 16,5 3,2 7,4 11,4 4,0 8,-2 11,-4 5,-2 10,-5 16,-4 6,0 11,2 15,5 3,2 6,4 9,4 4,0 9,-1 13,-3 5,-2 10,-4 15,-4 6,0 10,2 14,4 3,1 6,3 9,2 3,0 7,-1 11,-3 5,-2 10,-5 16,-5 6,0 11,3 16,5 3,2 7,3 10,3 4,1 9,-1 13,-2 5,-2 10,-4 15,-4 6,0 11,2 15,4 4,1 8,2 11,2 4,0 7,-1 10,-3 5,-2 10,-4 15,-4 6,0 11,3 15,5 4,2 7,3 10,3 3,0 6,-1 9,-3 5,-2 9,-5 15,-5 6,0 11,2 17,5 4,1 9,3 12,3 4,0 8,-1 12,-3 4,-2 8,-4 13,-4 6,0 10,2 15,3l0 0c3,1 7,3 10,3 3,-1 6,-2 9,-3 5,-3 9,-5 15,-5 6,1 11,3 17,5 4,2 8,4 12,4 3,0 7,-1 10,-2 12,-5 25,-5 37,0 3,1 7,2 10,2 4,0 8,-2 12,-4 6,-2 11,-4 17,-5 6,0 10,2 15,5 3,1 6,2 9,3 3,0 7,-2 10,-3l0 0c5,-1 9,-3 15,-3 5,0 9,2 13,4 4,2 8,3 11,3 4,0 9,-2 13,-3 6,-3 11,-5 17,-5 6,0 10,3 15,5 3,2 6,3 9,3 3,0 6,-1 10,-3 4,-2 9,-5 14,-5 6,0 11,2 15,4 4,2 7,3 11,3 3,0 7,-1 11,-2 4,-2 9,-4 15,-4 5,0 10,2 15,4 4,1 9,3 13,2 3,0 7,-1 10,-3 5,-2 10,-5 16,-5 6,0 11,3 16,5 4,2 8,3 11,3 3,1 6,-1 9,-2 4,-2 8,-4 14,-4 5,0 10,2 15,4 4,2 9,3 13,3 3,0 6,-2 9,-4 4,-3 8,-5 15,-5 6,-1 11,2 15,4 4,2 8,4 12,4 3,0 7,-2 11,-4 1,0 1,-1 2,-1zm0 19c0,4 0,8 -1,12 -3,2 -7,4 -12,4 -6,0 -11,-3 -16,-5 -4,-2 -8,-4 -11,-4 -3,0 -6,2 -9,4 -5,3 -9,5 -15,6 -6,0 -11,-2 -17,-4 -4,-2 -8,-3 -11,-3 -4,0 -6,1 -9,2 -4,2 -9,4 -14,4 -5,0 -10,-2 -15,-4 -4,-2 -8,-4 -12,-4 -4,0 -7,2 -11,3 -5,3 -9,5 -15,5 -6,0 -11,-2 -16,-3 -5,-2 -9,-3 -12,-3 -4,0 -8,1 -12,3 -4,1 -9,3 -15,3 -5,0 -9,-2 -14,-4 -3,-2 -7,-3 -10,-3 -4,0 -7,2 -11,3 -4,3 -9,5 -14,5 -6,0 -10,-2 -14,-5 -4,-1 -7,-3 -10,-3 -4,0 -9,2 -13,3 -5,3 -11,5 -16,5 -7,0 -11,-2 -16,-4 -3,-2 -7,-3 -10,-3 -3,0 -7,1 -10,2l0 0c-5,2 -9,3 -15,3 -5,0 -9,-2 -13,-4 -3,-2 -7,-3 -10,-3 -4,0 -8,2 -12,4 -5,2 -11,5 -16,5 -6,0 -11,-2 -15,-4 -10,-4 -19,-4 -29,0 -4,2 -9,4 -15,4 -5,0 -11,-3 -16,-5 -4,-2 -8,-4 -12,-4 -4,0 -7,1 -10,3 -4,2 -8,4 -13,4 -6,0 -10,-1 -15,-3l0 0c-3,-1 -7,-2 -10,-2 -4,0 -7,1 -10,3 -5,2 -9,4 -16,4 -5,0 -11,-2 -16,-5 -5,-1 -9,-3 -13,-3 -3,0 -7,2 -10,3 -4,3 -8,5 -14,5 -5,0 -10,-2 -15,-5 -3,-1 -7,-3 -10,-3 -3,0 -7,1 -10,3 -5,2 -9,4 -15,4 -5,0 -10,-2 -14,-3 -4,-2 -8,-3 -12,-3 -3,0 -8,1 -12,3 -5,1 -10,3 -16,3 -6,0 -10,-2 -15,-5 -4,-1 -7,-3 -11,-3 -4,0 -8,2 -12,4 -5,2 -10,4 -15,4 -6,0 -10,-2 -14,-4 -3,-1 -6,-2 -9,-2 -3,0 -7,1 -11,3 -6,2 -11,4 -17,4 -6,-1 -11,-3 -15,-6 -3,-2 -6,-4 -9,-4 -3,0 -7,2 -11,4 -5,2 -10,5 -16,5 -6,0 -12,-3 -16,-6 -4,-2 -8,-4 -11,-4 -3,0 -5,2 -7,4 -5,4 -9,7 -17,6 -6,-1 -10,-6 -14,-10 0,-1 0,-1 0,-1 -1,-4 -1,-7 -1,-11l0 -4c4,2 7,6 9,9 3,3 5,6 8,6 3,1 6,-1 8,-3 4,-3 8,-6 14,-6 6,0 11,2 16,5 3,2 7,4 11,4 4,0 8,-2 11,-4 5,-2 10,-5 16,-5 6,1 11,3 15,6 3,2 6,4 9,4 4,0 9,-1 13,-3 5,-2 10,-4 15,-4 6,0 10,2 14,4 3,1 6,2 9,2 3,0 7,-1 11,-3 5,-2 10,-5 16,-5 6,0 11,3 16,5 3,2 7,3 10,3 4,0 9,-1 13,-2 5,-2 10,-4 15,-4 6,0 11,2 15,4 4,1 8,2 11,2 4,0 7,-1 10,-3 5,-2 10,-4 15,-4 6,0 11,3 15,5 4,2 7,3 10,3 3,0 6,-1 9,-3 5,-2 9,-5 15,-5 6,0 11,2 17,5 4,1 9,3 12,3 4,0 8,-1 12,-3 4,-2 8,-4 13,-4 6,0 10,2 15,3l0 0c3,1 7,3 10,2 3,0 6,-1 9,-3 5,-2 9,-4 15,-4 6,1 11,3 17,5 4,2 8,4 12,4 3,0 7,-1 10,-2 12,-5 25,-5 37,0 3,1 7,2 10,2 4,0 8,-2 12,-4 6,-2 11,-4 17,-5 6,0 10,2 15,4 3,2 6,3 9,3 3,1 7,-1 10,-2l0 0c5,-1 9,-3 15,-3 5,0 9,2 13,4 4,2 8,3 11,3 4,0 9,-2 13,-3 6,-3 11,-5 17,-5 6,0 10,3 15,5 3,2 6,3 9,3 3,0 6,-1 10,-3 4,-2 9,-5 14,-5 6,0 11,2 15,4 4,2 7,3 11,3 3,0 7,-1 11,-2 4,-2 9,-4 15,-4 5,0 10,2 15,4 4,1 9,2 13,2 3,0 7,-1 10,-3 5,-2 10,-5 16,-5 6,0 11,3 16,5 4,2 8,3 11,3 3,0 6,-1 9,-2 4,-2 8,-4 14,-4 5,0 10,2 15,4 4,2 9,3 13,3 3,0 6,-2 9,-4 4,-3 8,-5 15,-6 6,0 11,3 15,5 4,2 8,4 12,4 3,0 7,-2 11,-4 1,0 1,-1 2,-1zm-1 19c0,5 0,9 -1,13 -3,2 -7,3 -11,3 -6,0 -11,-3 -16,-5 -4,-2 -8,-4 -11,-4 -3,0 -6,2 -9,4 -5,3 -9,5 -15,6 -6,0 -11,-2 -17,-4 -4,-2 -8,-3 -11,-3 -4,0 -6,1 -9,2 -4,2 -9,4 -14,4 -5,0 -10,-2 -15,-4 -4,-2 -8,-4 -12,-4 -4,0 -7,2 -11,3 -5,2 -9,5 -15,5 -6,0 -11,-2 -16,-4 -5,-1 -9,-2 -12,-2 -4,0 -8,1 -12,2 -4,2 -9,4 -15,4 -5,0 -9,-2 -14,-4 -3,-2 -7,-3 -10,-3 -4,0 -7,2 -11,3 -4,2 -9,5 -14,5 -6,0 -10,-2 -14,-5 -4,-1 -7,-3 -10,-3 -4,0 -9,2 -13,3 -5,2 -11,5 -16,5 -7,0 -11,-2 -16,-4 -3,-2 -7,-3 -10,-3 -3,0 -7,1 -10,2l0 0c-5,2 -9,3 -15,3 -5,0 -9,-2 -13,-4 -3,-2 -7,-3 -10,-3 -4,0 -8,2 -12,4 -5,2 -11,4 -16,5 -6,0 -11,-2 -15,-4 -10,-4 -19,-4 -29,0 -4,2 -9,4 -15,4 -5,-1 -11,-3 -16,-5 -4,-2 -8,-4 -12,-4 -4,0 -7,1 -10,3 -4,2 -8,4 -13,4 -6,0 -10,-1 -15,-3l0 0c-3,-1 -7,-2 -10,-2 -4,0 -7,1 -10,3 -5,2 -9,4 -16,4 -5,0 -11,-3 -16,-5 -5,-1 -9,-3 -13,-3 -3,0 -7,2 -10,3 -4,3 -8,5 -14,5 -5,0 -10,-3 -15,-5 -3,-1 -7,-3 -10,-3 -3,0 -7,1 -10,3 -5,2 -9,4 -15,4 -5,0 -10,-2 -14,-4 -4,-1 -8,-2 -12,-2 -3,0 -8,1 -12,2 -5,2 -10,4 -16,4 -6,0 -10,-3 -15,-5 -4,-1 -7,-3 -11,-3 -4,0 -8,2 -12,4 -5,2 -10,4 -15,4 -6,0 -10,-2 -14,-4 -3,-1 -6,-2 -9,-2 -3,0 -7,1 -11,3 -6,2 -11,4 -17,4 -6,-1 -11,-3 -15,-6 -3,-2 -6,-4 -9,-4 -3,0 -7,2 -11,4 -5,2 -10,5 -16,5 -6,0 -12,-3 -16,-6 -4,-2 -8,-4 -11,-4 -3,0 -5,2 -7,4 -5,4 -9,7 -17,6 -6,-1 -10,-6 -14,-10 0,-6 0,-11 0,-16 3,2 6,6 8,9 3,3 5,6 8,6 3,1 6,-1 8,-3 4,-3 8,-6 14,-6 6,0 11,2 16,5 3,2 7,4 11,4 4,0 8,-2 11,-4 5,-2 10,-5 16,-5 6,1 11,3 15,6 3,2 6,4 9,4 4,0 9,-1 13,-3 5,-2 10,-4 15,-4 6,0 10,2 14,4 3,1 6,2 9,2 3,0 7,-1 11,-3 5,-2 10,-5 16,-5 6,0 11,3 16,5 3,1 7,3 10,3 4,0 9,-1 13,-3 5,-1 10,-3 15,-3 6,0 11,2 15,4 4,1 8,2 11,2 4,0 7,-1 10,-3 5,-2 10,-4 15,-4 6,0 11,3 15,5 4,1 7,3 10,3 3,0 6,-1 9,-3 5,-2 9,-5 15,-5 6,0 11,2 17,5 4,1 9,3 12,3 4,0 8,-1 12,-3 4,-2 8,-4 13,-4 6,0 10,1 15,3l0 0c3,1 7,3 10,2 3,0 6,-1 9,-3 5,-2 9,-4 15,-4 6,1 11,3 17,5 4,2 8,4 12,4 3,0 7,-1 10,-3 12,-4 25,-4 37,0 3,2 7,3 10,3 4,0 8,-2 12,-4 6,-2 11,-4 17,-5 6,0 10,2 15,4 3,2 6,3 9,3 3,1 7,-1 10,-2l0 0c5,-2 9,-3 15,-3 5,0 9,2 13,4 4,2 8,3 11,3 4,0 9,-2 13,-3 6,-3 11,-5 17,-5 6,0 10,3 15,5 3,2 6,3 9,3 3,0 6,-2 10,-3 4,-2 9,-5 14,-5 6,0 11,2 15,4 4,2 7,3 11,3 3,0 7,-1 11,-2 4,-2 9,-4 15,-4 5,0 10,2 15,3 4,2 9,3 13,3 3,0 7,-2 10,-3 5,-2 10,-5 16,-5 6,0 11,3 16,5 4,2 8,3 11,3 3,0 6,-1 9,-2 4,-2 8,-4 14,-4 5,0 10,2 15,4 4,2 9,3 13,3 3,0 6,-2 9,-4 4,-3 8,-5 15,-6 6,0 11,3 15,5 4,2 8,4 12,4 3,0 7,-2 11,-4l1 -1z"/>
   <path class="fil5" d="M4253 5456l-5 0 -3 0 -5 0 -2 0 -5 0 -2 0 -6 0 -2 0 -5 0 -438 0c78,-111 200,-77 312,-182 9,-8 21,-5 32,4 14,13 33,26 48,27 14,0 36,-16 54,-27 22,-14 41,-14 63,1 16,11 36,26 50,26 16,-1 35,-14 49,-27 10,-9 23,-12 31,-4 113,105 235,71 313,182l-479 0z"/>
   <path class="fil4" d="M4199 5402c-25,0 -45,31 -68,31 -23,0 -34,-28 -57,-29 -23,0 -45,27 -67,27 -22,0 -36,-26 -55,-27 -20,0 -29,24 -52,23 -24,0 -52,-27 -79,-26 -15,1 -31,5 -45,12l0 70 966 0 0 -62c-13,-8 -27,-17 -40,-17 -24,1 -35,29 -59,29 -23,0 -44,-31 -69,-31 -25,0 -45,31 -69,31 -23,0 -35,-28 -58,-29 0,0 -1,0 -1,0l0 0 0 0 0 0 0 0c-20,1 -33,27 -55,27 -22,0 -44,-27 -67,-27 -23,1 -34,29 -57,29 -23,0 -43,-31 -68,-31z"/>
   <path class="fil6" d="M4199 5410c-25,0 -45,30 -68,31 -23,0 -34,-29 -57,-29 -23,-1 -45,27 -67,27 -22,0 -36,-27 -55,-27 -20,-1 -29,23 -52,23 -24,-1 -52,-28 -79,-26 -15,1 -31,4 -45,12l0 52c4,2 7,6 9,9 3,3 5,6 8,6 3,1 6,-1 8,-3 4,-3 8,-6 14,-6 6,0 11,2 16,5 3,2 7,4 11,4 4,0 8,-2 11,-4 5,-2 10,-5 16,-4 6,0 11,2 15,5 3,2 6,4 9,4 4,0 9,-1 13,-3 5,-2 10,-4 15,-4 6,0 10,2 14,4 3,1 6,3 9,2 3,0 7,-1 11,-3 5,-2 10,-5 16,-5 6,0 11,3 16,5 3,2 7,3 10,3 4,1 9,-1 13,-2 5,-2 10,-4 15,-4 6,0 11,2 15,4 4,1 8,2 11,2 4,0 7,-1 10,-3 5,-2 10,-4 15,-4 6,0 11,3 15,5 4,2 7,3 10,3 3,0 6,-1 9,-3 5,-2 9,-5 15,-5 6,0 11,2 17,5 4,1 9,3 12,3 4,0 8,-1 12,-3 4,-2 8,-4 13,-4 6,0 10,2 15,3l0 0c3,1 7,3 10,3 3,-1 6,-2 9,-3 5,-3 9,-5 15,-5 6,1 11,3 17,5 4,2 8,4 12,4 3,0 7,-1 10,-2 12,-5 25,-5 37,0 3,1 7,2 10,2 4,0 8,-2 12,-4 6,-2 11,-4 17,-5 6,0 10,2 15,5 3,1 6,2 9,3 3,0 7,-2 10,-3l0 0c5,-1 9,-3 15,-3 5,0 9,2 13,4 4,2 8,3 11,3 4,0 9,-2 13,-3 6,-3 11,-5 17,-5 6,0 10,3 15,5 3,2 6,3 9,3 3,0 6,-1 10,-3 4,-2 9,-5 14,-5 6,0 11,2 15,4 4,2 7,3 11,3 3,0 7,-1 11,-2 4,-2 9,-4 15,-4 5,0 10,2 15,4 4,1 9,3 13,2 3,0 7,-1 10,-3 5,-2 10,-5 16,-5 6,0 11,3 16,5 4,2 8,3 11,3 3,1 6,-1 9,-2 4,-2 8,-4 14,-4 5,0 10,2 15,4 4,2 9,3 13,3 3,0 6,-2 9,-4 4,-3 8,-5 15,-5 6,-1 11,2 15,4 4,2 8,4 12,4 3,0 7,-2 11,-4 1,0 1,-1 2,-1l0 -54c-13,-8 -27,-17 -40,-17 -24,0 -35,29 -59,29 -23,-1 -44,-31 -69,-31 -25,0 -45,30 -69,31 -23,0 -35,-29 -58,-29 0,0 -1,0 -1,0l0 0 0 0 0 0 0 0c-20,1 -33,27 -55,27 -22,0 -44,-28 -67,-27 -23,0 -34,29 -57,29 -23,-1 -43,-31 -68,-31z"/>
   <path class="fil4" d="M4255 4827l-28 -241 55 0 -27 241zm567 639c1,-24 1,-49 1,-73l0 -36 -390 -176 389 285zm1 -685l0 -95 -12 -5 -378 276 390 -176zm-1146 -62l0 59 398 179 -350 -255 -48 17zm0 642l0 32c0,26 0,52 2,78l396 -290 -398 180z"/>
   <path class="fil7" d="M4823 4757c-18,-7 -32,-33 -55,-33 -26,-1 -52,30 -78,31 -27,2 -47,-26 -71,-25 -25,0 -39,28 -66,28 -27,0 -57,-29 -83,-29 -26,0 -38,29 -62,29 -25,0 -45,-30 -71,-31 -26,0 -48,27 -76,27 -28,0 -57,-26 -83,-27 -25,0 -37,25 -62,25 -24,0 -48,-27 -74,-26 -26,1 -44,30 -70,31 -25,0 -47,-30 -73,-30 -26,1 -46,32 -72,32 -26,0 -47,-33 -72,-33 -25,0 -42,34 -63,34 -6,1 -11,-1 -15,-3l0 -75c4,2 9,3 15,3 21,-1 38,-34 63,-34 25,-1 46,32 72,32 26,1 46,-31 72,-31 26,-1 48,29 73,29 26,0 44,-30 70,-30 26,-1 50,25 74,25 25,0 37,-25 62,-24 26,0 55,27 83,27 28,0 50,-28 76,-27 26,0 46,30 71,30 24,0 36,-29 62,-29 26,0 56,29 83,29 27,0 41,-27 66,-28 24,0 44,27 71,26 26,-1 52,-32 78,-32 23,1 37,27 55,33l0 76z"/>
   <path class="fil4" d="M4823 4757c-18,-7 -32,-33 -55,-33 -26,-1 -52,30 -78,31 -27,2 -47,-26 -71,-25 -25,0 -39,28 -66,28 -27,0 -57,-29 -83,-29 -26,0 -38,29 -62,29 -25,0 -45,-30 -71,-31 -26,0 -48,27 -76,27 -28,0 -57,-26 -83,-27 -25,0 -37,25 -62,25 -24,0 -48,-27 -74,-26 -26,1 -44,30 -70,31 -25,0 -47,-30 -73,-30 -26,1 -46,32 -72,32 -26,0 -47,-33 -72,-33 -25,0 -42,34 -63,34 -6,1 -11,-1 -15,-3l0 -35c4,2 9,4 15,4 21,-1 38,-34 63,-35 25,0 46,33 72,33 26,1 46,-31 72,-31 26,-1 48,29 73,29 26,0 44,-30 70,-31 26,0 50,26 74,26 25,0 37,-25 62,-24 26,0 55,26 83,26 28,0 50,-27 76,-26 26,0 46,30 71,30 24,0 36,-29 62,-29 26,0 56,29 83,29 27,0 41,-27 66,-28 24,0 44,27 71,26 26,-1 52,-32 78,-32 23,0 37,27 55,33l0 35z"/>
   <path class="fil8" d="M4718 5155l8 0 0 247 25 -104 4 1 -29 138 0 172 25 -43 4 2 -35 72c0,-1 0,-1 0,-2 0,3 -1,5 -2,8l0 0 0 1 -21 -57 7 -5 14 37 0 -197 -29 -124 5 0 24 89 0 -235zm-69 625l0 1 2 -4c-1,1 -2,2 -2,3z"/>
   <path class="fil6" d="M4720 5172c-7,-5 -15,-9 -16,-20 -1,-9 -7,-14 -11,-20 -4,-7 -3,-15 -4,-23 0,-4 -7,-17 -9,-22 -2,-6 1,-20 1,-27 0,-15 2,-28 2,-44 0,-9 4,-17 6,-26 2,-9 -2,-17 -2,-27 0,-10 3,-17 5,-25 0,-18 4,-33 13,-45 13,-27 24,-13 28,7 3,4 0,13 2,19 3,7 5,16 9,24 4,5 0,21 0,28 0,21 9,38 1,58 -1,4 -1,21 0,25 3,13 -1,15 -4,26 0,11 3,19 3,30 0,15 -11,21 -11,35 0,10 4,30 -13,27z"/>
   <path class="fil9" d="M4719 5173c-1,0 -2,-1 -2,-1 -7,-5 -13,-9 -14,-20 -1,-6 -4,-10 -7,-14 -2,-2 -3,-4 -4,-6 -3,-5 -3,-10 -3,-17 0,-2 -1,-4 -1,-6l0 0c0,-2 -3,-8 -5,-13 -2,-4 -3,-7 -4,-9 -2,-4 -1,-12 0,-19 0,-3 0,-6 0,-8 0,-7 1,-14 1,-21 1,-8 2,-15 2,-23 0,-7 1,-12 3,-18 1,-2 2,-5 3,-8 1,-6 0,-10 -1,-16 -1,-3 -2,-7 -2,-11 0,-7 2,-12 4,-18 1,-2 1,-5 2,-8 0,-8 1,-17 3,-24 2,-8 5,-14 10,-21 3,-7 7,-11 10,-13 2,-2 5,-3 7,-2 2,0 4,2 6,4 3,4 6,11 7,18 2,3 2,7 1,11 0,3 0,6 1,8 1,3 2,5 2,8 2,5 4,11 7,16 3,4 2,14 1,21 0,3 -1,6 -1,8 0,7 1,14 3,21 2,12 4,24 -2,37 0,2 -1,7 -1,12 0,5 0,11 1,13 2,10 1,14 -1,19 -1,2 -2,5 -2,7 0,6 0,10 1,15 0,5 1,10 1,15 0,8 -3,14 -6,19 -2,5 -5,9 -5,16 0,1 0,2 0,4 1,4 1,8 0,12 -1,8 -4,14 -15,13l0 -1zm-1 -3c1,0 1,1 2,1 8,1 11,-4 12,-10 0,-4 0,-8 0,-12 0,-2 0,-3 0,-4 0,-7 2,-12 5,-17 3,-5 5,-10 5,-18 0,-5 0,-10 -1,-15 0,-4 -1,-9 -1,-15l0 0c1,-3 2,-6 3,-8 2,-5 3,-8 1,-18 -1,-2 -1,-8 -1,-13 0,-5 0,-10 1,-12 5,-13 3,-25 1,-37 -1,-7 -2,-13 -2,-21 0,-2 0,-5 1,-8 0,-7 2,-16 -1,-20 -3,-5 -5,-11 -7,-16 -1,-3 -2,-6 -2,-8 -1,-3 -1,-6 -1,-9 0,-4 0,-8 -1,-10l0 0c-1,-7 -4,-13 -7,-17 -1,-2 -3,-3 -4,-4 -2,0 -4,0 -6,2 -3,2 -6,6 -9,12l0 1c-5,6 -8,12 -10,20 -2,7 -3,15 -3,24l0 0c0,3 -1,5 -2,8 -2,5 -3,11 -3,17 0,4 1,7 1,11 1,5 2,11 1,16 -1,3 -2,6 -3,9 -1,6 -3,11 -3,17 0,8 -1,15 -1,23 -1,7 -1,14 -1,21 0,2 -1,5 -1,9 -1,6 -1,14 0,18 1,1 2,4 4,8 3,5 6,11 6,14 0,2 0,4 0,6 0,6 0,12 3,16 1,2 2,4 4,5 3,5 6,9 7,16 1,9 7,14 13,18z"/>
   <path class="fil9" d="M4720 5173c-5,-42 -7,-79 -6,-114 0,-34 3,-68 5,-103 1,-28 0,-52 -1,-78 8,59 -1,121 -1,181 1,34 2,72 8,113l-5 1z"/>
   <path class="fil9" d="M4720 4931c-7,-7 -13,-14 -20,-21 7,6 14,12 20,19 0,1 0,1 0,2z"/>
   <path class="fil9" d="M4718 4966c-8,-8 -15,-16 -23,-24 9,6 17,13 24,21 0,1 -1,2 -1,3z"/>
   <path class="fil9" d="M4716 5005c-9,-10 -18,-19 -27,-29 10,8 20,16 28,25 0,1 -1,3 -1,4z"/>
   <path class="fil9" d="M4715 5035c-10,-11 -19,-21 -30,-31 11,8 22,17 31,27 0,2 -1,3 -1,4z"/>
   <path class="fil9" d="M4714 5071c-10,-10 -20,-21 -30,-31 11,8 22,17 31,28 -1,1 -1,2 -1,3z"/>
   <path class="fil9" d="M4717 5100c-13,-9 -25,-19 -37,-28 13,7 25,15 37,24 0,1 0,3 0,4z"/>
   <path class="fil9" d="M4717 5127c-10,-8 -20,-17 -31,-25 12,6 22,13 31,22 0,1 0,2 0,3z"/>
   <path class="fil9" d="M4719 5148c-10,-8 -20,-17 -31,-25 11,6 22,13 31,22 0,1 0,2 0,3z"/>
   <path class="fil9" d="M4721 4925c5,-5 9,-10 14,-15 -5,4 -10,9 -15,14 0,0 1,1 1,1z"/>
   <path class="fil9" d="M4720 4960c7,-8 14,-15 21,-23 -8,6 -15,13 -22,20 0,1 0,2 1,3z"/>
   <path class="fil9" d="M4718 5001c9,-9 17,-18 26,-27 -10,7 -19,15 -26,24 0,1 0,2 0,3z"/>
   <path class="fil9" d="M4717 5031c10,-11 20,-21 30,-31 -11,8 -22,17 -31,27 1,1 1,3 1,4z"/>
   <path class="fil9" d="M4716 5068c9,-10 18,-20 28,-29 -11,8 -20,16 -29,26 0,1 0,2 1,3z"/>
   <path class="fil9" d="M4716 5094c10,-7 20,-15 30,-22 -11,6 -21,12 -30,19 0,1 0,2 0,3z"/>
   <path class="fil9" d="M4717 5124c10,-8 18,-15 28,-22 -10,5 -19,12 -28,19 0,1 0,2 0,3z"/>
   <path class="fil9" d="M4722 5145c5,-4 10,-8 15,-13 -5,4 -11,7 -16,12 0,0 0,1 1,1z"/>
   <path class="fil6" d="M4699 5320c4,-6 10,-13 8,-23 -2,-8 2,-15 3,-22 2,-7 -2,-14 -3,-21 -1,-3 1,-17 2,-23 0,-6 -7,-17 -9,-23 -5,-14 -10,-25 -15,-39 -3,-8 -9,-14 -13,-21 -5,-8 -4,-16 -7,-25 -3,-9 -8,-14 -12,-21 -6,-16 -13,-27 -25,-36 -20,-19 -26,-3 -23,16 -1,5 4,12 4,17 0,8 1,17 -1,25 -2,6 6,19 8,25 7,19 4,36 17,52 2,3 7,18 8,22 1,13 5,13 11,22 3,10 3,18 6,27 5,14 16,16 20,28 3,9 6,28 21,20z"/>
   <path class="fil9" d="M4700 5321c0,-1 1,-1 1,-2 4,-6 9,-13 7,-22 -2,-6 0,-11 2,-15 0,-2 1,-4 2,-6 1,-6 -1,-11 -3,-16 0,-2 -1,-4 -1,-6l0 -1c-1,-1 0,-7 1,-13 0,-3 1,-7 1,-9 0,-4 -3,-11 -6,-17 -1,-2 -2,-5 -3,-7 -2,-6 -5,-12 -7,-19 -3,-6 -6,-12 -8,-20 -2,-5 -5,-9 -9,-14 -1,-2 -3,-4 -4,-7 -3,-4 -4,-9 -4,-14 -1,-3 -1,-7 -3,-11 -2,-5 -5,-10 -8,-14 -1,-2 -3,-4 -4,-6 -3,-8 -6,-15 -10,-21 -4,-6 -9,-11 -15,-15 -5,-6 -10,-8 -13,-9 -3,-1 -5,-1 -7,1 -2,1 -3,3 -4,6 -2,4 -2,11 -1,18 -1,3 1,6 2,9 1,3 2,6 2,8 0,3 0,5 0,8 0,5 0,11 -1,16 -1,5 2,13 5,20 2,2 3,5 3,6 2,7 4,13 5,20 1,11 3,22 12,33 1,1 3,5 4,10 2,4 3,9 4,11 0,10 3,13 6,17 2,2 3,4 5,6 1,5 2,9 3,13 1,5 2,9 3,14 3,7 7,11 11,15 4,3 7,7 9,12 1,2 1,3 1,4 1,4 3,8 4,11 3,7 8,11 17,6l1 0zm-1 -4c0,1 -1,2 -1,2 -7,4 -11,0 -14,-5 -1,-3 -2,-7 -3,-10 -1,-2 -1,-3 -2,-5 -2,-6 -5,-9 -9,-13 -4,-3 -8,-7 -10,-14 -2,-5 -3,-9 -4,-13 -1,-5 -2,-9 -3,-14l0 0c-2,-3 -4,-5 -5,-6 -3,-4 -6,-7 -6,-16 0,-2 -2,-7 -4,-12 -1,-5 -3,-9 -4,-11 -9,-10 -10,-20 -12,-32 -1,-6 -2,-13 -5,-19 0,-2 -1,-5 -3,-7 -2,-6 -6,-14 -5,-18 1,-6 1,-12 1,-17 0,-3 0,-5 0,-8 0,-3 -1,-5 -2,-8 -1,-4 -2,-7 -2,-9l0 -1c-1,-6 -1,-12 1,-17 1,-2 2,-4 3,-4 1,-1 3,-2 5,-1 3,1 8,3 13,8l0 0c5,4 10,9 14,15 4,6 7,13 10,21l0 0c1,2 3,4 4,7 3,4 6,8 8,13 1,4 2,7 2,11 1,5 2,10 5,15 1,2 3,4 5,7 3,4 6,8 8,13 2,8 5,14 8,20 2,6 5,12 7,19 1,2 2,5 3,7 3,6 6,13 5,16 0,2 0,5 -1,9 0,5 -1,12 -1,14 1,2 2,4 2,6 2,5 3,10 2,15 0,2 -1,4 -1,6 -2,5 -4,10 -2,17 1,8 -3,14 -7,19z"/>
   <path class="fil9" d="M4698 5321c-7,-39 -17,-73 -28,-103 -11,-31 -23,-61 -35,-90 -10,-25 -16,-47 -23,-71 11,56 37,108 55,162 10,30 19,64 27,103l4 -1z"/>
   <path class="fil9" d="M4626 5106c4,-9 8,-17 12,-26 -5,8 -10,15 -13,24 0,0 1,1 1,2z"/>
   <path class="fil9" d="M4638 5136c5,-10 9,-19 14,-29 -6,8 -12,17 -15,26 0,1 0,2 1,3z"/>
   <path class="fil9" d="M4651 5170c6,-12 11,-23 17,-34 -8,10 -14,20 -18,31 0,1 1,2 1,3z"/>
   <path class="fil9" d="M4661 5197c6,-13 12,-25 18,-38 -8,11 -14,22 -19,34 0,1 1,3 1,4z"/>
   <path class="fil9" d="M4673 5229c6,-13 12,-26 18,-38 -8,11 -14,22 -19,34 0,1 1,2 1,4z"/>
   <path class="fil9" d="M4680 5255c8,-13 16,-25 24,-37 -10,11 -18,21 -25,33 0,2 0,3 1,4z"/>
   <path class="fil9" d="M4687 5279c7,-11 13,-22 20,-32 -8,9 -15,19 -21,29 0,1 1,2 1,3z"/>
   <path class="fil9" d="M4692 5299c7,-11 13,-22 20,-33 -8,9 -15,19 -21,30 0,1 0,2 1,3z"/>
   <path class="fil9" d="M4624 5101c-6,-3 -12,-6 -18,-9 6,2 12,4 17,7 1,0 1,1 1,2z"/>
   <path class="fil9" d="M4635 5131c-9,-5 -17,-9 -26,-13 9,3 18,6 26,10 0,1 0,2 0,3z"/>
   <path class="fil9" d="M4649 5167c-11,-5 -21,-10 -32,-15 11,3 22,7 31,12 0,1 1,2 1,3z"/>
   <path class="fil9" d="M4659 5194c-13,-7 -24,-13 -37,-18 13,3 25,8 36,14 0,1 0,2 1,4z"/>
   <path class="fil9" d="M4671 5226c-12,-6 -23,-11 -34,-17 12,4 23,8 33,14 1,1 1,2 1,3z"/>
   <path class="fil9" d="M4678 5250c-11,-4 -22,-7 -33,-11 11,2 22,4 32,8 1,1 1,2 1,3z"/>
   <path class="fil9" d="M4686 5277c-11,-4 -20,-8 -31,-11 10,1 21,4 30,8 0,1 1,2 1,3z"/>
   <path class="fil9" d="M4689 5297c-6,-2 -12,-5 -18,-6 6,1 12,2 17,4 0,1 1,1 1,2z"/>
   <path class="fil6" d="M4749 5320c8,-4 16,-7 18,-16 3,-9 10,-12 14,-18 5,-5 5,-13 7,-21 1,-3 10,-14 13,-18 3,-6 3,-19 4,-25 2,-14 2,-27 5,-42 1,-8 -1,-16 -2,-24 0,-9 5,-16 7,-25 1,-9 -1,-16 -1,-24 3,-17 2,-31 -5,-44 -8,-27 -21,-15 -27,3 -4,3 -2,12 -5,17 -4,7 -8,15 -13,21 -4,5 -4,20 -5,26 -3,19 -14,34 -10,54 0,3 -2,19 -4,23 -5,12 -2,14 -1,25 -2,10 -5,17 -7,27 -2,14 7,21 4,33 -1,10 -8,28 8,28z"/>
   <path class="fil9" d="M4750 5321c1,0 2,-1 2,-1 7,-4 14,-7 17,-16 1,-6 5,-9 9,-13 1,-1 3,-3 4,-4 4,-4 5,-10 6,-15 0,-2 1,-4 1,-6l0 0c1,-2 4,-7 8,-12 2,-3 4,-5 5,-7 2,-4 3,-11 3,-17 0,-3 0,-6 1,-8 1,-7 2,-14 2,-20 1,-7 2,-14 3,-22 1,-5 0,-11 -1,-16 0,-3 0,-6 -1,-8 0,-6 2,-10 4,-15 1,-3 2,-6 3,-10 1,-6 0,-11 0,-17 -1,-2 -1,-5 -1,-7 1,-9 2,-16 1,-23 -1,-8 -2,-14 -6,-21 -2,-7 -4,-12 -7,-14 -2,-2 -4,-3 -7,-3 -2,1 -4,2 -6,4 -4,3 -7,9 -9,15 -2,2 -3,6 -3,10 -1,3 -1,6 -2,7 -2,3 -3,5 -4,7 -3,5 -5,10 -9,14 -3,4 -4,13 -4,20 0,3 -1,5 -1,7 -1,7 -3,13 -5,19 -4,11 -8,22 -5,35 0,1 0,6 -1,11 -1,5 -2,10 -3,12 -4,8 -3,12 -2,17 0,2 1,5 1,8 -1,5 -2,9 -4,13 -1,4 -2,9 -3,14 -1,7 0,13 2,18 2,5 3,9 2,15 0,1 0,3 -1,4 0,4 -1,8 -1,12 -1,7 2,13 11,13l1 0zm1 -3c0,0 -1,0 -2,1 -8,0 -9,-5 -9,-11 0,-4 1,-8 2,-11 0,-2 0,-3 1,-5 1,-6 -1,-11 -3,-16 -1,-5 -3,-10 -2,-17 1,-5 2,-9 4,-13 1,-5 2,-9 3,-14l0 0c0,-3 0,-6 -1,-8 -1,-5 -1,-9 2,-17 1,-2 2,-7 3,-12 1,-5 1,-10 1,-12 -3,-12 1,-23 5,-33 2,-6 4,-13 5,-20 1,-2 1,-4 1,-7 0,-7 1,-15 4,-19 4,-4 6,-9 9,-14 1,-2 3,-4 4,-7 1,-2 2,-5 2,-8 0,-3 1,-7 2,-9l1 0c2,-6 5,-12 9,-15 1,-1 3,-2 5,-2 1,-1 3,0 4,2 3,2 5,6 7,13l0 0c3,6 5,13 6,20 0,7 0,14 -1,22l0 1c0,2 0,5 0,8 1,5 2,10 1,15 -1,4 -2,7 -4,11 -1,5 -3,9 -3,15 0,3 1,6 1,8 1,6 2,11 1,16 -2,8 -2,15 -3,22 -1,6 -1,13 -3,20 0,2 0,4 0,7 -1,7 -1,14 -3,17 -1,2 -3,4 -5,7 -3,5 -7,10 -8,12 0,2 -1,4 -1,6 -1,6 -2,11 -5,14 -2,2 -3,3 -5,5 -4,3 -8,7 -10,13 -2,9 -8,12 -15,15z"/>
   <path class="fil9" d="M4749 5320c12,-38 19,-72 24,-104 6,-32 9,-64 13,-96 3,-26 8,-48 13,-72 -17,53 -19,112 -29,167 -6,32 -14,66 -26,104l5 1z"/>
   <path class="fil9" d="M4789 5097c7,-6 14,-11 22,-17 -8,4 -16,9 -22,14 0,1 0,2 0,3z"/>
   <path class="fil9" d="M4784 5129c9,-7 17,-13 26,-19 -9,5 -18,10 -25,16 0,1 0,2 -1,3z"/>
   <path class="fil9" d="M4780 5165c10,-7 20,-15 31,-22 -11,5 -22,12 -31,19 0,1 0,2 0,3z"/>
   <path class="fil9" d="M4776 5194c11,-9 22,-17 34,-25 -12,6 -24,13 -34,21 0,1 0,2 0,4z"/>
   <path class="fil9" d="M4771 5227c12,-8 22,-16 34,-24 -12,6 -23,13 -34,21 0,1 0,2 0,3z"/>
   <path class="fil9" d="M4764 5254c14,-8 26,-15 40,-21 -14,4 -27,10 -39,17 0,1 -1,2 -1,4z"/>
   <path class="fil9" d="M4759 5279c11,-7 22,-13 34,-19 -12,4 -23,9 -33,15 -1,1 -1,2 -1,4z"/>
   <path class="fil9" d="M4754 5298c11,-7 22,-13 33,-19 -11,4 -23,9 -33,15 0,2 0,3 0,4z"/>
   <path class="fil9" d="M4789 5091c-4,-5 -7,-10 -11,-16 4,5 8,9 12,15 -1,0 -1,1 -1,1z"/>
   <path class="fil9" d="M4784 5123c-5,-8 -10,-16 -16,-24 6,7 12,14 17,22 0,1 0,1 -1,2z"/>
   <path class="fil9" d="M4779 5162c-7,-10 -13,-19 -20,-29 8,8 15,17 21,26 0,1 -1,2 -1,3z"/>
   <path class="fil9" d="M4775 5190c-8,-12 -15,-23 -23,-34 9,10 17,19 24,30 0,1 0,2 -1,4z"/>
   <path class="fil9" d="M4770 5224c-7,-11 -14,-21 -22,-31 9,9 17,18 23,28 0,1 0,2 -1,3z"/>
   <path class="fil9" d="M4765 5248c-8,-8 -15,-17 -24,-25 9,7 18,14 25,22 0,1 0,2 -1,3z"/>
   <path class="fil9" d="M4759 5276c-7,-9 -14,-17 -22,-25 9,7 16,14 23,22 0,1 0,2 -1,3z"/>
   <path class="fil9" d="M4752 5295c-4,-5 -8,-10 -13,-15 5,4 10,8 13,13 0,1 0,1 0,2z"/>
   <path class="fil6" d="M4749 5594c7,-4 15,-8 18,-18 2,-9 9,-13 13,-19 5,-6 5,-15 7,-23 0,-3 10,-16 12,-20 3,-6 3,-21 4,-27 2,-16 2,-29 4,-46 2,-9 -1,-17 -1,-26 -1,-10 4,-17 6,-28 1,-9 -1,-17 -2,-26 3,-17 2,-33 -5,-46 -8,-30 -21,-17 -27,2 -4,4 -2,14 -5,19 -4,8 -7,16 -12,23 -5,5 -4,22 -5,29 -3,21 -14,36 -10,58 1,4 -1,21 -3,25 -5,13 -2,15 -1,27 -1,11 -5,19 -6,29 -3,16 7,23 4,37 -1,10 -8,30 9,30z"/>
   <path class="fil9" d="M4749 5595c1,-1 2,-1 3,-2 6,-3 13,-7 16,-17 1,-6 5,-10 9,-14 1,-1 3,-3 4,-5 4,-4 5,-10 6,-16 0,-2 1,-4 1,-7l0 0c0,-2 4,-7 7,-12 2,-3 4,-6 5,-8 2,-4 3,-12 3,-19 0,-3 1,-6 1,-8 1,-8 2,-15 2,-22 1,-8 1,-15 3,-24 0,-6 0,-11 -1,-17 -1,-3 -1,-6 -1,-9 -1,-6 1,-11 3,-16 1,-3 2,-7 3,-11 1,-7 0,-12 -1,-18 0,-3 0,-6 -1,-9 2,-9 2,-17 1,-25 0,-8 -2,-15 -5,-22 -3,-8 -5,-12 -8,-15 -2,-2 -5,-3 -7,-3 -2,0 -4,2 -6,4 -4,3 -7,10 -9,17 -2,2 -3,6 -3,10 0,3 -1,7 -2,9 -1,2 -2,4 -4,7 -2,5 -5,11 -8,15 -4,4 -4,14 -4,22 -1,3 -1,5 -1,7 -1,8 -3,15 -5,21 -4,12 -8,24 -5,38 1,2 0,7 0,12 -1,5 -2,11 -3,13 -4,9 -3,13 -2,19 0,2 1,5 1,8 -1,5 -2,10 -3,14 -1,5 -3,10 -3,15 -2,8 0,14 2,20 2,5 3,10 2,17 0,1 0,3 -1,4 0,4 -1,8 -1,13 0,7 2,14 12,14l0 0zm2 -4c-1,1 -2,1 -2,2 -8,-1 -10,-6 -10,-12 0,-4 1,-9 2,-12 0,-2 0,-4 1,-5 1,-7 -1,-12 -3,-18 -2,-5 -3,-11 -2,-18 1,-6 2,-10 3,-15 1,-5 3,-9 3,-15l0 0c0,-3 0,-6 -1,-8 -1,-6 -1,-10 2,-18 1,-3 2,-8 3,-14 1,-5 1,-10 0,-12 -2,-14 1,-25 5,-37 2,-7 4,-14 5,-21 1,-2 1,-5 1,-8 0,-8 1,-17 3,-20 4,-5 7,-11 10,-16 1,-3 2,-5 3,-7 1,-3 2,-6 2,-10 1,-3 1,-7 2,-9l1 0c2,-7 5,-13 8,-16 2,-2 4,-3 5,-3 2,-1 4,0 5,2 3,2 5,7 7,14l0 0c4,7 5,14 6,22 1,7 0,15 -1,24l0 0c0,3 1,6 1,9 1,6 2,11 1,17 -1,4 -2,8 -3,11 -2,6 -4,11 -4,17 1,3 1,6 1,9 1,6 2,11 1,17 -1,9 -2,16 -2,24 -1,7 -1,14 -2,21 -1,3 -1,6 -1,9 0,7 -1,14 -3,18 -1,2 -3,4 -4,7 -4,6 -8,11 -8,14 -1,2 -1,4 -1,7 -1,5 -2,11 -6,15 -1,2 -2,3 -4,5 -4,4 -8,8 -9,14 -3,9 -9,13 -15,16z"/>
   <path class="fil9" d="M4748 5594c12,-41 19,-79 23,-113 5,-35 8,-70 12,-105 2,-28 7,-52 12,-78 -16,58 -17,122 -27,182 -5,34 -13,72 -24,113l4 1z"/>
   <path class="fil9" d="M4785 5351c8,-6 15,-12 22,-18 -8,4 -15,9 -22,15 0,1 0,2 0,3z"/>
   <path class="fil9" d="M4781 5386c9,-7 17,-14 26,-21 -9,5 -18,11 -26,18 0,1 0,2 0,3z"/>
   <path class="fil9" d="M4777 5426c11,-9 20,-17 31,-25 -11,6 -21,13 -31,21 0,1 0,2 0,4z"/>
   <path class="fil9" d="M4774 5456c11,-9 21,-18 33,-27 -12,7 -23,14 -33,23 0,2 0,3 0,4z"/>
   <path class="fil9" d="M4769 5493c12,-9 22,-18 34,-27 -12,7 -23,14 -33,23 0,1 0,3 -1,4z"/>
   <path class="fil9" d="M4763 5521c13,-7 25,-15 39,-22 -14,5 -27,11 -39,18 0,2 0,3 0,4z"/>
   <path class="fil9" d="M4758 5549c11,-8 22,-15 33,-21 -12,4 -23,10 -33,17 0,1 0,2 0,4z"/>
   <path class="fil9" d="M4753 5570c11,-8 22,-15 33,-21 -12,4 -23,10 -33,17 0,1 0,2 0,4z"/>
   <path class="fil9" d="M4785 5345c-4,-6 -7,-12 -11,-17 5,5 9,10 12,15 0,1 0,1 -1,2z"/>
   <path class="fil9" d="M4781 5380c-6,-9 -11,-18 -17,-26 7,7 13,15 18,23 0,1 -1,2 -1,3z"/>
   <path class="fil9" d="M4776 5422c-7,-11 -13,-21 -20,-31 8,8 15,17 21,27 0,2 0,3 -1,4z"/>
   <path class="fil9" d="M4773 5452c-8,-12 -15,-24 -24,-36 10,10 18,21 25,32 0,1 -1,3 -1,4z"/>
   <path class="fil9" d="M4768 5489c-7,-11 -14,-22 -22,-33 9,9 17,19 23,30 0,1 0,2 -1,3z"/>
   <path class="fil9" d="M4764 5516c-8,-9 -16,-18 -25,-27 10,7 18,15 25,24 0,1 0,2 0,3z"/>
   <path class="fil9" d="M4758 5545c-7,-9 -14,-17 -22,-26 8,7 16,15 23,23 0,1 -1,2 -1,3z"/>
   <path class="fil9" d="M4751 5566c-4,-5 -8,-10 -13,-15 5,4 10,8 13,13 0,1 0,2 0,2z"/>
   <path class="fil6" d="M4703 5601c5,-7 11,-14 9,-25 -1,-10 3,-17 5,-24 2,-8 -2,-16 -3,-25 -1,-3 2,-19 3,-25 0,-6 -6,-20 -8,-26 -4,-16 -10,-28 -14,-45 -2,-9 -8,-15 -12,-24 -5,-9 -3,-18 -6,-28 -2,-10 -7,-16 -11,-24 -5,-18 -12,-31 -23,-41 -20,-24 -26,-5 -24,16 -2,5 4,13 3,19 -1,9 0,19 -2,27 -2,8 6,22 7,29 6,21 2,41 15,59 2,3 7,21 7,25 1,15 5,15 10,26 3,11 3,20 6,30 4,16 15,18 19,32 3,10 5,32 19,24z"/>
   <path class="fil9" d="M4704 5602c1,-1 1,-2 2,-3 4,-6 9,-13 7,-23 -1,-7 1,-12 3,-18 1,-2 1,-4 2,-6 1,-6 0,-12 -2,-18 0,-2 -1,-5 -1,-7l0 0c-1,-2 1,-9 2,-15 0,-4 1,-7 1,-9 0,-5 -3,-13 -5,-20 -1,-3 -2,-6 -3,-8 -2,-7 -4,-14 -7,-21 -2,-8 -5,-15 -7,-23 -1,-6 -5,-11 -8,-16 -1,-3 -3,-6 -4,-8 -3,-5 -3,-11 -4,-16 0,-4 0,-8 -2,-13 -1,-6 -4,-11 -7,-16 -2,-2 -3,-5 -4,-7 -3,-9 -6,-17 -10,-24 -3,-7 -8,-13 -14,-18 -5,-6 -9,-9 -13,-11 -2,-1 -5,0 -7,1 -2,1 -3,3 -4,6 -2,5 -2,13 -2,20 0,4 1,8 2,11 1,4 2,7 2,9 0,3 0,6 0,9 -1,6 -1,12 -2,18 -2,6 2,15 5,22 1,3 2,6 2,8 2,7 3,14 4,21 1,13 3,26 11,38 1,1 3,6 4,11 2,5 3,11 3,13 0,11 3,15 6,20 1,1 3,3 4,6 2,6 2,11 3,15 1,5 2,10 3,16 2,8 6,13 10,17 4,4 7,8 9,14 0,2 1,3 1,5 1,4 2,8 3,12 3,8 8,13 17,8l0 0zm0 -4c0,1 -1,1 -1,2 -7,3 -11,-1 -14,-7 -1,-3 -2,-8 -3,-12 0,-1 -1,-3 -1,-4 -2,-7 -6,-12 -9,-16 -4,-4 -8,-8 -10,-16 -1,-5 -2,-10 -3,-15 -1,-5 -1,-10 -3,-16l0 0c-1,-3 -3,-5 -4,-7 -3,-5 -5,-8 -6,-18 0,-2 -1,-8 -3,-14 -1,-5 -3,-10 -4,-12 -8,-11 -9,-23 -11,-36 -1,-7 -1,-15 -3,-22 -1,-2 -2,-5 -3,-8 -3,-7 -6,-16 -5,-20 1,-6 2,-13 2,-19 0,-3 0,-6 0,-9 0,-3 -1,-6 -2,-9 -1,-4 -2,-8 -1,-10l0 -1c-1,-7 -1,-14 1,-19 1,-2 2,-4 3,-5 2,-1 4,-1 6,0 3,1 7,4 12,10l0 0c5,5 10,10 14,17 3,7 6,15 9,24l0 0c1,3 3,5 4,8 3,4 6,9 7,15 1,4 2,8 2,12 0,6 1,11 4,17 1,3 3,5 4,8 3,5 6,10 8,16 2,8 5,15 7,23 3,7 5,13 7,21 0,2 2,5 3,8 2,7 5,14 5,18 -1,2 -1,6 -2,10 -1,6 -2,13 -1,16 0,2 1,4 1,7 2,5 3,11 2,16 -1,2 -1,5 -2,7 -2,5 -4,11 -3,18 2,10 -3,16 -7,22z"/>
   <path class="fil9" d="M4703 5602c-6,-44 -15,-82 -25,-117 -9,-35 -20,-69 -31,-103 -9,-27 -15,-52 -21,-79 9,62 34,122 49,183 9,34 17,73 24,117l4 -1z"/>
   <path class="fil9" d="M4639 5358c4,-10 8,-19 13,-28 -6,8 -11,16 -14,25 0,1 0,2 1,3z"/>
   <path class="fil9" d="M4649 5392c5,-11 10,-21 15,-32 -6,10 -11,19 -16,29 1,1 1,2 1,3z"/>
   <path class="fil9" d="M4662 5431c6,-13 11,-25 17,-38 -7,11 -14,22 -19,34 1,1 1,3 2,4z"/>
   <path class="fil9" d="M4671 5461c6,-14 12,-27 19,-41 -8,12 -15,24 -21,37 1,1 1,3 2,4z"/>
   <path class="fil9" d="M4682 5497c6,-14 12,-27 19,-41 -8,12 -15,24 -21,38 1,1 1,2 2,3z"/>
   <path class="fil9" d="M4687 5527c9,-14 17,-27 26,-40 -10,11 -19,23 -27,36 0,1 1,3 1,4z"/>
   <path class="fil9" d="M4694 5555c7,-12 13,-24 21,-36 -9,10 -16,21 -22,32 0,1 0,2 1,4z"/>
   <path class="fil9" d="M4697 5577c8,-12 14,-24 22,-36 -9,10 -16,21 -23,32 1,1 1,2 1,4z"/>
   <path class="fil9" d="M4637 5352c-6,-4 -12,-8 -18,-11 7,2 12,5 17,9 0,0 1,1 1,2z"/>
   <path class="fil9" d="M4647 5386c-9,-5 -17,-11 -26,-16 9,4 18,8 25,13 1,1 1,2 1,3z"/>
   <path class="fil9" d="M4659 5428c-10,-7 -20,-14 -31,-20 11,5 21,10 31,16 0,1 0,2 0,4z"/>
   <path class="fil9" d="M4668 5457c-12,-7 -23,-15 -36,-22 13,5 25,11 36,18 0,2 0,3 0,4z"/>
   <path class="fil9" d="M4679 5495c-11,-8 -22,-15 -33,-21 11,4 23,10 33,17 0,1 0,2 0,4z"/>
   <path class="fil9" d="M4686 5521c-11,-4 -22,-9 -33,-13 11,2 22,5 32,10 0,1 0,2 1,3z"/>
   <path class="fil9" d="M4692 5551c-10,-4 -20,-9 -30,-13 10,2 20,5 30,10 0,1 0,2 0,3z"/>
   <path class="fil9" d="M4695 5574c-7,-3 -12,-5 -18,-8 6,2 12,4 17,6 0,1 0,2 1,2z"/>
   <path class="fil8" d="M3777 4943l8 0 2 653c-6,-26 -9,-52 -10,-79l-2 0 2 -574z"/>
   <path class="fil6" d="M3781 5228c-4,6 -8,9 -9,11 -4,14 -12,1 -15,11 -2,4 -3,11 -8,9 -3,-1 -3,12 -10,9 -1,0 -7,-4 -7,-3 -2,4 -4,6 -9,5 -4,-1 -9,-5 -11,-4 -5,5 -11,0 -13,-4 -1,5 1,8 1,13 0,4 -4,1 -2,5 1,2 2,4 2,6 0,2 -5,0 -6,1 -1,2 4,10 4,13 0,4 -6,1 -1,7 1,2 1,4 1,6 0,2 -2,3 -1,5 7,9 -2,6 -3,10 1,5 4,7 4,11 0,4 -5,5 -7,6 0,3 1,5 1,8 0,1 0,2 -1,3 0,1 -1,2 -1,3 1,-1 1,-1 2,-1 2,1 7,-1 7,3 0,1 0,3 1,4 0,1 -1,4 -1,5l7 0c2,0 4,2 5,3 1,1 1,1 1,2 0,1 1,1 1,2 3,0 7,0 9,2 1,0 1,0 2,1 1,1 2,1 2,4 2,0 5,0 8,0 2,0 8,5 8,8 0,-4 1,-9 5,-10 3,-1 6,-2 8,0 0,-3 0,-7 2,-9 2,-2 3,-2 6,-2 0,-4 0,-5 1,-7 0,0 2,-1 3,-2 2,-1 6,-1 9,-1 1,-4 1,-3 4,-5 0,0 0,-1 0,-1 0,0 0,0 1,0 0,0 0,0 0,0 0,0 0,0 0,0 1,0 1,0 1,0 0,0 0,1 1,1 2,2 2,1 3,5 3,0 7,0 9,1 1,1 3,2 3,2 1,2 1,3 1,7 3,0 5,0 6,2 2,2 2,6 2,9 2,-2 5,-1 8,0 4,1 5,6 5,10 0,-3 6,-8 8,-8 3,0 6,0 8,0 0,-3 1,-3 3,-4 0,-1 0,-1 1,-1 2,-2 6,-2 10,-2 0,-1 0,-1 0,-2 0,-1 0,-1 1,-2 1,-1 3,-3 5,-3l7 0c0,-1 -1,-4 -1,-5 1,-1 1,-3 1,-4 0,-4 5,-2 7,-3 1,0 1,0 2,1 0,-1 -1,-2 -1,-3 0,-1 -1,-2 -1,-3 0,-3 1,-5 1,-8 -2,-1 -7,-2 -7,-6 0,-4 3,-6 4,-11 -1,-4 -10,-1 -3,-10 1,-2 -1,-3 -1,-5 0,-2 0,-4 2,-6 4,-6 -1,-3 -1,-7 0,-3 4,-11 3,-13 -1,-1 -6,1 -6,-1 0,-2 1,-4 2,-6 2,-4 -2,-1 -2,-5 0,-5 2,-8 1,-13 -2,4 -8,9 -13,4 -1,-1 -7,3 -10,4 -6,1 -8,-1 -10,-5 0,-1 -6,3 -7,3 -7,3 -7,-10 -10,-9 -5,2 -6,-5 -7,-9 -4,-10 -12,3 -16,-11 -1,-2 -5,-5 -9,-11z"/>
   <path class="fil10" d="M3781 5231c-1,2 -3,3 -5,5 -1,1 -3,3 -3,4 -2,8 -6,8 -10,7 -2,0 -4,0 -5,4l0 0c-1,1 -1,1 -1,2 0,1 -1,2 -1,3 -1,4 -3,6 -8,4 0,0 0,2 -1,3l0 0c-1,4 -3,8 -8,6 -1,0 -2,-1 -4,-1 -1,-1 -2,-2 -2,-2 -1,0 0,-2 0,-1 -1,2 -2,4 -4,5 -1,1 -3,2 -7,1 -1,0 -3,-1 -5,-2 -2,-1 -4,-2 -4,-2 -1,1 -1,1 -2,1l0 0c-2,2 -4,2 -6,1 -2,-1 -4,-2 -5,-3 0,1 0,2 1,3 0,2 1,3 1,6 0,2 -2,3 -3,3 0,0 0,1 0,1 0,1 1,1 1,1 1,2 2,4 2,6 0,2 -2,2 -4,2 0,0 -1,0 -1,0 -1,0 -2,0 -2,0 0,0 1,3 2,5 1,3 2,5 2,7 0,2 -2,3 -3,4l0 0c0,0 0,0 2,2 0,1 1,3 1,4 1,1 1,2 1,3 0,2 -1,2 -2,3 0,0 0,1 0,1 4,5 3,7 2,9 -1,0 -2,1 -3,1 0,0 -1,1 -2,1 1,2 1,3 2,4 1,2 2,4 2,7 0,2 -1,3 -2,5 -2,1 -3,2 -5,2 0,1 0,1 0,2 1,1 1,3 1,5 0,0 0,1 0,1l0 0c0,1 0,2 -1,2 0,0 0,1 0,1l0 0 0 0 0 0 0 0c1,0 2,0 3,0 0,0 1,0 1,0l0 0c2,0 4,1 4,4 0,1 0,1 0,2l0 0c1,0 1,1 1,1 0,2 0,3 0,5l0 0 5 0c1,0 2,0 3,1 1,1 3,2 3,3 0,0 0,0 0,0l0 0c1,0 1,1 1,2l0 0c0,0 0,0 1,1 0,0 0,0 0,0l0 0c3,0 7,0 9,2l0 0c0,0 0,0 0,0l0 0c1,0 1,0 1,1l1 0 0 0c1,1 2,2 2,4 1,0 2,0 3,0 1,0 2,0 4,0 1,0 4,1 6,3 0,1 1,1 1,2 0,-1 1,-2 1,-3 1,-2 3,-4 5,-4 1,-1 3,-1 4,-1 1,0 2,0 3,0 0,-3 0,-6 2,-8 1,-1 2,-2 3,-2 1,0 2,-1 3,-1 0,-3 0,-4 1,-5 0,-1 1,-1 1,-2 1,0 2,-1 2,-1 3,-1 6,-1 8,-1l1 0 0 0c1,-2 1,-2 1,-3 1,-1 1,-1 2,-2l1 0c0,0 0,-1 0,-1l0 0c0,0 1,0 1,0l0 0 0 0 0 0 0 0c0,0 0,0 0,0l0 0 0 0 1 -1 1 1 0 0 0 0c0,0 0,0 0,0l0 0 0 0 0 0 0 0c0,0 1,0 1,0l0 0c0,0 0,1 1,1l0 0c1,1 1,1 2,2 0,1 1,1 1,3l0 0 1 0c3,0 5,0 8,1 0,0 1,1 2,1 0,1 1,1 1,2 1,1 2,2 2,5 1,0 1,1 2,1 1,0 2,1 3,2 2,2 2,5 2,8 1,0 2,0 3,0 1,0 3,0 4,1 2,0 4,2 5,4 0,1 1,2 1,3 0,-1 1,-1 1,-2 2,-2 5,-3 6,-3 2,0 3,0 4,0 1,0 2,0 3,0 0,-2 1,-3 3,-4l0 0 0 0c0,-1 0,-1 1,-1l0 0c0,0 0,0 0,0l0 0c2,-2 6,-2 9,-2l0 0c1,0 1,0 1,0 0,-1 0,-1 0,-1l0 0c0,-1 0,-2 1,-2l0 0c0,0 0,0 0,0 1,-1 2,-2 3,-3 1,-1 2,-1 3,-1l5 0 0 0c0,-2 0,-3 0,-5 0,0 1,-1 1,-1l0 0c0,-1 0,-1 0,-2 0,-3 2,-4 4,-4 1,0 1,0 1,0 1,0 2,0 3,0l0 0 0 0 0 0 0 0c0,0 0,-1 0,-1 0,0 -1,-1 -1,-2l0 0c0,0 0,-1 0,-1 0,-2 0,-4 1,-5 0,-1 0,-1 0,-2 -1,0 -3,-1 -5,-2 -1,-2 -2,-3 -2,-5 0,-3 1,-5 2,-7 1,-1 1,-2 2,-4 0,0 -1,-1 -2,-1 -1,0 -2,-1 -2,-1 -2,-2 -3,-4 1,-9 0,0 0,-1 0,-1 -1,-1 -2,-1 -2,-3 0,-1 1,-2 1,-3 0,-1 1,-3 2,-4 1,-2 1,-2 1,-2l0 0c-1,-1 -3,-2 -3,-4 0,-2 1,-4 2,-7 1,-2 2,-5 2,-5 0,0 -1,0 -2,0 0,0 -1,0 -1,0 -2,0 -3,0 -3,-2 0,-2 1,-4 1,-6 1,0 1,0 1,-1 0,0 0,-1 0,-1 -1,0 -2,-1 -2,-3 0,-3 0,-4 0,-6 1,-1 1,-2 1,-3 -1,1 -3,2 -4,3 -2,1 -5,1 -7,-1 0,0 -1,0 -2,-1 0,0 -2,1 -4,2 -1,1 -3,2 -5,2 -3,1 -5,0 -7,-1 -2,-1 -3,-3 -4,-5 0,-1 1,1 1,1 -1,0 -2,1 -3,2 -2,0 -3,1 -4,1 -5,2 -7,-2 -8,-6l0 0c-1,-1 -1,-3 -1,-3 -4,2 -7,0 -8,-4 0,-1 -1,-2 -1,-3 0,-1 0,-2 -1,-2 -1,-4 -3,-4 -5,-4 -4,1 -7,1 -10,-7 0,-1 -2,-3 -3,-4 -2,-2 -3,-3 -5,-5zm-6 3c1,-2 3,-4 5,-6l1 -2 1 2c2,2 4,4 5,6 2,2 4,3 4,5 2,6 5,6 8,6 3,0 6,-1 8,5 0,1 0,2 0,2 1,1 1,2 1,3 1,2 2,4 5,3 2,-1 3,1 4,4l0 0c1,3 2,6 5,5 1,0 2,-1 4,-2 1,0 2,-1 3,-1 1,-1 2,-1 2,0 1,2 2,4 3,4 1,1 3,1 5,1 2,0 4,-1 5,-2 3,-2 5,-3 7,-2 0,1 1,1 1,1 2,1 3,1 5,1 1,-1 3,-2 4,-4 0,0 1,-1 1,-2l3 1c0,3 -1,5 -1,8 -1,1 -1,3 -1,5 0,1 1,1 1,1 1,1 3,1 1,4 0,1 0,1 0,1 -1,2 -2,3 -2,5 0,0 1,0 1,0 1,0 1,0 1,0 2,0 4,0 4,1 1,1 0,4 -1,7 -1,2 -2,5 -2,6 0,1 0,1 1,2l0 0c2,1 3,1 -1,6 0,1 -1,1 -1,2 0,1 0,2 0,3 0,1 0,1 1,1 1,2 1,2 0,4 -3,4 -3,5 -2,6 0,0 1,0 2,1 1,0 3,1 3,3l0 1c0,1 -1,3 -2,4 -1,2 -2,4 -2,6 0,1 1,2 2,3 1,1 3,2 5,2l1 0 0 1c-1,1 -1,3 -1,3 0,2 0,3 0,5 0,0 0,1 0,1l0 0c0,0 0,1 0,1 0,1 0,1 1,1 0,1 0,2 0,3l-2 0c0,0 0,0 0,0l0 0 0 0 0 0c-1,1 -3,1 -4,1 0,0 0,0 -1,0 -1,0 -2,0 -2,1 0,1 0,2 0,2l0 0c0,1 0,2 0,2 -1,1 0,2 0,3 0,1 0,2 0,2l0 1 -1 0 -7 0c-1,0 -1,1 -2,1 -1,1 -2,2 -2,2 0,1 -1,1 -1,1l0 0c0,0 0,0 0,0l0 0c0,1 0,1 0,1 0,0 0,1 0,1l0 2 -1 0c-1,0 -1,0 -2,0 -3,-1 -6,-1 -7,1l0 0c-1,0 -1,0 -2,0l0 0c0,1 0,0 0,1l0 0 0 0c-1,1 -1,1 -1,3l0 1 -1 0c-2,0 -3,0 -4,0 -2,0 -3,0 -5,0 0,0 -2,1 -4,3 -1,1 -3,3 -3,4l0 0 0 0 -2 0c0,-1 0,-1 0,-1 0,-1 0,-3 -1,-5 -1,-1 -2,-3 -3,-3 -2,-1 -3,-1 -4,-1 -1,0 -2,0 -3,1l-2 2 0 -2c0,-1 0,-2 0,-2 0,-3 0,-6 -2,-7 0,-1 -1,-1 -2,-2 -1,0 -1,0 -3,0l-1 0 0 -1 0 -1c0,-3 0,-4 -1,-5 0,0 0,0 -1,-1 0,0 -1,0 -1,-1 -2,0 -5,0 -7,0 -1,0 -2,0 -2,0l-1 0 0 -1 0 -2c-1,-1 -1,-1 -1,-2 0,0 -1,0 -2,-1l0 0c0,0 0,-1 -1,-1 0,0 0,0 0,0 0,0 0,0 0,0 0,0 0,1 -1,1l0 0c-1,1 -1,1 -2,1 0,1 0,1 -1,2l0 2 0 1 -1 0c0,0 -1,0 -2,0 -2,0 -5,0 -7,0 0,1 -1,1 -1,1 -1,1 -1,1 -1,1 -1,1 -1,2 -1,5l0 1 0 1 -1 0c-1,0 -2,0 -3,0 -1,1 -1,1 -2,2 -2,1 -2,4 -2,7 0,0 0,1 0,2l0 2 -2 -2c-1,-1 -2,-1 -3,-1 -1,0 -2,0 -3,1 -2,0 -3,2 -4,3 -1,2 -1,4 -1,5 0,0 0,0 0,1l-2 0 0 0 0 0c0,-1 -1,-3 -3,-4 -2,-2 -3,-3 -4,-3 -2,0 -3,0 -4,0 -2,0 -3,0 -4,0l-1 0 0 -1c0,-2 -1,-2 -2,-3l0 0 0 0c0,-1 0,0 0,-1l0 0c-1,0 -1,0 -1,0l0 0c-2,-2 -5,-2 -8,-1 0,0 -1,0 -1,0l-2 0 0 -2c0,0 0,-1 0,-1 0,0 0,0 0,-1l0 0c0,0 0,0 0,0l0 0c0,0 -1,0 -1,-1 0,0 -1,-1 -2,-2 -1,0 -1,-1 -2,-1l-7 0 -1 0 0 -1c0,0 0,-1 0,-2 1,-1 1,-2 1,-3 -1,0 -1,-1 -1,-2l0 0c0,0 0,-1 0,-2 0,-1 -1,-1 -2,-1l0 0c-1,0 -1,0 -1,0 -1,0 -2,0 -3,-1l0 0 -1 0 0 0c0,0 0,0 0,0l-2 0c0,-1 0,-2 1,-3 0,0 0,0 0,-1 0,0 0,-1 0,-1l0 0c1,0 1,-1 1,-1 0,-2 -1,-3 -1,-5 0,0 0,-2 0,-3l0 -1 1 0c1,0 3,-1 4,-2 1,-1 2,-2 2,-3 0,-2 -1,-4 -2,-6 -1,-1 -2,-3 -2,-4l0 -1c0,-2 2,-3 4,-3 0,-1 1,-1 1,-1 1,-1 1,-2 -2,-6 -1,-2 0,-2 1,-4 0,0 0,0 0,-1 0,-1 0,-2 0,-3 0,-1 -1,-1 -1,-2 -4,-5 -3,-5 -1,-6l0 0c1,-1 1,-1 1,-2 0,-1 -1,-4 -1,-6 -2,-3 -3,-6 -2,-7 1,-1 2,-1 4,-1 0,0 1,0 1,0 1,0 1,0 1,0 0,-2 -1,-3 -1,-5 -1,0 -1,0 -1,-1 -1,-3 0,-3 1,-4 1,0 1,0 1,-1 0,-2 0,-4 -1,-5 0,-3 -1,-5 0,-8l2 -1c0,1 1,2 1,2 2,2 3,3 4,4 2,0 3,0 5,-1l0 0c0,0 1,0 1,-1 2,-1 4,0 7,2 2,1 3,2 5,2 2,0 4,0 5,-1 1,0 2,-2 3,-4 0,-1 1,-1 3,0 0,0 1,1 3,1 1,1 2,2 3,2 3,1 4,-2 5,-5l0 0c1,-3 2,-5 4,-4 3,1 4,-1 5,-3 0,-1 0,-2 1,-3 0,0 0,-1 0,-2l0 0c3,-6 6,-5 9,-5 2,0 5,0 7,-6 0,-2 2,-3 4,-5zm5 120c0,0 0,0 0,0l0 0 0 0 0 0 0 0zm2 0l0 0 0 0 0 0c0,0 0,0 0,0l0 0z"/>
   <path class="fil10" d="M3781 5228c1,27 1,44 1,78 13,-15 22,-29 32,-46 -9,19 -18,33 -32,49 0,12 0,26 0,44 9,-6 16,-11 23,-16 6,-19 12,-49 14,-69 -1,21 -5,46 -11,67 36,-27 40,-42 54,-70 -11,27 -19,45 -46,66 19,-1 31,-9 49,-14 -20,7 -30,16 -52,17l0 0c-5,4 -10,8 -17,12 22,3 52,3 74,1 -24,4 -53,5 -77,1 -3,3 -7,5 -11,8l-1 -1 -1 1c-4,-3 -8,-5 -11,-8 -24,4 -53,3 -77,-1 21,2 52,2 74,-1 -7,-4 -12,-8 -17,-12l0 0c-22,-1 -32,-10 -52,-17 18,5 30,13 48,14 -26,-21 -35,-39 -46,-66 14,28 19,43 55,70 -7,-21 -11,-46 -11,-67 2,20 8,50 14,69 7,5 14,10 23,16 0,-16 0,-30 0,-42 -15,-17 -23,-31 -32,-51 9,17 19,32 32,47 0,-32 0,-53 1,-79z"/>
   <path class="fil6" d="M3781 5409c-4,6 -8,9 -9,11 -4,14 -12,1 -15,11 -2,4 -3,11 -8,9 -3,-1 -3,12 -10,9 -1,-1 -7,-4 -7,-4 -2,5 -4,7 -9,6 -4,-1 -9,-5 -11,-4 -5,4 -11,0 -13,-5 -1,6 1,9 1,13 0,4 -4,2 -2,6 1,1 2,3 2,6 0,2 -5,0 -6,1 -1,2 4,10 4,12 0,5 -6,2 -1,8 1,2 1,4 1,6 0,2 -2,3 -1,4 7,10 -2,7 -3,11 1,4 4,7 4,11 0,4 -5,5 -7,6 0,3 1,5 1,7 0,2 0,2 -1,4 0,1 -1,1 -1,2 1,0 1,0 2,0 2,1 7,-1 7,3 0,1 0,3 1,4 0,1 -1,4 -1,5l7 0c2,0 4,2 5,3 1,1 1,1 1,2 0,1 1,1 1,2 3,0 7,0 9,2 1,0 1,0 2,0 1,2 2,2 2,4 2,1 5,1 8,1 2,0 8,5 8,7 0,-3 1,-8 5,-9 3,-1 6,-2 8,0 0,-3 0,-7 2,-9 2,-2 3,-3 6,-3 0,-3 0,-4 1,-6 0,-1 2,-2 3,-2 2,-1 6,-1 9,-1 1,-4 1,-4 4,-5 0,-1 0,-1 0,-1 0,0 0,0 1,0 0,0 0,-1 0,-1 0,0 0,1 0,1 1,0 1,0 1,0 0,0 0,0 1,1 2,1 2,1 3,5 3,0 7,0 9,1 1,0 3,1 3,2 1,2 1,3 1,6 3,0 5,1 6,3 2,2 2,6 2,9 2,-2 5,-1 8,0 4,1 5,6 5,9 0,-2 6,-7 8,-7 3,0 6,0 8,-1 0,-2 1,-2 3,-4 0,0 0,0 1,0 2,-2 6,-2 10,-2 0,-1 0,-1 0,-2 0,-1 0,-1 1,-2 1,-1 3,-3 5,-3l7 0c0,-1 -1,-4 -1,-5 1,-1 1,-3 1,-4 0,-4 5,-2 7,-3 1,0 1,0 2,0 0,-1 -1,-1 -1,-2 0,-2 -1,-2 -1,-4 0,-2 1,-4 1,-7 -2,-1 -7,-2 -7,-6 0,-4 3,-7 4,-11 -1,-4 -10,-1 -3,-11 1,-1 -1,-2 -1,-4 0,-2 0,-4 2,-6 4,-6 -1,-3 -1,-8 0,-2 4,-10 3,-12 -1,-1 -6,1 -6,-1 0,-3 1,-5 2,-6 2,-4 -2,-2 -2,-6 0,-4 2,-7 1,-13 -2,5 -8,9 -13,5 -1,-1 -7,3 -10,4 -6,1 -8,-1 -10,-6 0,0 -6,3 -7,4 -7,3 -7,-10 -10,-9 -5,2 -6,-5 -7,-9 -4,-10 -12,3 -16,-11 -1,-2 -5,-5 -9,-11z"/>
   <path class="fil10" d="M3781 5411c-1,2 -3,4 -5,5 -1,2 -3,3 -3,5 -2,8 -6,7 -10,7 -2,0 -4,0 -5,4l0 0c-1,0 -1,1 -1,2 0,1 -1,2 -1,3 -1,3 -3,6 -8,4 0,0 0,1 -1,3l0 0c-1,3 -3,8 -8,6 -1,0 -2,-1 -4,-2 -1,0 -2,-1 -2,-1 -1,0 0,-2 0,-1 -1,2 -2,4 -4,5 -1,1 -3,2 -7,1 -1,0 -3,-1 -5,-2 -2,-1 -4,-2 -4,-2 -1,1 -1,1 -2,1l0 0c-2,1 -4,1 -6,1 -2,-1 -4,-2 -5,-4 0,2 0,3 1,4 0,2 1,3 1,5 0,3 -2,4 -3,4 0,0 0,0 0,1 0,0 1,1 1,1 1,2 2,4 2,6 0,2 -2,2 -4,2 0,0 -1,0 -1,0 -1,0 -2,0 -2,0 0,0 1,3 2,5 1,3 2,5 2,6 0,3 -2,4 -3,4l0 0c0,1 0,1 2,3 0,1 1,2 1,4 1,1 1,2 1,3 0,2 -1,2 -2,3 0,0 0,0 0,1 4,5 3,7 2,9 -1,0 -2,0 -3,1 0,0 -1,0 -2,1 1,1 1,3 2,4 1,2 2,4 2,7 0,2 -1,3 -2,4 -2,2 -3,2 -5,3 0,0 0,1 0,2 1,1 1,3 1,4 0,1 0,2 0,2l0 0c0,1 0,1 -1,2 0,0 0,1 0,1l0 0 0 0 0 0 0 0c1,0 2,0 3,0 0,0 1,0 1,0l0 0c2,0 4,0 4,4 0,1 0,1 0,2l0 0c1,0 1,1 1,1 0,1 0,3 0,4l0 1 5 0c1,0 2,0 3,1 1,1 3,2 3,2 0,1 0,1 0,1l0 0c1,0 1,0 1,2l0 0c0,0 0,0 1,0 0,1 0,1 0,1l0 0c3,0 7,0 9,2l0 0c0,0 0,0 0,0l0 0c1,0 1,0 1,0l1 1 0 0c1,1 2,1 2,3 1,0 2,0 3,1 1,0 2,0 4,0 1,0 4,1 6,3 0,0 1,1 1,1 0,-1 1,-2 1,-2 1,-2 3,-4 5,-5 1,0 3,-1 4,0 1,0 2,0 3,0 0,-3 0,-6 2,-8 1,-1 2,-2 3,-2 1,-1 2,-1 3,-1 0,-3 0,-4 1,-6 0,0 1,0 1,-1 1,0 2,-1 2,-1 3,-1 6,-1 8,-1l1 0 0 -1c1,-1 1,-2 1,-2 1,-1 1,-1 2,-2l1 0c0,0 0,-1 0,-1l0 0c0,0 1,0 1,0l0 0 0 0 0 0 0 0c0,0 0,0 0,0l0 -1 0 0 1 0 1 0 0 0 0 1c0,0 0,0 0,0l0 0 0 0 0 0 0 0c0,0 1,0 1,0l0 0c0,0 0,1 1,1l0 0c1,1 1,1 2,2 0,0 1,1 1,2l0 1 1 0c3,0 5,0 8,1 0,0 1,1 2,1 0,1 1,1 1,1 1,2 2,3 2,6 1,0 1,0 2,1 1,0 2,1 3,2 2,2 2,5 2,8 1,0 2,0 3,0 1,-1 3,0 4,0 2,1 4,3 5,5 0,0 1,1 1,2 0,0 1,-1 1,-1 2,-2 5,-3 6,-3 2,0 3,0 4,0 1,-1 2,-1 3,-1 0,-2 1,-2 3,-3l0 0 0 -1c0,0 0,0 1,0l0 0c0,0 0,0 0,0l0 0c2,-2 6,-2 9,-2l0 0c1,0 1,0 1,-1 0,0 0,0 0,0l0 0c0,-2 0,-2 1,-2l0 0c0,0 0,0 0,-1 1,0 2,-1 3,-2 1,-1 2,-1 3,-1l5 0 0 -1c0,-1 0,-3 0,-4 0,0 1,-1 1,-1l0 0c0,-1 0,-1 0,-2 0,-4 2,-4 4,-4 1,0 1,0 1,0 1,0 2,0 3,0l0 0 0 0 0 0 0 0c0,0 0,-1 0,-1 0,-1 -1,-1 -1,-2l0 0c0,0 0,-1 0,-2 0,-1 0,-3 1,-4 0,-1 0,-2 0,-2 -1,-1 -3,-1 -5,-3 -1,-1 -2,-2 -2,-4 0,-3 1,-5 2,-7 1,-1 1,-3 2,-4 0,-1 -1,-1 -2,-1 -1,-1 -2,-1 -2,-1 -2,-2 -3,-4 1,-9 0,-1 0,-1 0,-1 -1,-1 -2,-1 -2,-3 0,-1 1,-2 1,-3 0,-2 1,-3 2,-4 1,-2 1,-2 1,-3l0 0c-1,0 -3,-1 -3,-4 0,-1 1,-3 2,-6 1,-2 2,-5 2,-5 0,0 -1,0 -2,0 0,0 -1,0 -1,0 -2,0 -3,0 -3,-2 0,-2 1,-4 1,-6 1,0 1,-1 1,-1 0,-1 0,-1 0,-1 -1,0 -2,-1 -2,-4 0,-2 0,-3 0,-5 1,-1 1,-2 1,-4 -1,2 -3,3 -4,4 -2,0 -5,0 -7,-1 0,0 -1,0 -2,-1 0,0 -2,1 -4,2 -1,1 -3,2 -5,2 -3,1 -5,0 -7,-1 -2,-1 -3,-3 -4,-5 0,-1 1,1 1,1 -1,0 -2,1 -3,1 -2,1 -3,2 -4,2 -5,2 -7,-3 -8,-6l0 0c-1,-2 -1,-3 -1,-3 -4,2 -7,-1 -8,-4 0,-1 -1,-2 -1,-3 0,-1 0,-2 -1,-2 -1,-4 -3,-4 -5,-4 -4,0 -7,1 -10,-7 0,-2 -2,-3 -3,-5 -2,-1 -3,-3 -5,-5zm-6 4c1,-2 3,-4 5,-6l1 -2 1 2c2,2 4,4 5,6 2,2 4,3 4,5 2,6 5,6 8,6 3,-1 6,-1 8,5 0,1 0,1 0,2 1,1 1,2 1,3 1,2 2,4 5,3 2,-1 3,1 4,4l0 0c1,3 2,6 5,5 1,0 2,-1 4,-2 1,0 2,-1 3,-1 1,-1 2,-1 2,0 1,2 2,3 3,4 1,1 3,1 5,1 2,-1 4,-1 5,-2 3,-2 5,-3 7,-2 0,1 1,1 1,1 2,1 3,1 5,0 1,0 3,-1 4,-3 0,0 1,-1 1,-2l3 0c0,4 -1,6 -1,8 -1,2 -1,4 -1,5 0,2 1,2 1,2 1,1 3,1 1,4 0,1 0,1 0,1 -1,2 -2,3 -2,5 0,0 1,-1 1,-1 1,0 1,0 1,0 2,0 4,0 4,2 1,1 0,4 -1,7 -1,2 -2,4 -2,5 0,2 0,2 1,2l0 0c2,2 3,2 -1,7 0,0 -1,1 -1,2 0,1 0,2 0,3 0,1 0,1 1,1 1,1 1,2 0,4 -3,4 -3,5 -2,6 0,0 1,0 2,0 1,1 3,2 3,4l0 0c0,2 -1,3 -2,5 -1,2 -2,3 -2,6 0,1 1,2 2,3 1,1 3,1 5,2l1 0 0 1c-1,1 -1,2 -1,3 0,2 0,3 0,4 0,1 0,1 0,2l0 0c0,0 0,1 0,1 0,0 0,1 1,1 0,1 0,1 0,2l-2 1c0,0 0,0 0,0l0 0 0 0 0 0c-1,1 -3,1 -4,0 0,0 0,0 -1,0 -1,0 -2,1 -2,2 0,1 0,1 0,2l0 0c0,1 0,1 0,2 -1,1 0,2 0,3 0,1 0,1 0,2l0 1 -1 0 -7 0c-1,0 -1,0 -2,1 -1,1 -2,1 -2,2 0,0 -1,1 -1,1l0 0c0,0 0,0 0,0l0 0c0,0 0,1 0,1 0,0 0,1 0,1l0 1 -1 0c-1,0 -1,0 -2,0 -3,0 -6,0 -7,2l0 0c-1,0 -1,0 -2,0l0 0c0,0 0,0 0,0l0 0 0 0c-1,2 -1,2 -1,3l0 2 -1 0c-2,0 -3,0 -4,0 -2,0 -3,0 -5,0 0,0 -2,1 -4,3 -1,1 -3,2 -3,3l0 0 0 0 -2 0c0,0 0,0 0,0 0,-2 0,-4 -1,-5 -1,-2 -2,-3 -3,-3 -2,-1 -3,-1 -4,-1 -1,0 -2,0 -3,1l-2 2 0 -3c0,0 0,-1 0,-1 0,-3 0,-6 -2,-7 0,-1 -1,-2 -2,-2 -1,0 -1,-1 -3,-1l-1 0 0 -1 0 -1c0,-2 0,-3 -1,-4 0,0 0,-1 -1,-1 0,0 -1,-1 -1,-1 -2,-1 -5,-1 -7,-1 -1,0 -2,0 -2,0l-1 0 0 0 0 -2c-1,-1 -1,-2 -1,-2 0,0 -1,-1 -2,-1l0 0c0,-1 0,-1 -1,-1 0,0 0,0 0,0 0,0 0,0 0,0 0,0 0,0 -1,1l0 0c-1,0 -1,1 -2,1 0,0 0,1 -1,2l0 2 0 0 -1 0c0,0 -1,0 -2,0 -2,0 -5,0 -7,1 0,0 -1,1 -1,1 -1,0 -1,1 -1,1 -1,1 -1,2 -1,4l0 1 0 1 -1 0c-1,0 -2,1 -3,1 -1,0 -1,1 -2,2 -2,1 -2,4 -2,7 0,0 0,1 0,1l0 3 -2 -2c-1,-1 -2,-1 -3,-1 -1,0 -2,0 -3,1 -2,0 -3,1 -4,3 -1,1 -1,3 -1,5 0,0 0,0 0,0l-2 0 0 0 0 0c0,-1 -1,-2 -3,-3 -2,-2 -3,-3 -4,-3 -2,0 -3,0 -4,0 -2,0 -3,0 -4,0l-1 0 0 -2c0,-1 -1,-1 -2,-3l0 0 0 0c0,0 0,0 0,0l0 0c-1,0 -1,0 -1,0l0 0c-2,-2 -5,-2 -8,-2 0,0 -1,0 -1,0l-2 0 0 -1c0,0 0,-1 0,-1 0,0 0,-1 0,-1l0 0c0,0 0,0 0,0l0 0c0,0 -1,-1 -1,-1 0,-1 -1,-1 -2,-2 -1,-1 -1,-1 -2,-1l-7 0 -1 0 0 -1c0,-1 0,-1 0,-2 1,-1 1,-2 1,-3 -1,-1 -1,-1 -1,-2l0 0c0,-1 0,-1 0,-2 0,-1 -1,-2 -2,-2l0 0c-1,0 -1,0 -1,0 -1,1 -2,1 -3,0l0 0 -1 0 0 0c0,0 0,0 0,0l-2 -1c0,-1 0,-1 1,-2 0,0 0,-1 0,-1 0,0 0,-1 0,-1l0 0c1,-1 1,-1 1,-2 0,-1 -1,-2 -1,-4 0,-1 0,-2 0,-3l0 -1 1 0c1,-1 3,-1 4,-2 1,-1 2,-2 2,-3 0,-3 -1,-4 -2,-6 -1,-2 -2,-3 -2,-5l0 0c0,-2 2,-3 4,-4 0,0 1,0 1,0 1,-1 1,-2 -2,-6 -1,-2 0,-3 1,-4 0,0 0,0 0,-1 0,-1 0,-2 0,-3 0,-1 -1,-2 -1,-2 -4,-5 -3,-5 -1,-7l0 0c1,0 1,0 1,-2 0,-1 -1,-3 -1,-5 -2,-3 -3,-6 -2,-7 1,-2 2,-2 4,-2 0,0 1,0 1,0 1,0 1,1 1,1 0,-2 -1,-3 -1,-5 -1,0 -1,0 -1,-1 -1,-3 0,-3 1,-4 1,0 1,0 1,-2 0,-1 0,-3 -1,-5 0,-2 -1,-4 0,-8l2 0c0,1 1,2 1,2 2,2 3,3 4,3 2,1 3,1 5,0l0 0c0,0 1,0 1,-1 2,-1 4,0 7,2 2,1 3,1 5,2 2,0 4,0 5,-1 1,-1 2,-2 3,-4 0,-1 1,-1 3,0 0,0 1,1 3,1 1,1 2,2 3,2 3,1 4,-2 5,-5l0 0c1,-3 2,-5 4,-4 3,1 4,-1 5,-3 0,-1 0,-2 1,-3 0,-1 0,-2 0,-2l0 0c3,-6 6,-6 9,-5 2,0 5,0 7,-6 0,-2 2,-3 4,-5zm5 120c0,0 0,0 0,0l0 0 0 0 0 0 0 0zm2 0l0 0 0 0 0 0c0,0 0,0 0,0l0 0z"/>
   <path class="fil10" d="M3781 5409c1,27 1,44 1,78 13,-15 22,-30 32,-47 -9,20 -18,34 -32,50 0,12 0,26 0,43 9,-5 16,-10 23,-15 6,-20 12,-49 14,-69 -1,21 -5,46 -11,67 36,-27 40,-42 54,-70 -11,26 -19,44 -46,66 19,-2 31,-9 49,-15 -20,8 -30,16 -52,18l0 0c-5,4 -10,8 -17,12 22,3 52,3 74,1 -24,4 -53,4 -77,1 -3,3 -7,5 -11,7l-1 0 -1 0c-4,-2 -8,-4 -11,-7 -24,3 -53,3 -77,-1 21,2 52,2 74,-1 -7,-4 -12,-8 -17,-12l0 0c-22,-2 -32,-10 -52,-18 18,6 30,13 48,15 -26,-22 -35,-40 -46,-66 14,28 19,43 55,70 -7,-21 -11,-46 -11,-67 2,20 8,49 14,69 7,5 14,10 23,16 0,-17 0,-30 0,-43 -15,-16 -23,-30 -32,-50 9,17 19,32 32,47 0,-32 0,-53 1,-79z"/>
   <path class="fil6" d="M3781 5049c-4,6 -8,9 -9,11 -4,14 -12,1 -15,11 -2,4 -3,11 -8,9 -3,-1 -3,12 -10,9 -1,-1 -7,-4 -7,-4 -2,5 -4,7 -9,6 -4,-1 -9,-5 -11,-4 -5,5 -11,0 -13,-4 -1,5 1,8 1,12 0,4 -4,2 -2,6 1,2 2,3 2,6 0,2 -5,0 -6,1 -1,2 4,10 4,12 0,5 -6,2 -1,8 1,2 1,4 1,6 0,2 -2,3 -1,4 7,10 -2,7 -3,11 1,4 4,7 4,11 0,4 -5,5 -7,6 0,3 1,5 1,7 0,2 0,2 -1,4 0,1 -1,1 -1,2 1,0 1,0 2,0 2,1 7,-1 7,3 0,1 0,3 1,4 0,1 -1,4 -1,5l7 0c2,0 4,2 5,3 1,1 1,1 1,2 0,1 1,1 1,2 3,0 7,0 9,2 1,0 1,0 2,0 1,2 2,2 2,5 2,0 5,0 8,0 2,0 8,5 8,7 0,-3 1,-8 5,-9 3,-1 6,-2 8,0 0,-3 0,-7 2,-9 2,-2 3,-3 6,-3 0,-3 0,-4 1,-6 0,0 2,-1 3,-2 2,-1 6,-1 9,-1 1,-4 1,-4 4,-5 0,-1 0,-1 0,-1 0,0 0,0 1,0 0,0 0,-1 0,-1 0,0 0,1 0,1 1,0 1,0 1,0 0,0 0,0 1,1 2,1 2,1 3,5 3,0 7,0 9,1 1,1 3,2 3,2 1,2 1,3 1,6 3,0 5,1 6,3 2,2 2,6 2,9 2,-2 5,-1 8,0 4,1 5,6 5,9 0,-2 6,-7 8,-7 3,0 6,0 8,0 0,-3 1,-3 3,-5 0,0 0,0 1,0 2,-2 6,-2 10,-2 0,-1 0,-1 0,-2 0,-1 0,-1 1,-2 1,-1 3,-3 5,-3l7 0c0,-1 -1,-4 -1,-5 1,-1 1,-3 1,-4 0,-4 5,-2 7,-3 1,0 1,0 2,0 0,-1 -1,-1 -1,-2 0,-2 -1,-2 -1,-4 0,-2 1,-4 1,-7 -2,-1 -7,-2 -7,-6 0,-4 3,-7 4,-11 -1,-4 -10,-1 -3,-11 1,-1 -1,-2 -1,-4 0,-2 0,-4 2,-6 4,-6 -1,-3 -1,-8 0,-2 4,-10 3,-12 -1,-1 -6,1 -6,-1 0,-3 1,-4 2,-6 2,-4 -2,-2 -2,-6 0,-4 2,-7 1,-12 -2,4 -8,9 -13,4 -1,-1 -7,3 -10,4 -6,1 -8,-1 -10,-6 0,0 -6,3 -7,4 -7,3 -7,-10 -10,-9 -5,2 -6,-5 -7,-9 -4,-10 -12,3 -16,-11 -1,-2 -5,-5 -9,-11z"/>
   <path class="fil10" d="M3781 5051c-1,2 -3,4 -5,5 -1,2 -3,4 -3,5 -2,8 -6,7 -10,7 -2,0 -4,0 -5,4l0 0c-1,0 -1,1 -1,2 0,1 -1,2 -1,3 -1,3 -3,6 -8,4 0,0 0,1 -1,3l0 0c-1,4 -3,8 -8,6 -1,0 -2,-1 -4,-2 -1,0 -2,-1 -2,-1 -1,0 0,-2 0,-1 -1,2 -2,4 -4,5 -1,1 -3,2 -7,1 -1,0 -3,-1 -5,-2 -2,-1 -4,-2 -4,-2 -1,1 -1,1 -2,1l0 0c-2,1 -4,1 -6,1 -2,-1 -4,-2 -5,-4 0,2 0,3 1,4 0,2 1,3 1,5 0,3 -2,4 -3,4 0,0 0,0 0,1 0,0 1,1 1,1 1,2 2,4 2,6 0,2 -2,2 -4,2 0,0 -1,0 -1,0 -1,0 -2,0 -2,0 0,0 1,3 2,5 1,3 2,5 2,6 0,3 -2,4 -3,5l0 0c0,0 0,0 2,2 0,1 1,2 1,4 1,1 1,2 1,3 0,2 -1,2 -2,3 0,0 0,0 0,1 4,5 3,7 2,9 -1,0 -2,0 -3,1 0,0 -1,0 -2,1 1,1 1,3 2,4 1,2 2,4 2,7 0,2 -1,3 -2,4 -2,2 -3,2 -5,3 0,1 0,1 0,2 1,1 1,3 1,4 0,1 0,2 0,2l0 0c0,1 0,1 -1,2 0,0 0,1 0,1l0 0 0 0 0 0 0 0c1,0 2,0 3,0 0,0 1,0 1,0l0 0c2,0 4,1 4,4 0,1 0,1 0,2l0 0c1,0 1,1 1,1 0,2 0,3 0,4l0 1 5 0c1,0 2,0 3,1 1,1 3,2 3,2 0,1 0,1 0,1l0 0c1,0 1,1 1,2l0 0c0,0 0,0 1,0 0,1 0,1 0,1l0 0c3,0 7,0 9,2l0 0c0,0 0,0 0,0l0 0c1,0 1,0 1,1l1 0 0 0c1,1 2,2 2,3 1,0 2,1 3,1 1,0 2,0 4,0 1,0 4,1 6,3 0,0 1,1 1,1 0,-1 1,-2 1,-2 1,-2 3,-4 5,-5 1,0 3,0 4,0 1,0 2,0 3,0 0,-3 0,-6 2,-8 1,-1 2,-2 3,-2 1,-1 2,-1 3,-1 0,-3 0,-4 1,-6 0,0 1,0 1,-1 1,0 2,-1 2,-1 3,-1 6,-1 8,-1l1 0 0 -1c1,-1 1,-2 1,-2 1,-1 1,-1 2,-2l1 0c0,0 0,-1 0,-1l0 0c0,0 1,0 1,0l0 0 0 0 0 0 0 0c0,0 0,0 0,0l0 0 0 -1 1 0 1 0 0 1 0 0c0,0 0,0 0,0l0 0 0 0 0 0 0 0c0,0 1,0 1,0l0 0c0,0 0,1 1,1l0 0c1,1 1,1 2,2 0,0 1,1 1,2l0 1 1 0c3,0 5,0 8,1 0,0 1,1 2,1 0,1 1,1 1,1 1,2 2,3 2,6 1,0 1,0 2,1 1,0 2,1 3,2 2,2 2,5 2,8 1,0 2,0 3,0 1,0 3,0 4,0 2,1 4,3 5,5 0,0 1,1 1,2 0,0 1,-1 1,-1 2,-2 5,-3 6,-3 2,0 3,0 4,0 1,0 2,-1 3,-1 0,-1 1,-2 3,-3l0 0 0 0c0,-1 0,-1 1,-1l0 0c0,0 0,0 0,0l0 0c2,-2 6,-2 9,-2l0 0c1,0 1,0 1,-1 0,0 0,0 0,0l0 0c0,-1 0,-2 1,-2l0 0c0,0 0,0 0,-1 1,0 2,-1 3,-2 1,-1 2,-1 3,-1l5 0 0 -1c0,-1 0,-2 0,-4 0,0 1,-1 1,-1l0 0c0,-1 0,-1 0,-2 0,-3 2,-4 4,-4 1,0 1,0 1,0 1,0 2,0 3,0l0 0 0 0 0 0 0 0c0,0 0,-1 0,-1 0,-1 -1,-1 -1,-2l0 0c0,0 0,-1 0,-2 0,-1 0,-3 1,-4 0,-1 0,-1 0,-2 -1,-1 -3,-1 -5,-3 -1,-1 -2,-2 -2,-4 0,-3 1,-5 2,-7 1,-1 1,-3 2,-4 0,-1 -1,-1 -2,-1 -1,-1 -2,-1 -2,-1 -2,-2 -3,-4 1,-9 0,-1 0,-1 0,-1 -1,-1 -2,-1 -2,-3 0,-1 1,-2 1,-3 0,-2 1,-3 2,-4 1,-2 1,-2 1,-2l0 0c-1,-1 -3,-2 -3,-5 0,-1 1,-3 2,-6 1,-2 2,-5 2,-5 0,0 -1,0 -2,0 0,0 -1,0 -1,0 -2,0 -3,0 -3,-2 0,-2 1,-4 1,-6 1,0 1,-1 1,-1 0,-1 0,-1 0,-1 -1,0 -2,-1 -2,-4 0,-2 0,-3 0,-5 1,-1 1,-2 1,-4 -1,2 -3,3 -4,4 -2,0 -5,0 -7,-1 0,0 -1,0 -2,-1 0,0 -2,1 -4,2 -1,1 -3,2 -5,2 -3,1 -5,0 -7,-1 -2,-1 -3,-3 -4,-5 0,-1 1,1 1,1 -1,0 -2,1 -3,1 -2,1 -3,2 -4,2 -5,2 -7,-2 -8,-6l0 0c-1,-2 -1,-3 -1,-3 -4,2 -7,-1 -8,-4 0,-1 -1,-2 -1,-3 0,-1 0,-2 -1,-2 -1,-4 -3,-4 -5,-4 -4,0 -7,1 -10,-7 0,-1 -2,-3 -3,-5 -2,-1 -3,-3 -5,-5zm-6 4c1,-2 3,-4 5,-6l1 -2 1 2c2,2 4,4 5,6 2,2 4,3 4,5 2,6 5,6 8,6 3,0 6,-1 8,5 0,1 0,1 0,2 1,1 1,2 1,3 1,2 2,4 5,3 2,-1 3,1 4,4l0 0c1,3 2,6 5,5 1,0 2,-1 4,-2 1,0 2,-1 3,-1 1,-1 2,-1 2,0 1,2 2,3 3,4 1,1 3,1 5,1 2,0 4,-1 5,-2 3,-2 5,-3 7,-2 0,1 1,1 1,1 2,1 3,1 5,0 1,0 3,-1 4,-3 0,0 1,-1 1,-2l3 0c0,4 -1,6 -1,8 -1,2 -1,4 -1,5 0,2 1,2 1,2 1,1 3,1 1,4 0,1 0,1 0,1 -1,2 -2,3 -2,5 0,0 1,-1 1,-1 1,0 1,0 1,0 2,0 4,0 4,2 1,1 0,4 -1,7 -1,2 -2,4 -2,5 0,2 0,2 1,2l0 0c2,2 3,2 -1,7 0,0 -1,1 -1,2 0,1 0,2 0,3 0,1 0,1 1,1 1,1 1,2 0,4 -3,4 -3,5 -2,6 0,0 1,0 2,0 1,1 3,2 3,4l0 0c0,2 -1,3 -2,5 -1,2 -2,4 -2,6 0,1 1,2 2,3 1,1 3,1 5,2l1 0 0 1c-1,1 -1,2 -1,3 0,2 0,3 0,4 0,1 0,1 0,2l0 0c0,0 0,1 0,1 0,0 0,1 1,1 0,1 0,1 0,2l-2 1c0,0 0,0 0,0l0 0 0 0 0 0c-1,1 -3,1 -4,1 0,-1 0,-1 -1,-1 -1,0 -2,1 -2,2 0,1 0,1 0,2l0 0c0,1 0,1 0,2 -1,1 0,2 0,3 0,1 0,1 0,2l0 1 -1 0 -7 0c-1,0 -1,1 -2,1 -1,1 -2,1 -2,2 0,0 -1,1 -1,1l0 0c0,0 0,0 0,0l0 0c0,0 0,1 0,1 0,0 0,1 0,1l0 1 -1 0c-1,0 -1,0 -2,0 -3,0 -6,0 -7,2l0 0c-1,0 -1,0 -2,0l0 0c0,0 0,0 0,0l0 1 0 0c-1,1 -1,1 -1,3l0 1 -1 0c-2,0 -3,0 -4,0 -2,0 -3,0 -5,0 0,0 -2,1 -4,3 -1,1 -3,2 -3,3l0 0 0 0 -2 0c0,0 0,0 0,0 0,-2 0,-4 -1,-5 -1,-2 -2,-3 -3,-3 -2,-1 -3,-1 -4,-1 -1,0 -2,0 -3,1l-2 2 0 -3c0,0 0,-1 0,-1 0,-3 0,-6 -2,-7 0,-1 -1,-2 -2,-2 -1,0 -1,0 -3,0l-1 0 0 -2 0 -1c0,-2 0,-3 -1,-4 0,0 0,-1 -1,-1 0,0 -1,-1 -1,-1 -2,-1 -5,-1 -7,-1 -1,0 -2,0 -2,0l-1 0 0 0 0 -2c-1,-1 -1,-1 -1,-2 0,0 -1,-1 -2,-1l0 0c0,-1 0,-1 -1,-1 0,0 0,0 0,0 0,0 0,0 0,0 0,0 0,0 -1,1l0 0c-1,0 -1,1 -2,1 0,1 0,1 -1,2l0 2 0 0 -1 0c0,0 -1,0 -2,0 -2,0 -5,0 -7,1 0,0 -1,1 -1,1 -1,0 -1,1 -1,1 -1,1 -1,2 -1,4l0 1 0 2 -1 0c-1,0 -2,0 -3,0 -1,0 -1,1 -2,2 -2,1 -2,4 -2,7 0,0 0,1 0,1l0 3 -2 -2c-1,-1 -2,-1 -3,-1 -1,0 -2,0 -3,1 -2,0 -3,1 -4,3 -1,1 -1,3 -1,5 0,0 0,0 0,0l-2 0 0 0 0 0c0,-1 -1,-2 -3,-3 -2,-2 -3,-3 -4,-3 -2,0 -3,0 -4,0 -2,0 -3,0 -4,0l-1 0 0 -1c0,-2 -1,-2 -2,-3l0 0 0 -1c0,0 0,0 0,0l0 0c-1,0 -1,0 -1,0l0 0c-2,-2 -5,-2 -8,-2 0,0 -1,0 -1,0l-2 0 0 -1c0,0 0,-1 0,-1 0,0 0,-1 0,-1l0 0c0,0 0,0 0,0l0 0c0,0 -1,-1 -1,-1 0,-1 -1,-1 -2,-2 -1,0 -1,-1 -2,-1l-7 0 -1 0 0 -1c0,-1 0,-1 0,-2 1,-1 1,-2 1,-3 -1,-1 -1,-1 -1,-2l0 0c0,-1 0,-1 0,-2 0,-1 -1,-2 -2,-2l0 0c-1,0 -1,0 -1,1 -1,0 -2,0 -3,-1l0 0 -1 0 0 0c0,0 0,0 0,0l-2 -1c0,-1 0,-1 1,-2 0,0 0,-1 0,-1 0,0 0,-1 0,-1l0 0c1,-1 1,-1 1,-2 0,-1 -1,-2 -1,-4 0,-1 0,-2 0,-3l0 -1 1 0c1,-1 3,-1 4,-2 1,-1 2,-2 2,-3 0,-2 -1,-4 -2,-6 -1,-2 -2,-3 -2,-5l0 0c0,-2 2,-3 4,-4 0,0 1,0 1,0 1,-1 1,-2 -2,-6 -1,-2 0,-3 1,-4 0,0 0,0 0,-1 0,-1 0,-2 0,-3 0,-1 -1,-2 -1,-2 -4,-5 -3,-5 -1,-7l0 0c1,0 1,0 1,-2 0,-1 -1,-3 -1,-5 -2,-3 -3,-6 -2,-7 1,-2 2,-2 4,-2 0,0 1,0 1,0 1,0 1,1 1,1 0,-2 -1,-3 -1,-5 -1,0 -1,0 -1,-1 -1,-3 0,-3 1,-4 1,0 1,0 1,-2 0,-1 0,-3 -1,-5 0,-2 -1,-4 0,-8l2 0c0,1 1,2 1,2 2,2 3,3 4,3 2,1 3,1 5,0l0 0c0,0 1,0 1,-1 2,-1 4,0 7,2 2,1 3,2 5,2 2,0 4,0 5,-1 1,-1 2,-2 3,-4 0,-1 1,-1 3,0 0,0 1,1 3,1 1,1 2,2 3,2 3,1 4,-2 5,-5l0 0c1,-3 2,-5 4,-4 3,1 4,-1 5,-3 0,-1 0,-2 1,-3 0,-1 0,-1 0,-2l0 0c3,-6 6,-5 9,-5 2,0 5,0 7,-6 0,-2 2,-3 4,-5zm5 120c0,0 0,0 0,0l0 0 0 0 0 0 0 0zm2 0l0 0 0 0 0 0c0,0 0,0 0,0l0 0z"/>
   <path class="fil10" d="M3781 5049c1,27 1,44 1,78 13,-15 22,-30 32,-47 -9,20 -18,34 -32,50 0,12 0,26 0,43 9,-5 16,-10 23,-15 6,-20 12,-49 14,-69 -1,21 -5,46 -11,67 36,-27 40,-42 54,-70 -11,26 -19,44 -46,66 19,-2 31,-9 49,-15 -20,8 -30,17 -52,18l0 0c-5,4 -10,8 -17,12 22,3 52,3 74,1 -24,4 -53,4 -77,1 -3,3 -7,5 -11,7l-1 0 -1 0c-4,-2 -8,-4 -11,-7 -24,3 -53,3 -77,-1 21,2 52,2 74,-1 -7,-4 -12,-8 -17,-12l0 0c-22,-1 -32,-10 -52,-18 18,6 30,13 48,15 -26,-22 -35,-40 -46,-66 14,28 19,43 55,70 -7,-21 -11,-46 -11,-67 2,20 8,49 14,69 7,5 14,10 23,16 0,-17 0,-30 0,-43 -15,-16 -23,-30 -32,-50 9,17 19,32 32,47 0,-32 0,-53 1,-79z"/>
   <path class="fil6" d="M3781 4850c-4,6 -8,9 -9,11 -4,14 -12,1 -15,11 -2,4 -3,11 -8,9 -3,-1 -3,12 -10,9 -1,-1 -7,-4 -7,-4 -2,5 -4,7 -9,6 -4,-1 -9,-5 -11,-4 -5,4 -11,0 -13,-5 -1,6 1,9 1,13 0,4 -4,2 -2,6 1,1 2,3 2,6 0,2 -5,0 -6,1 -1,2 4,10 4,12 0,5 -6,2 -1,8 1,2 1,4 1,6 0,2 -2,3 -1,4 7,10 -2,7 -3,11 1,4 4,7 4,11 0,4 -5,5 -7,6 0,3 1,5 1,7 0,2 0,2 -1,4 0,1 -1,1 -1,2 1,0 1,0 2,0 2,1 7,-1 7,3 0,1 0,3 1,4 0,1 -1,4 -1,5l7 0c2,0 4,2 5,3 1,1 1,1 1,2 0,1 1,1 1,2 3,0 7,0 9,2 1,0 1,0 2,0 1,2 2,2 2,4 2,1 5,1 8,1 2,0 8,5 8,7 0,-3 1,-8 5,-9 3,-1 6,-2 8,0 0,-3 0,-7 2,-9 2,-2 3,-3 6,-3 0,-3 0,-4 1,-6 0,0 2,-2 3,-2 2,-1 6,-1 9,-1 1,-4 1,-4 4,-5 0,-1 0,-1 0,-1 0,0 0,0 1,0 0,0 0,-1 0,-1 0,0 0,1 0,1 1,0 1,0 1,0 0,0 0,0 1,1 2,1 2,1 3,5 3,0 7,0 9,1 1,0 3,2 3,2 1,2 1,3 1,6 3,0 5,1 6,3 2,2 2,6 2,9 2,-2 5,-1 8,0 4,1 5,6 5,9 0,-2 6,-7 8,-7 3,0 6,0 8,-1 0,-2 1,-2 3,-4 0,0 0,0 1,0 2,-2 6,-2 10,-2 0,-1 0,-1 0,-2 0,-1 0,-1 1,-2 1,-1 3,-3 5,-3l7 0c0,-1 -1,-4 -1,-5 1,-1 1,-3 1,-4 0,-4 5,-2 7,-3 1,0 1,0 2,0 0,-1 -1,-1 -1,-2 0,-2 -1,-2 -1,-4 0,-2 1,-4 1,-7 -2,-1 -7,-2 -7,-6 0,-4 3,-7 4,-11 -1,-4 -10,-1 -3,-11 1,-1 -1,-2 -1,-4 0,-2 0,-4 2,-6 4,-6 -1,-3 -1,-8 0,-2 4,-10 3,-12 -1,-1 -6,1 -6,-1 0,-3 1,-5 2,-6 2,-4 -2,-2 -2,-6 0,-4 2,-7 1,-13 -2,5 -8,9 -13,5 -1,-1 -7,3 -10,4 -6,1 -8,-1 -10,-6 0,0 -6,3 -7,4 -7,3 -7,-10 -10,-9 -5,2 -6,-5 -7,-9 -4,-10 -12,3 -16,-11 -1,-2 -5,-5 -9,-11z"/>
   <path class="fil10" d="M3781 4852c-1,2 -3,4 -5,5 -1,2 -3,3 -3,5 -2,8 -6,7 -10,7 -2,0 -4,0 -5,4l0 0c-1,0 -1,1 -1,2 0,1 -1,2 -1,3 -1,3 -3,6 -8,4 0,0 0,1 -1,3l0 0c-1,4 -3,8 -8,6 -1,0 -2,-1 -4,-2 -1,0 -2,-1 -2,-1 -1,0 0,-2 0,-1 -1,2 -2,4 -4,5 -1,1 -3,2 -7,1 -1,0 -3,-1 -5,-2 -2,-1 -4,-2 -4,-2 -1,1 -1,1 -2,1l0 0c-2,1 -4,1 -6,1 -2,-1 -4,-2 -5,-4 0,2 0,3 1,4 0,2 1,3 1,5 0,3 -2,4 -3,4 0,0 0,0 0,1 0,0 1,1 1,1 1,2 2,4 2,6 0,2 -2,2 -4,2 0,0 -1,0 -1,0 -1,0 -2,0 -2,0 0,0 1,3 2,5 1,3 2,5 2,6 0,3 -2,4 -3,5l0 0c0,0 0,0 2,2 0,1 1,2 1,4 1,1 1,2 1,3 0,2 -1,2 -2,3 0,0 0,0 0,1 4,5 3,7 2,9 -1,0 -2,0 -3,1 0,0 -1,0 -2,1 1,1 1,3 2,4 1,2 2,4 2,7 0,2 -1,3 -2,4 -2,2 -3,2 -5,3 0,1 0,1 0,2 1,1 1,3 1,4 0,1 0,2 0,2l0 0c0,1 0,1 -1,2 0,0 0,1 0,1l0 0 0 0 0 0 0 0c1,0 2,0 3,0 0,0 1,0 1,0l0 0c2,0 4,1 4,4 0,1 0,1 0,2l0 0c1,0 1,1 1,1 0,1 0,3 0,4l0 1 5 0c1,0 2,0 3,1 1,1 3,2 3,2 0,1 0,1 0,1l0 0c1,0 1,1 1,2l0 0c0,0 0,0 1,0 0,1 0,1 0,1l0 0c3,0 7,0 9,2l0 0c0,0 0,0 0,0l0 0c1,0 1,0 1,0l1 1 0 0c1,1 2,1 2,3 1,0 2,0 3,1 1,0 2,0 4,0 1,0 4,1 6,3 0,0 1,1 1,1 0,-1 1,-2 1,-2 1,-2 3,-4 5,-5 1,0 3,0 4,0 1,0 2,0 3,0 0,-3 0,-6 2,-8 1,-1 2,-2 3,-2 1,-1 2,-1 3,-1 0,-3 0,-4 1,-6 0,0 1,0 1,-1 1,0 2,-1 2,-1 3,-1 6,-1 8,-1l1 0 0 -1c1,-1 1,-2 1,-2 1,-1 1,-1 2,-2l1 0c0,0 0,-1 0,-1l0 0c0,0 1,0 1,0l0 0 0 0 0 0 0 0c0,0 0,0 0,0l0 0 0 -1 1 0 1 0 0 1 0 0c0,0 0,0 0,0l0 0 0 0 0 0 0 0c0,0 1,0 1,0l0 0c0,0 0,1 1,1l0 0c1,1 1,1 2,2 0,0 1,1 1,2l0 1 1 0c3,0 5,0 8,1 0,0 1,1 2,1 0,1 1,1 1,1 1,2 2,3 2,6 1,0 1,0 2,1 1,0 2,1 3,2 2,2 2,5 2,8 1,0 2,0 3,0 1,0 3,0 4,0 2,1 4,3 5,5 0,0 1,1 1,2 0,0 1,-1 1,-1 2,-2 5,-3 6,-3 2,0 3,0 4,0 1,-1 2,-1 3,-1 0,-2 1,-2 3,-3l0 0 0 -1c0,0 0,0 1,0l0 0c0,0 0,0 0,0l0 0c2,-2 6,-2 9,-2l0 0c1,0 1,0 1,-1 0,0 0,0 0,0l0 0c0,-1 0,-2 1,-2l0 0c0,0 0,0 0,-1 1,0 2,-1 3,-2 1,-1 2,-1 3,-1l5 0 0 -1c0,-1 0,-3 0,-4 0,0 1,-1 1,-1l0 0c0,-1 0,-1 0,-2 0,-3 2,-4 4,-4 1,0 1,0 1,0 1,0 2,0 3,0l0 0 0 0 0 0 0 0c0,0 0,-1 0,-1 0,-1 -1,-1 -1,-2l0 0c0,0 0,-1 0,-2 0,-1 0,-3 1,-4 0,-1 0,-1 0,-2 -1,-1 -3,-1 -5,-3 -1,-1 -2,-2 -2,-4 0,-3 1,-5 2,-7 1,-1 1,-3 2,-4 0,-1 -1,-1 -2,-1 -1,-1 -2,-1 -2,-1 -2,-2 -3,-4 1,-9 0,-1 0,-1 0,-1 -1,-1 -2,-1 -2,-3 0,-1 1,-2 1,-3 0,-2 1,-3 2,-4 1,-2 1,-2 1,-2l0 0c-1,-1 -3,-2 -3,-5 0,-1 1,-3 2,-6 1,-2 2,-5 2,-5 0,0 -1,0 -2,0 0,0 -1,0 -1,0 -2,0 -3,0 -3,-2 0,-2 1,-4 1,-6 1,0 1,-1 1,-1 0,-1 0,-1 0,-1 -1,0 -2,-1 -2,-4 0,-2 0,-3 0,-5 1,-1 1,-2 1,-4 -1,2 -3,3 -4,4 -2,0 -5,0 -7,-1 0,0 -1,0 -2,-1 0,0 -2,1 -4,2 -1,1 -3,2 -5,2 -3,1 -5,0 -7,-1 -2,-1 -3,-3 -4,-5 0,-1 1,1 1,1 -1,0 -2,1 -3,1 -2,1 -3,2 -4,2 -5,2 -7,-2 -8,-6l0 0c-1,-2 -1,-3 -1,-3 -4,2 -7,-1 -8,-4 0,-1 -1,-2 -1,-3 0,-1 0,-2 -1,-2 -1,-4 -3,-4 -5,-4 -4,0 -7,1 -10,-7 0,-2 -2,-3 -3,-5 -2,-1 -3,-3 -5,-5zm-6 4c1,-2 3,-4 5,-6l1 -2 1 2c2,2 4,4 5,6 2,2 4,3 4,5 2,6 5,6 8,6 3,-1 6,-1 8,5 0,1 0,1 0,2 1,1 1,2 1,3 1,2 2,4 5,3 2,-1 3,1 4,4l0 0c1,3 2,6 5,5 1,0 2,-1 4,-2 1,0 2,-1 3,-1 1,-1 2,-1 2,0 1,2 2,3 3,4 1,1 3,1 5,1 2,0 4,-1 5,-2 3,-2 5,-3 7,-2 0,1 1,1 1,1 2,1 3,1 5,0 1,0 3,-1 4,-3 0,0 1,-1 1,-2l3 0c0,4 -1,6 -1,8 -1,2 -1,4 -1,5 0,2 1,2 1,2 1,1 3,1 1,4 0,1 0,1 0,1 -1,2 -2,3 -2,5 0,0 1,-1 1,-1 1,0 1,0 1,0 2,0 4,0 4,2 1,1 0,4 -1,7 -1,2 -2,4 -2,5 0,2 0,2 1,2l0 0c2,2 3,2 -1,7 0,0 -1,1 -1,2 0,1 0,2 0,3 0,1 0,1 1,1 1,1 1,2 0,4 -3,4 -3,5 -2,6 0,0 1,0 2,0 1,1 3,2 3,4l0 0c0,2 -1,3 -2,5 -1,2 -2,4 -2,6 0,1 1,2 2,3 1,1 3,1 5,2l1 0 0 1c-1,1 -1,2 -1,3 0,2 0,3 0,4 0,1 0,1 0,2l0 0c0,0 0,1 0,1 0,0 0,1 1,1 0,1 0,1 0,2l-2 1c0,0 0,0 0,0l0 0 0 0 0 0c-1,1 -3,1 -4,0 0,0 0,0 -1,0 -1,0 -2,1 -2,2 0,1 0,1 0,2l0 0c0,1 0,1 0,2 -1,1 0,2 0,3 0,1 0,1 0,2l0 1 -1 0 -7 0c-1,0 -1,1 -2,1 -1,1 -2,1 -2,2 0,0 -1,1 -1,1l0 0c0,0 0,0 0,0l0 0c0,0 0,1 0,1 0,0 0,1 0,1l0 1 -1 0c-1,0 -1,0 -2,0 -3,0 -6,0 -7,2l0 0c-1,0 -1,0 -2,0l0 0c0,0 0,0 0,0l0 0 0 0c-1,2 -1,2 -1,3l0 2 -1 0c-2,0 -3,0 -4,0 -2,0 -3,0 -5,0 0,0 -2,1 -4,3 -1,1 -3,2 -3,3l0 0 0 0 -2 0c0,0 0,0 0,0 0,-2 0,-4 -1,-5 -1,-2 -2,-3 -3,-3 -2,-1 -3,-1 -4,-1 -1,0 -2,0 -3,1l-2 2 0 -3c0,0 0,-1 0,-1 0,-3 0,-6 -2,-7 0,-1 -1,-2 -2,-2 -1,0 -1,0 -3,0l-1 0 0 -2 0 -1c0,-2 0,-3 -1,-4 0,0 0,-1 -1,-1 0,0 -1,-1 -1,-1 -2,-1 -5,-1 -7,-1 -1,0 -2,0 -2,0l-1 0 0 0 0 -2c-1,-1 -1,-2 -1,-2 0,0 -1,-1 -2,-1l0 0c0,-1 0,-1 -1,-1 0,0 0,0 0,0 0,0 0,0 0,0 0,0 0,0 -1,1l0 0c-1,0 -1,1 -2,1 0,0 0,1 -1,2l0 2 0 0 -1 0c0,0 -1,0 -2,0 -2,0 -5,0 -7,1 0,0 -1,1 -1,1 -1,0 -1,1 -1,1 -1,1 -1,2 -1,4l0 1 0 2 -1 0c-1,0 -2,0 -3,0 -1,0 -1,1 -2,2 -2,1 -2,4 -2,7 0,0 0,1 0,1l0 3 -2 -2c-1,-1 -2,-1 -3,-1 -1,0 -2,0 -3,1 -2,0 -3,1 -4,3 -1,1 -1,3 -1,5 0,0 0,0 0,0l-2 0 0 0 0 0c0,-1 -1,-2 -3,-3 -2,-2 -3,-3 -4,-3 -2,0 -3,0 -4,0 -2,0 -3,0 -4,0l-1 0 0 -2c0,-1 -1,-1 -2,-3l0 0 0 0c0,0 0,0 0,0l0 0c-1,0 -1,0 -1,0l0 0c-2,-2 -5,-2 -8,-2 0,0 -1,0 -1,0l-2 0 0 -1c0,0 0,-1 0,-1 0,0 0,-1 0,-1l0 0c0,0 0,0 0,0l0 0c0,0 -1,-1 -1,-1 0,-1 -1,-1 -2,-2 -1,0 -1,-1 -2,-1l-7 0 -1 0 0 -1c0,-1 0,-1 0,-2 1,-1 1,-2 1,-3 -1,-1 -1,-1 -1,-2l0 0c0,-1 0,-1 0,-2 0,-1 -1,-2 -2,-2l0 0c-1,0 -1,0 -1,0 -1,1 -2,1 -3,0l0 0 -1 0 0 0c0,0 0,0 0,0l-2 -1c0,-1 0,-1 1,-2 0,0 0,-1 0,-1 0,0 0,-1 0,-1l0 0c1,-1 1,-1 1,-2 0,-1 -1,-2 -1,-4 0,-1 0,-2 0,-3l0 -1 1 0c1,-1 3,-1 4,-2 1,-1 2,-2 2,-3 0,-2 -1,-4 -2,-6 -1,-2 -2,-3 -2,-5l0 0c0,-2 2,-3 4,-4 0,0 1,0 1,0 1,-1 1,-2 -2,-6 -1,-2 0,-3 1,-4 0,0 0,0 0,-1 0,-1 0,-2 0,-3 0,-1 -1,-2 -1,-2 -4,-5 -3,-5 -1,-7l0 0c1,0 1,0 1,-2 0,-1 -1,-3 -1,-5 -2,-3 -3,-6 -2,-7 1,-2 2,-2 4,-2 0,0 1,0 1,0 1,0 1,1 1,1 0,-2 -1,-3 -1,-5 -1,0 -1,0 -1,-1 -1,-3 0,-3 1,-4 1,0 1,0 1,-2 0,-1 0,-3 -1,-5 0,-2 -1,-4 0,-8l2 0c0,1 1,2 1,2 2,2 3,3 4,3 2,1 3,1 5,0l0 0c0,0 1,0 1,-1 2,-1 4,0 7,2 2,1 3,2 5,2 2,0 4,0 5,-1 1,-1 2,-2 3,-4 0,-1 1,-1 3,0 0,0 1,1 3,1 1,1 2,2 3,2 3,1 4,-2 5,-5l0 0c1,-3 2,-5 4,-4 3,1 4,-1 5,-3 0,-1 0,-2 1,-3 0,-1 0,-1 0,-2l0 0c3,-6 6,-6 9,-5 2,0 5,0 7,-6 0,-2 2,-3 4,-5zm5 120c0,0 0,0 0,0l0 0 0 0 0 0 0 0zm2 0l0 0 0 0 0 0c0,0 0,0 0,0l0 0z"/>
   <path class="fil10" d="M3781 4850c1,27 1,44 1,78 13,-15 22,-30 32,-47 -9,20 -18,34 -32,50 0,12 0,26 0,43 9,-5 16,-10 23,-15 6,-20 12,-49 14,-69 -1,21 -5,46 -11,67 36,-27 40,-42 54,-70 -11,26 -19,44 -46,66 19,-2 31,-9 49,-15 -20,8 -30,17 -52,18l0 0c-5,4 -10,8 -17,12 22,3 52,3 74,1 -24,4 -53,4 -77,1 -3,3 -7,5 -11,7l-1 0 -1 0c-4,-2 -8,-4 -11,-7 -24,3 -53,3 -77,-1 21,2 52,2 74,-1 -7,-4 -12,-8 -17,-12l0 0c-22,-1 -32,-10 -52,-18 18,6 30,13 48,15 -26,-22 -35,-40 -46,-66 14,28 19,43 55,70 -7,-21 -11,-46 -11,-67 2,20 8,49 14,69 7,5 14,10 23,16 0,-17 0,-30 0,-43 -15,-16 -23,-30 -32,-50 9,17 19,32 32,47 0,-32 0,-53 1,-79z"/>
   <path class="fil11" d="M4300 5753c-3,31 -33,49 -54,62 -9,6 -18,19 -21,32 -5,22 -22,29 -45,29m66 -61c-19,3 -43,18 -63,3"/>
   <path class="fil11" d="M4214 5753c2,31 32,49 53,62 9,6 18,19 21,32 5,22 28,22 47,18m-68 -50c19,3 46,-1 57,-21"/>
   <path class="fil12" d="M4304 5754c-2,32 -33,51 -54,65l-1 0c-4,3 -8,7 -12,12 -3,6 -6,12 -7,18 -3,12 -9,20 -18,25 -9,5 -19,7 -32,7l0 -10c11,0 20,-2 27,-5 7,-4 11,-10 13,-20 2,-7 5,-14 9,-20 1,0 1,-1 2,-2 -17,5 -34,10 -51,-3l6 -7c13,10 29,5 43,1 5,-2 11,-3 16,-4l0 0c20,-13 48,-30 50,-58l9 1z"/>
   <path class="fil10" d="M4306 5754c-2,17 -10,30 -21,40 -11,11 -24,19 -34,26l-2 0c-1,2 -3,3 -5,5 -2,2 -4,5 -6,7 -1,3 -3,6 -4,8 -1,3 -2,6 -3,9 -1,6 -4,11 -7,16 -3,4 -7,7 -12,10 -4,2 -9,4 -14,5 -6,1 -11,2 -18,2l-1 0 0 -1 0 -10 0 -1 1 0c6,0 11,-1 15,-2 4,0 8,-2 11,-4 4,-1 6,-4 8,-7 3,-3 4,-6 5,-11 1,-3 2,-7 4,-10 1,-4 3,-7 5,-10 -7,2 -15,4 -23,5 -8,0 -17,-2 -26,-9l-1 0 1 -1 6 -8 0 -1 1 1c7,5 14,6 21,5 7,0 15,-2 22,-4l0 0 0 0c5,-2 10,-3 15,-4l0 0c10,-7 22,-14 32,-23 9,-9 17,-21 18,-34l0 -1 1 0 10 1 1 0 0 1zm-23 39c11,-10 18,-23 20,-38l-7 -1c-2,14 -9,25 -19,34 -10,10 -22,17 -31,24l-1 0 0 0c-5,1 -10,2 -15,4l0 0 0 0c-8,2 -15,4 -23,5 -7,0 -15,-1 -21,-6l-5 6c8,6 16,7 24,7 9,0 17,-2 25,-5l2 2c-1,0 -1,1 -1,1 0,0 -1,1 -1,1 -2,3 -3,6 -5,10 -1,3 -3,6 -3,10 -1,5 -3,9 -6,12 -2,3 -5,6 -8,8 -4,2 -8,3 -13,4 -4,1 -8,1 -13,1l0 7c5,0 10,0 15,-1 5,-1 10,-3 14,-5 4,-3 8,-6 11,-10 3,-4 5,-9 7,-15 0,-3 1,-6 3,-9 1,-3 3,-5 4,-8 2,-3 4,-5 6,-7 2,-3 4,-4 6,-6l1 0c11,-7 24,-15 34,-25z"/>
   <path class="fil12" d="M4218 5753c3,28 31,45 50,58l1 0c9,1 21,0 31,-3 8,-3 16,-9 20,-16l8 4c-5,10 -14,17 -24,21 -8,2 -16,4 -24,4 1,2 3,3 4,5 4,6 7,13 9,20l0 0 0 1 0 0c2,8 7,12 14,14 8,2 17,1 26,-1l1 0 3 9 -2 0c-10,3 -21,4 -30,1 -10,-2 -18,-9 -21,-21l0 0 -1 0 0 0c-1,-6 -4,-12 -7,-18 -3,-5 -8,-9 -12,-12l-1 0c-21,-14 -51,-33 -54,-65l9 -1z"/>
   <path class="fil10" d="M4220 5753c1,13 8,25 18,34 9,9 21,16 31,23l0 0c5,0 10,0 16,0 5,-1 10,-2 15,-4 4,-1 8,-3 11,-6 3,-2 6,-5 8,-9l1 -1 1 1 8 4 1 1 -1 1c-2,5 -6,9 -10,12 -4,4 -10,7 -15,9 -4,1 -8,2 -11,3 -4,0 -7,1 -11,1 1,0 1,1 1,1 1,1 1,2 2,3 2,3 4,6 5,10 2,3 3,6 4,9l0 0 0 1 0 0 0 1c1,3 3,6 5,8 2,3 5,4 8,5 4,1 8,1 12,1 4,0 9,-1 14,-2l1 0 1 -1 0 2 3 9 0 1 -1 0 -1 1 0 0c-6,1 -12,2 -17,2 -5,0 -10,0 -15,-1 -5,-2 -10,-4 -14,-8 -3,-4 -6,-9 -8,-15l0 0 0 0 0 0c0,-3 -1,-6 -3,-9 -1,-2 -2,-5 -4,-8 -2,-2 -4,-5 -6,-7 -1,-2 -3,-3 -5,-5l-1 0c-11,-7 -24,-15 -35,-26 -11,-10 -19,-23 -20,-40l0 -1 1 0 9 -1 2 0 0 1zm16 35c-10,-9 -17,-20 -19,-34l-7 1c2,15 10,28 20,38 10,10 23,18 34,25l1 0c2,2 4,3 6,6 2,2 4,4 6,7 2,3 3,5 5,8 1,3 2,6 3,9l0 0 0 1 0 0c1,5 4,10 7,13 3,4 8,6 13,7 4,1 9,2 14,2 5,-1 11,-1 16,-3l-2 -7c-4,1 -9,2 -14,2 -4,1 -9,0 -12,-1 -4,-1 -7,-2 -10,-5 -2,-2 -4,-5 -5,-9l0 0 0 -1 0 0 -1 -1 0 0c0,-3 -1,-6 -3,-9 -1,-4 -3,-7 -5,-10 -1,-1 -1,-2 -2,-3 -1,-1 -1,-1 -2,-2l-1 -2 2 0c4,0 8,-1 12,-1 4,-1 8,-2 11,-4 5,-1 10,-4 15,-8 3,-3 6,-6 9,-10l-6 -4c-3,4 -5,7 -8,9 -4,3 -8,5 -12,7 -5,2 -11,3 -16,3 -6,1 -11,1 -16,0l-1 0 0 0c-10,-7 -22,-14 -32,-24z"/>
   <path class="fil8" d="M3934 5631c18,-5 37,5 41,23 5,19 -5,37 -23,42 -18,5 -37,-6 -42,-24 -5,-18 6,-37 24,-41z"/>
   <path class="fil13" d="M3958 5637c-7,-3 -15,-5 -23,-3 -8,3 -14,8 -18,14 -4,7 -5,15 -3,23 2,8 7,14 14,18 6,4 15,5 23,3 7,-2 14,-7 18,-14 3,-6 5,-15 3,-22 -3,-8 -8,-15 -14,-19z"/>
   <path class="fil10" d="M3926 5658c0,1 -1,1 -3,1 -1,0 -1,-2 -1,-3 1,-3 3,-6 6,-9 2,-2 6,-4 9,-5 3,-1 6,-1 9,0 2,0 5,1 8,2 1,1 1,2 0,3 0,1 -2,2 -3,1 -2,-1 -4,-2 -6,-2 -2,0 -5,0 -7,0 -3,1 -5,3 -7,4 -2,2 -4,5 -5,8z"/>
   <path class="fil14" d="M3762 5663c11,-15 32,-18 46,-7 15,11 18,31 8,46 -11,15 -32,18 -47,7 -14,-11 -18,-31 -7,-46z"/>
   <path class="fil15" d="M3760 5661c6,-8 14,-12 23,-14 9,-1 19,1 27,7 8,5 13,14 14,23 2,9 0,19 -6,27 -6,8 -15,12 -24,14 -9,1 -18,-1 -26,-7 -8,-5 -13,-14 -14,-23 -2,-9 0,-19 6,-27zm24 -9c-8,1 -15,6 -20,12 -5,7 -7,15 -5,23 1,8 5,15 12,20 7,5 15,7 23,6 7,-2 15,-6 20,-12 5,-7 6,-16 5,-23 -1,-8 -5,-15 -12,-20 -7,-5 -15,-7 -23,-6z"/>
   <path class="fil16" d="M3772 5689c0,1 0,2 -1,2 -1,1 -3,0 -3,-1 -1,-3 -2,-7 -1,-11 0,-3 2,-7 4,-10 2,-2 4,-4 6,-6 3,-1 6,-2 8,-3 2,0 3,1 3,2 0,1 -1,3 -2,3 -2,0 -4,1 -6,2 -2,1 -4,3 -6,5 -1,2 -2,5 -3,8 0,3 0,6 1,9z"/>
   <path class="fil14" d="M3806 5638c10,-15 31,-18 45,-7 15,10 18,30 7,45 -10,14 -31,18 -45,7 -15,-11 -18,-31 -7,-45z"/>
   <path class="fil15" d="M3808 5639c-5,7 -7,15 -6,22 2,8 6,15 12,20 7,5 15,6 23,5 7,-1 14,-5 19,-12 5,-6 7,-14 5,-22 -1,-7 -5,-14 -11,-19 -7,-5 -15,-7 -23,-6 -7,1 -14,6 -19,12zm-4 -3c5,-8 14,-12 23,-14 8,-1 18,1 26,7 7,5 12,14 14,22 1,9 -1,19 -7,26 -5,8 -14,13 -23,14 -9,2 -18,0 -26,-6 -8,-6 -12,-14 -14,-23 -1,-9 1,-18 7,-26z"/>
   <path class="fil10" d="M3815 5663c1,1 0,2 -1,2 -1,1 -2,0 -3,-1 -1,-3 -1,-7 -1,-10 1,-4 2,-7 4,-10 2,-2 4,-4 7,-6 2,-1 5,-2 8,-3 1,0 2,1 2,2 0,1 -1,2 -2,3 -2,0 -4,1 -6,2 -2,1 -4,3 -5,4 -2,3 -3,6 -3,8 -1,3 0,6 0,9z"/>
   <path class="fil14" d="M3859 5614c10,-14 30,-17 45,-7 14,11 18,31 7,46 -11,14 -31,17 -45,7 -15,-11 -18,-31 -7,-46z"/>
   <path class="fil15" d="M3857 5613c5,-8 14,-13 22,-14 9,-1 19,1 26,6 8,6 13,14 14,23 2,9 0,18 -6,26 -6,8 -14,13 -23,14 -9,2 -18,0 -26,-6 -8,-6 -12,-14 -14,-23 -1,-9 1,-18 7,-26zm23 -9c-7,1 -14,5 -19,12 -5,7 -7,15 -6,22 1,8 6,15 12,20 7,4 15,6 22,5 8,-1 15,-5 20,-12 5,-7 6,-15 5,-22 -1,-8 -5,-15 -12,-20 -6,-4 -14,-6 -22,-5z"/>
   <path class="fil10" d="M3868 5639c1,2 0,3 -1,3 -1,1 -2,0 -3,-1 -1,-3 -1,-7 -1,-11 1,-3 2,-6 4,-9 2,-3 4,-5 6,-6 3,-2 6,-3 8,-3 2,0 3,1 3,2 0,1 -1,2 -2,2 -2,1 -4,1 -6,3 -2,1 -4,2 -5,4 -2,3 -3,5 -4,8 0,3 0,6 1,8z"/>
   <path class="fil14" d="M3776 5715c8,-16 28,-21 44,-13 16,9 21,29 12,44 -8,16 -28,22 -44,13 -15,-9 -21,-28 -12,-44z"/>
   <path class="fil15" d="M3773 5714c5,-9 13,-15 22,-17 8,-3 18,-2 26,3 9,5 14,12 17,21 2,9 1,18 -3,27 -5,8 -13,14 -21,16 -9,3 -18,2 -27,-3 -8,-4 -14,-12 -17,-21 -2,-8 -1,-18 3,-26zm23 -12c-7,2 -14,7 -18,14 -4,7 -5,15 -3,23 3,7 7,14 15,18 7,4 15,4 22,2 7,-2 14,-6 18,-13l0 -1 0 0c4,-7 5,-15 3,-23 -2,-7 -7,-13 -14,-17 -8,-4 -16,-5 -23,-3z"/>
   <path class="fil10" d="M3789 5739c0,1 0,2 -1,2 -1,1 -3,1 -3,0 -2,-4 -3,-7 -3,-11 0,-3 1,-7 3,-10 2,-2 3,-5 6,-6 2,-2 4,-4 7,-4 1,-1 2,0 3,1 0,1 -1,2 -2,3 -2,0 -4,2 -6,3 -2,1 -3,3 -4,5 -2,3 -2,6 -2,8 0,3 0,6 2,9z"/>
   <path class="fil14" d="M3823 5688c9,-17 31,-23 48,-13 17,9 23,31 13,48 -9,17 -31,23 -48,13 -17,-9 -23,-31 -13,-48z"/>
   <path class="fil15" d="M3820 5687c5,-9 14,-15 23,-18 9,-2 20,-2 29,4 9,5 15,13 18,22 2,9 2,20 -4,29 -5,9 -13,15 -22,18 -9,3 -20,2 -29,-3 -9,-6 -15,-14 -18,-23 -3,-9 -2,-20 3,-29zm24 -13c-8,3 -15,8 -19,16 -4,8 -5,16 -3,25 2,8 8,15 16,19 7,4 16,5 24,3 8,-2 16,-8 20,-16 4,-7 5,-16 3,-24 -3,-8 -8,-16 -16,-20 -8,-4 -16,-5 -25,-3z"/>
   <path class="fil10" d="M3837 5714c0,1 0,3 -1,3 -2,1 -3,0 -4,-1 -1,-3 -2,-7 -2,-11 0,-4 1,-7 3,-11 1,-3 3,-5 6,-7 2,-2 5,-3 8,-4 1,-1 2,0 3,1 0,2 -1,3 -2,3 -2,1 -4,2 -6,4 -2,1 -4,3 -5,5 -2,3 -2,6 -3,9 0,3 1,6 3,9z"/>
   <path class="fil14" d="M3863 5665c9,-16 30,-22 46,-13 16,9 21,29 12,45 -8,16 -29,22 -45,13 -16,-9 -22,-29 -13,-45z"/>
   <path class="fil15" d="M3861 5663c5,-8 13,-14 22,-17 8,-2 18,-1 27,4 8,4 14,12 17,21 2,9 2,19 -3,27 -5,9 -13,15 -22,17 -9,3 -18,2 -27,-3 -9,-5 -15,-12 -17,-21 -3,-9 -2,-19 3,-28zm23 -12c-8,3 -14,8 -18,15 -5,7 -5,16 -3,23 2,8 7,15 15,19 7,4 15,5 23,2 7,-2 14,-7 18,-14 4,-8 5,-16 3,-24 -2,-7 -7,-14 -15,-18 -7,-4 -15,-5 -23,-3z"/>
   <path class="fil10" d="M3876 5689c1,1 1,2 -1,3 -1,1 -2,0 -2,-1 -2,-3 -3,-7 -3,-11 0,-3 1,-7 3,-10 1,-3 3,-5 6,-7 2,-1 4,-3 7,-4 1,0 3,1 3,2 0,1 0,2 -2,3 -2,0 -4,1 -6,3 -2,1 -3,3 -4,5 -2,3 -2,6 -3,9 0,3 1,5 2,8z"/>
   <path class="fil14" d="M3823 5736c10,-18 32,-24 49,-14 17,9 24,31 14,49 -10,17 -32,23 -49,14 -17,-10 -24,-32 -14,-49z"/>
   <path class="fil15" d="M3821 5735c5,-10 13,-16 23,-19 9,-3 20,-2 29,4 10,5 16,13 19,23 2,9 1,20 -4,29 -5,9 -13,16 -23,18 -9,3 -20,2 -29,-3 -9,-5 -16,-14 -19,-23 -2,-10 -1,-20 4,-29zm24 -14c-8,2 -15,8 -19,15l0 1 -1 0c-4,8 -5,17 -3,25 3,9 8,16 16,20 8,5 17,6 26,3 8,-2 15,-8 20,-16 4,-8 5,-17 3,-25 -3,-8 -8,-15 -16,-20 -8,-4 -17,-5 -26,-3z"/>
   <path class="fil9" d="M3837 5762c1,1 0,3 -1,3 -1,1 -2,0 -3,-1 -2,-3 -3,-7 -3,-11 0,-4 1,-8 3,-11 2,-3 4,-6 7,-8 2,-2 5,-3 8,-4 1,0 2,0 3,2 0,1 -1,2 -2,3 -2,0 -5,1 -7,3 -1,2 -3,4 -4,6 -2,3 -3,6 -3,9 0,3 1,6 2,9z"/>
   <path class="fil14" d="M3903 5689c10,-16 31,-20 46,-10 16,10 20,30 10,46 -10,15 -30,20 -46,10 -15,-10 -20,-31 -10,-46z"/>
   <path class="fil15" d="M3901 5687c6,-8 14,-13 23,-15 9,-2 19,-1 27,5 8,5 14,13 15,22 2,9 1,19 -5,27 -5,9 -13,14 -22,16 -9,2 -19,0 -27,-5 -8,-6 -14,-14 -16,-23 -2,-9 0,-18 5,-27zm24 -10c-8,1 -15,6 -19,13 -5,7 -6,16 -5,23 2,8 7,15 14,20 7,4 15,5 23,4 7,-2 15,-6 19,-14 5,-7 6,-15 4,-23 -1,-7 -6,-14 -13,-19 -7,-5 -15,-6 -23,-4z"/>
   <path class="fil10" d="M3915 5714c0,1 0,2 -1,3 -1,0 -3,0 -3,-1 -2,-4 -2,-7 -2,-11 0,-4 2,-7 4,-10 1,-3 3,-5 6,-7 2,-1 5,-2 8,-3 1,0 2,0 2,2 1,1 0,2 -1,2 -3,1 -5,2 -7,3 -2,1 -3,3 -5,5 -1,3 -2,5 -3,8 0,3 1,6 2,9z"/>
   <g>
    <path class="fil14" d="M3966 5689c19,-7 40,2 47,21 7,19 -2,41 -22,48 -19,7 -40,-3 -47,-22 -7,-19 2,-40 22,-47z"/>
    <path id="1" class="fil15" d="M4016 5709l-5 2 0 0 -1 -1 -1 -2 -1 -2 0 -1 -1 -1 -1 -2 -1 -1 -2 -1 -1 -1 -1 -2 -1 -1 -2 -1 -1 -1 -1 0 -2 -1 -1 -1 -2 -1 -1 0 -2 -1 -1 0 -2 0 -2 -1 -1 0 -2 0 -2 0 -1 0 -2 0 -2 0 -1 1 -2 0 -2 1 -2 0 -1 -5 2 0 2 -1 1 0 2 -1 2 0 2 0 2 0 2 0 2 0 2 0 2 0 2 1 2 0 1 1 2 1 2 0 2 1 1 1 2 1 1 1 2 1 1 1 2 2 1 1 2 2 1 1 1 2 1 1 1 2 1 2 1 2 1 1 0 0zm-24 51l-1 -5 0 0 1 0 2 -1 1 -1 2 -1 1 -1 2 -1 1 -1 1 -1 1 -1 1 -1 1 -1 1 -2 1 -1 1 -2 1 -1 1 -1 0 -2 1 -2 1 -1 0 -2 0 -1 1 -2 0 -2 0 -1 0 -2 0 -2 0 -1 -1 -2 0 -2 0 -1 -1 -2 0 -2 5 -2 0 2 1 2 0 2 1 2 0 2 0 2 0 2 0 2 0 2 0 2 -1 2 0 2 -1 1 0 2 -1 2 0 2 -1 1 -1 2 -1 2 -1 1 -1 2 -2 1 -1 2 -1 1 -2 1 -1 2 -2 1 -1 1 -2 1 -2 1 -2 1 -2 0 0 0zm-51 -23l5 -2 0 0 1 2 1 2 1 1 0 2 1 1 1 1 1 2 2 1 1 1 1 1 1 1 2 1 1 1 1 1 2 1 1 1 2 0 1 1 2 0 2 1 1 0 2 0 1 1 2 0 2 0 1 0 2 -1 2 0 2 0 1 0 2 -1 2 -1 1 5 -2 1 -1 1 -2 0 -2 0 -2 1 -2 0 -2 0 -2 0 -2 0 -2 -1 -2 0 -2 0 -2 -1 -1 0 -2 -1 -2 -1 -2 -1 -1 0 -2 -1 -1 -2 -2 -1 -1 -1 -2 -1 -1 -2 -1 -1 -2 -1 -1 -2 -1 -2 -1 -1 -1 -2 -1 -2 -1 -2 0 0zm24 -51l1 5 0 0 -1 1 -2 1 -1 0 -2 1 -1 1 -2 1 -1 1 -1 1 -1 2 -1 1 -1 1 -1 1 -1 2 -1 1 -1 2 -1 1 0 2 -1 1 0 2 -1 1 0 2 0 2 -1 1 0 2 0 2 0 1 0 2 1 2 0 1 0 2 1 2 0 1 -5 2 0 -2 -1 -2 0 -2 -1 -2 0 -2 0 -1 0 -2 0 -2 0 -2 0 -2 1 -2 0 -2 1 -2 0 -2 1 -1 1 -2 0 -2 1 -1 1 -2 1 -2 1 -1 2 -2 1 -1 1 -1 2 -2 1 -1 2 -1 1 -1 2 -1 2 -1 2 -1 2 -1 0 0z"/>
   </g>
   <path class="fil10" d="M3959 5719c0,1 -1,2 -3,1 -1,0 -2,-1 -2,-2 1,-4 3,-8 6,-11 3,-3 6,-5 10,-7 3,-1 6,-2 9,-1 4,0 7,0 10,2 1,0 2,2 1,3 -1,1 -2,2 -3,1 -3,-1 -5,-2 -8,-2 -2,0 -5,1 -7,2 -4,1 -6,3 -8,5 -3,3 -4,5 -5,9z"/>
   <path class="fil14" d="M4025 5706c20,-2 38,13 41,33 2,20 -13,38 -33,41 -20,2 -38,-13 -41,-33 -2,-20 13,-38 33,-41z"/>
   <path class="fil15" d="M4025 5704c10,-1 21,2 29,8 7,6 13,16 14,27 1,10 -2,21 -8,28 -6,8 -16,14 -27,15 -10,1 -21,-2 -29,-8 -7,-7 -13,-16 -14,-27 -1,-10 2,-21 8,-29 6,-7 16,-13 27,-14zm25 12c-7,-5 -15,-8 -25,-7 -9,1 -17,6 -23,13 -5,6 -8,15 -7,25 1,9 6,17 13,23 7,5 15,8 25,7 9,-1 17,-6 23,-13 5,-7 8,-16 7,-25 -1,-9 -6,-17 -13,-23z"/>
   <path class="fil10" d="M4011 5734c0,1 -2,1 -3,1 -1,-1 -2,-2 -1,-3 2,-4 5,-7 8,-9 3,-3 7,-4 11,-5 4,0 7,0 10,1 3,1 6,3 8,5 1,0 2,2 1,3 -1,1 -3,1 -4,0 -2,-1 -4,-2 -7,-3 -2,-1 -5,-1 -7,-1 -4,1 -7,2 -9,4 -3,1 -5,4 -7,7z"/>
   <path class="fil14" d="M4080 5735c19,-2 37,12 39,31 2,20 -12,37 -31,39 -19,2 -37,-12 -39,-31 -2,-19 12,-37 31,-39z"/>
   <path class="fil15" d="M4080 5733c10,-2 20,1 27,8 8,6 13,14 15,25 1,10 -2,20 -8,28 -7,7 -15,13 -26,14 -10,1 -20,-2 -28,-8 -7,-6 -13,-15 -14,-26 -1,-10 2,-20 8,-27 6,-8 15,-13 26,-14zm24 12c-6,-6 -15,-8 -24,-7 -9,1 -16,5 -22,12 -5,6 -8,15 -7,24 1,9 6,17 13,22 6,5 15,8 24,7 9,-1 16,-6 21,-12 6,-7 8,-16 7,-25 -1,-9 -5,-16 -12,-21z"/>
   <path class="fil10" d="M4067 5761c-1,1 -2,2 -3,1 -1,0 -2,-2 -1,-3 2,-3 4,-6 8,-8 3,-3 6,-4 10,-4 3,-1 7,0 9,0 3,1 6,3 9,5 1,0 1,2 0,3 -1,1 -2,1 -3,0 -2,-1 -4,-2 -7,-3 -2,-1 -5,-1 -7,-1 -3,1 -6,2 -9,3 -2,2 -5,5 -6,7z"/>
   <path class="fil14" d="M4129 5756c18,-3 34,11 36,29 3,18 -11,35 -29,37 -18,2 -35,-11 -37,-30 -2,-18 11,-34 30,-36z"/>
   <path class="fil15" d="M4129 5758c-8,1 -16,5 -21,11 -4,7 -7,15 -6,23 1,8 5,16 11,21 6,4 14,7 23,6 8,-1 16,-5 20,-11 5,-6 8,-14 7,-23 -1,-8 -5,-16 -11,-20 -7,-5 -15,-8 -23,-7zm-1 -5c10,-1 20,2 27,8 7,5 12,14 13,24 1,9 -2,19 -8,26 -5,7 -14,12 -24,13 -9,1 -19,-2 -26,-7 -7,-6 -12,-15 -13,-24 -1,-10 2,-20 7,-27 6,-7 15,-12 24,-13z"/>
   <path class="fil10" d="M4117 5780c-1,1 -2,2 -3,1 -2,0 -2,-2 -1,-3 1,-3 4,-6 7,-8 3,-2 6,-3 10,-4 3,0 6,0 9,1 2,1 5,2 7,4 1,1 1,2 1,3 -1,1 -2,1 -3,1 -2,-2 -4,-3 -7,-4 -2,0 -4,-1 -7,0 -3,0 -5,1 -8,3 -2,1 -4,4 -5,6z"/>
   <path class="fil14" d="M4168 5782c18,-2 35,11 37,29 2,18 -11,35 -30,37 -18,2 -34,-11 -36,-30 -2,-18 11,-34 29,-36z"/>
   <path class="fil15" d="M4168 5779c9,-1 19,2 26,8 7,5 12,14 13,24 1,10 -2,19 -7,26 -6,7 -14,12 -24,13 -10,1 -20,-2 -27,-7 -7,-6 -12,-14 -13,-24 -1,-10 2,-19 8,-27 5,-7 14,-12 24,-13zm23 12c-6,-5 -14,-8 -23,-7 -8,1 -15,5 -20,12 -5,6 -8,14 -7,22 1,9 5,16 12,21 6,5 14,7 22,6 9,-1 16,-5 21,-11 5,-6 7,-14 6,-23 -1,-8 -5,-15 -11,-20z"/>
   <path class="fil10" d="M4156 5806c-1,1 -2,2 -3,1 -1,0 -2,-2 -1,-3 2,-3 4,-6 7,-8 3,-2 6,-3 10,-3 3,-1 6,-1 9,0 3,1 5,2 8,4 0,1 1,2 0,3 -1,1 -2,1 -3,1 -2,-2 -4,-3 -6,-4 -3,0 -5,0 -7,0 -3,0 -6,1 -9,3 -2,2 -4,4 -5,6z"/>
   <path class="fil14" d="M4083 5797c18,3 30,20 27,38 -3,18 -20,30 -38,27 -19,-3 -31,-20 -27,-38 3,-18 20,-30 38,-27z"/>
   <path class="fil15" d="M4084 5794c9,2 17,7 23,15 5,7 7,17 6,27 -2,9 -8,18 -15,23 -8,5 -17,8 -27,6 -10,-2 -18,-7 -23,-15 -5,-7 -8,-17 -6,-27 2,-9 7,-18 15,-23 7,-5 17,-8 27,-6zm18 18c-4,-7 -11,-11 -19,-13 -9,-1 -17,1 -23,5 -7,5 -11,12 -13,20 -1,9 1,17 5,23 5,7 12,11 20,13 8,1 17,-1 23,-5 6,-5 11,-12 13,-20 1,-9 -1,-17 -6,-23z"/>
   <path class="fil10" d="M4064 5817c0,1 -2,1 -3,0 -1,-1 -1,-2 0,-3 3,-3 6,-5 9,-6 4,-1 7,-1 11,-1 3,1 6,2 8,4 3,1 5,3 7,6 0,1 0,2 -1,3 -1,0 -2,0 -3,-1 -1,-2 -3,-3 -5,-5 -2,-1 -4,-2 -7,-2 -3,-1 -6,0 -8,0 -3,1 -6,3 -8,5z"/>
   <path class="fil8" d="M4111 5814c19,-3 36,9 40,27 4,19 -8,36 -27,40 -18,4 -36,-8 -40,-27 -3,-18 9,-36 27,-40z"/>
   <path class="fil13" d="M4112 5818c-9,1 -15,6 -20,13 -4,6 -6,14 -4,23 1,8 6,15 13,19 6,4 14,6 23,5 8,-2 15,-7 19,-13 4,-7 6,-15 5,-23 -2,-9 -7,-15 -13,-20 -7,-4 -15,-6 -23,-4z"/>
   <path class="fil10" d="M4101 5841c0,1 -2,1 -3,1 -1,-1 -1,-2 -1,-3 2,-3 4,-6 7,-9 2,-2 6,-4 9,-4 3,-1 6,-1 9,0 3,0 6,2 8,3 1,1 1,2 1,3 -1,1 -2,1 -3,1 -2,-2 -4,-2 -7,-3 -2,0 -4,0 -7,0 -3,1 -5,2 -8,4 -2,2 -4,4 -5,7z"/>
   <path class="fil14" d="M4163 5834c20,-1 36,14 38,34 1,19 -14,36 -34,37 -19,1 -36,-14 -37,-33 -1,-20 14,-37 33,-38z"/>
   <path class="fil15" d="M4163 5832c11,-1 20,3 27,9 8,7 13,16 13,26 1,11 -3,21 -9,28 -7,7 -16,12 -27,13 -10,0 -20,-4 -27,-10 -7,-6 -12,-16 -13,-26 0,-11 3,-20 10,-28 6,-7 16,-12 26,-12zm24 13c-6,-5 -15,-9 -24,-8 -9,0 -17,5 -22,11 -6,6 -9,15 -9,24 1,9 5,17 11,22 7,6 15,9 24,8 9,0 17,-4 23,-11 5,-6 8,-14 8,-23 -1,-9 -5,-17 -11,-23z"/>
   <path class="fil10" d="M4149 5860c-1,1 -2,1 -3,1 -1,-1 -2,-2 -1,-3 2,-4 5,-7 8,-9 3,-2 7,-3 11,-3 3,0 6,0 9,1 3,1 6,3 8,5 1,1 1,2 0,3 -1,1 -2,1 -3,0 -2,-1 -4,-3 -7,-3 -2,-1 -4,-2 -7,-1 -3,0 -6,1 -9,2 -2,2 -5,4 -6,7z"/>
   <path class="fil6" d="M4547 5677c31,2 36,37 19,65 -17,29 -57,45 -89,38 -36,-7 -26,-53 0,-65 25,-11 62,-6 70,-38z"/>
   <path class="fil6" d="M4470 5754c31,2 36,38 19,66 -17,29 -57,44 -89,38 -36,-8 -26,-53 0,-65 25,-12 63,-7 70,-39z"/>
   <path class="fil6" d="M4613 5710c32,2 36,38 19,66 -17,29 -57,44 -89,38 -36,-8 -26,-53 0,-65 26,-12 63,-7 70,-39z"/>
   <path class="fil6" d="M4734 5719c27,14 17,47 -9,66 -26,18 -68,16 -93,-3 -29,-20 -2,-57 26,-57 26,0 57,20 76,-6z"/>
   <path class="fil10" d="M4735 5718c5,3 9,6 12,10 3,5 5,11 4,17 0,6 -2,12 -5,18 -4,8 -11,16 -20,23 -13,9 -30,13 -47,13 -17,-1 -35,-6 -48,-16 -6,-4 -10,-10 -12,-16 -2,-6 -1,-12 2,-18 2,-5 6,-11 11,-15 7,-6 16,-10 26,-10 8,0 16,2 25,4 19,4 38,8 50,-10l1 0 1 0zm10 11c-3,-3 -6,-6 -10,-8 -14,17 -33,13 -53,9 -8,-2 -16,-3 -24,-3 -9,0 -18,3 -24,9 -5,4 -9,9 -11,14 -2,5 -3,11 -2,17 2,5 5,10 12,14 12,10 29,15 46,15 16,1 33,-3 46,-12 8,-6 15,-14 19,-22 3,-6 5,-12 5,-17 0,-6 -1,-11 -4,-16z"/>
   <path class="fil8" d="M4726 5734c2,0 4,0 7,0 2,0 5,-2 2,1 -3,3 2,2 4,2 1,0 -5,1 -2,2 5,1 -3,0 2,2 0,0 -3,1 -3,1 -4,1 0,1 2,1 1,0 -1,1 -1,1 -2,0 3,0 0,1 -1,0 -1,1 -2,1 0,0 -1,2 -3,2 -1,1 -5,3 -5,3 0,0 2,0 1,1 -2,0 -5,0 -8,0 0,0 8,-2 8,-2 0,-1 -5,-2 -6,-2 0,0 6,-1 5,-1 -1,-1 3,-3 0,-3 0,0 -2,0 -2,0 0,0 1,-1 1,-1 -1,-1 -3,-1 -4,-1 -3,0 -5,0 -2,-1 1,0 2,0 3,0 1,-1 -3,0 1,-2 1,-1 -3,0 -3,-1 1,-1 4,-2 3,-2 0,-1 -4,1 -1,-1 0,-1 2,-1 3,-1z"/>
   <path class="fil8" d="M4655 5732c3,1 6,2 10,3 12,1 1,1 -5,1 -2,0 4,2 5,2 2,1 -10,1 -10,1 4,2 18,3 7,2 -1,0 -5,0 -5,0 -1,1 14,3 7,3 -2,0 -11,-2 -4,1 8,2 10,1 0,1 -8,0 2,2 5,2 1,0 -14,-1 -13,-1 2,1 16,5 10,4 -2,0 -14,-2 -7,1 4,1 9,2 3,2 -3,-1 -8,-1 -3,1 5,1 9,3 2,2 -15,-2 8,4 2,3 -5,0 -11,-2 -16,-2 -2,0 23,9 14,7 -2,-1 -23,-6 -13,-2 7,3 -9,-4 -10,-2 0,0 2,1 2,2 2,2 -11,-1 -6,1 9,3 -3,2 -10,0 -3,-18 17,-39 38,-39 3,0 6,1 10,1 1,1 0,2 -5,3 -2,0 6,1 1,1 -5,0 -5,0 -9,2z"/>
   <path class="fil6" d="M4727 5658c30,9 26,43 4,66 -23,23 -64,29 -92,16 -32,-15 -13,-56 14,-61 27,-5 61,8 74,-21z"/>
   <path class="fil10" d="M4728 5657c5,2 10,4 13,8 5,4 7,9 8,15 1,6 1,12 -1,19 -3,9 -8,18 -16,26 -11,12 -27,19 -44,22 -17,3 -35,1 -49,-6 -8,-4 -13,-8 -15,-14 -3,-5 -4,-11 -2,-18 1,-6 4,-12 8,-17 6,-7 14,-12 23,-14 8,-2 17,-2 26,-2 19,1 38,1 47,-18l1 -1 1 0zm12 9c-3,-3 -7,-5 -12,-6 -10,19 -29,19 -49,19 -9,0 -17,0 -25,1 -9,2 -17,7 -22,14 -4,5 -7,10 -8,16 -1,6 -1,11 2,16 2,5 7,10 14,13 14,6 31,8 48,5 16,-2 31,-10 42,-21 8,-7 13,-16 15,-25 2,-6 3,-12 2,-18 -1,-5 -3,-10 -7,-14z"/>
   <path class="fil8" d="M4722 5675c3,-1 4,-2 7,-2 2,0 4,-2 2,1 -2,3 2,1 5,1 0,0 -5,2 -2,2 5,0 -3,1 2,2 0,0 -2,1 -3,1 -4,2 1,1 3,1 1,0 -1,1 -1,1 -2,1 3,0 1,1 -1,0 -2,1 -3,1 0,0 0,2 -2,3 -1,1 -4,3 -4,4 0,0 1,0 1,0 -3,1 -5,1 -8,2 0,0 7,-4 7,-4 0,-1 -5,0 -6,-1 -1,0 6,-1 5,-2 -2,0 2,-3 -1,-2 0,0 -1,0 -1,0 0,0 0,-1 0,-1 -1,-1 -3,0 -4,0 -3,1 -5,1 -2,-1 1,0 1,0 2,-1 1,0 -3,2 1,-2 1,0 -3,1 -2,0 0,-1 2,-2 2,-2 -1,-1 -4,1 -2,-1 1,-1 2,-2 3,-1z"/>
   <path class="fil8" d="M4652 5686c3,0 7,1 10,1 12,-2 1,0 -4,2 -2,1 4,1 5,1 3,1 -10,3 -9,3 4,1 17,0 7,1 -1,0 -5,0 -6,1 0,1 15,-1 9,0 -3,1 -12,1 -4,2 7,1 10,0 0,2 -8,1 2,1 5,1 1,0 -14,1 -13,1 2,1 17,2 10,3 -2,0 -13,0 -6,1 4,1 10,1 3,2 -3,0 -8,0 -2,1 4,1 9,1 1,2 -15,1 9,2 4,3 -6,1 -12,0 -17,1 -1,1 25,4 15,3 -2,0 -23,-1 -12,2 7,1 -11,-2 -11,-1 0,1 2,1 3,2 2,1 -11,1 -7,2 11,2 -2,2 -9,2 -7,-17 9,-41 29,-45 4,-1 7,-1 10,-1 1,0 1,2 -4,3 -1,0 7,0 2,1 -5,1 -6,2 -9,4z"/>
   <path class="fil6" d="M4660 5614c29,1 34,35 18,61 -16,27 -53,41 -82,35 -34,-7 -25,-50 0,-60 23,-11 58,-7 64,-36z"/>
   <path class="fil10" d="M4660 5613c6,0 11,1 15,4 5,3 8,7 10,12 3,6 4,12 3,18 0,9 -3,19 -9,28 -8,14 -21,24 -36,30 -15,7 -32,9 -48,6 -7,-2 -13,-5 -17,-10 -3,-4 -5,-10 -5,-16 -1,-6 1,-12 4,-18 4,-8 10,-15 18,-19 7,-3 16,-5 24,-6 18,-5 36,-8 40,-28l0 -1 1 0zm13 6c-3,-2 -7,-4 -12,-4 -5,21 -23,25 -42,29 -8,2 -16,3 -23,7 -7,3 -14,10 -17,17 -3,6 -4,11 -4,17 0,5 2,11 5,15 4,4 9,7 16,8 15,4 31,1 46,-5 15,-6 28,-16 35,-29 5,-9 8,-18 9,-27 0,-6 -1,-12 -3,-17 -2,-5 -5,-9 -10,-11z"/>
   <path class="fil8" d="M4659 5630c2,-1 4,-2 6,-3 2,0 3,-3 2,1 -2,3 3,0 5,0 0,0 -5,2 -2,2 5,-1 -2,1 3,1 0,0 -2,2 -2,2 -4,3 0,1 2,0 1,0 0,1 -1,1 -1,2 3,0 1,1 0,1 -1,1 -1,2 0,0 0,2 -2,3 -1,1 -3,4 -3,5 0,0 1,-1 1,-1 -2,2 -5,3 -7,4 0,0 6,-5 6,-5 -1,-1 -5,0 -6,1 -1,0 5,-3 4,-3 -1,0 2,-4 -1,-3 0,0 -2,1 -2,1 0,0 0,-1 0,-1 -1,-1 -3,1 -4,1 -2,1 -4,2 -1,-1 0,0 1,0 1,-1 2,0 -2,2 1,-2 1,-1 -2,1 -2,1 -1,-2 2,-3 1,-4 -1,0 -3,2 -1,0 0,-1 1,-2 2,-2z"/>
   <path class="fil8" d="M4596 5657c3,-1 6,-1 10,-2 10,-4 1,0 -4,3 -2,1 4,0 5,0 3,0 -9,5 -8,5 4,-1 16,-5 7,-1 -1,0 -5,1 -5,2 0,1 14,-4 8,-1 -2,1 -11,3 -3,2 7,-1 9,-2 0,2 -7,3 3,0 5,-1 1,0 -13,5 -12,5 2,0 17,-2 10,0 -1,0 -12,3 -5,2 4,0 9,-1 3,1 -3,1 -8,3 -2,2 4,0 9,-1 2,1 -14,5 9,0 4,2 -5,2 -11,3 -15,5 -2,1 24,-2 14,0 -2,1 -22,4 -11,4 7,0 -10,0 -10,2 0,1 2,0 3,1 2,0 -10,3 -6,3 10,-1 -2,3 -8,5 -10,-16 -1,-41 18,-49 2,-2 6,-3 9,-4 1,1 0,2 -3,4 -2,1 6,-1 1,1 -4,2 -4,3 -7,6z"/>
   <path class="fil6" d="M4563 5620c32,2 36,37 20,66 -18,29 -58,44 -89,37 -37,-7 -27,-53 0,-64 25,-12 62,-7 69,-39z"/>
   <path class="fil10" d="M4563 5619c6,0 11,2 16,4 5,3 9,8 11,14 3,6 4,12 3,19 0,10 -4,21 -9,30 -9,15 -23,26 -39,32 -17,8 -35,10 -52,6 -8,-1 -14,-5 -18,-10 -4,-5 -6,-11 -6,-17 0,-7 1,-13 4,-19 4,-9 11,-17 20,-21 8,-3 17,-5 25,-7 20,-4 39,-9 44,-30l0 -1 1 0zm14 6c-3,-2 -8,-3 -13,-4 -5,23 -25,27 -45,31 -9,2 -17,4 -25,8 -8,3 -15,10 -19,19 -2,5 -4,12 -4,18 0,6 2,11 6,16 4,4 9,8 17,9 16,3 34,1 50,-6 16,-6 29,-17 38,-31 5,-9 8,-20 9,-29 0,-7 -1,-13 -3,-18 -2,-5 -6,-10 -11,-13z"/>
   <path class="fil8" d="M4562 5638c2,-1 4,-2 6,-3 2,-1 4,-4 2,0 -1,4 3,1 6,0 0,0 -5,3 -2,2 5,-1 -3,2 2,2 1,0 -1,1 -2,2 -3,3 1,1 3,0 1,0 -1,1 -1,1 -1,1 3,-1 1,1 -1,1 -1,1 -2,2 0,0 0,2 -1,3 -1,1 -4,5 -4,5 0,0 2,0 1,0 -2,2 -5,2 -7,4 0,0 6,-5 6,-5 0,-1 -5,0 -6,0 -1,0 5,-3 4,-3 -1,0 2,-4 -1,-3 0,0 -1,1 -1,1 -1,0 0,-1 -1,-1 -1,0 -3,1 -4,1 -2,1 -4,2 -2,0 1,-1 2,-1 2,-2 1,0 -2,2 1,-2 1,-1 -3,1 -3,0 0,-1 3,-3 2,-3 -1,0 -3,2 -2,0 0,-1 2,-2 3,-2z"/>
   <path class="fil8" d="M4494 5666c3,-1 7,-1 10,-2 12,-4 2,1 -3,3 -3,2 4,1 5,1 3,-1 -9,5 -9,5 5,-1 18,-5 7,-1 -1,0 -5,1 -5,2 0,2 15,-4 9,-1 -3,1 -12,4 -4,2 8,-1 11,-2 1,2 -8,3 2,0 5,0 1,0 -14,4 -12,4 1,0 17,-2 10,0 -1,1 -13,4 -5,3 4,0 9,-1 3,1 -3,1 -9,3 -2,2 4,0 10,-1 2,2 -15,4 9,0 4,2 -5,2 -11,2 -16,5 -2,1 25,-2 15,0 -2,0 -24,4 -12,4 8,0 -11,0 -11,2 0,1 3,1 3,1 3,1 -10,4 -6,4 11,-1 -2,3 -9,5 -11,-17 0,-45 20,-53 3,-2 6,-3 9,-4 2,1 1,2 -3,4 -2,1 6,-1 2,1 -5,2 -5,3 -8,6z"/>
   <path class="fil6" d="M4616 5667c29,2 34,35 18,61 -16,27 -53,41 -82,35 -34,-7 -25,-49 0,-60 23,-11 58,-6 64,-36z"/>
   <path class="fil10" d="M4616 5666c6,0 11,2 15,4 5,3 8,8 10,13 3,5 4,11 3,18 0,9 -3,19 -9,28 -8,13 -21,23 -36,30 -15,6 -32,8 -48,5 -7,-1 -13,-5 -17,-9 -3,-5 -5,-10 -5,-16 -1,-6 1,-13 4,-18 3,-8 10,-15 18,-19 7,-3 15,-5 24,-7 18,-4 36,-8 40,-28l0 -1 1 0zm13 6c-3,-2 -7,-3 -12,-3 -5,20 -23,24 -42,28 -8,2 -16,4 -23,7 -8,4 -14,10 -17,18 -3,5 -4,11 -4,16 0,6 2,11 5,15 4,4 9,7 16,9 15,3 31,1 46,-6 15,-6 27,-16 35,-29 5,-8 8,-18 9,-26 0,-7 -1,-12 -3,-17 -2,-5 -5,-9 -10,-12z"/>
   <path class="fil8" d="M4615 5684c2,-1 4,-2 6,-3 1,-1 3,-3 2,0 -2,3 3,1 5,0 0,0 -5,3 -2,2 5,-1 -2,2 3,1 0,0 -2,2 -2,2 -4,3 0,1 2,0 1,0 -1,2 -1,2 -1,1 3,-1 1,1 0,0 -1,1 -1,1 0,0 -1,2 -2,3 -1,1 -3,5 -3,5 0,0 1,0 1,0 -2,1 -5,2 -7,3 0,1 6,-4 6,-5 -1,0 -5,1 -6,1 -1,0 5,-3 4,-3 -1,0 1,-4 -1,-2 0,0 -2,1 -2,1 0,0 0,-2 0,-2 -1,0 -3,1 -4,1 -2,1 -4,2 -1,0 0,-1 1,-1 1,-1 1,-1 -2,1 1,-2 1,-1 -2,0 -2,0 -1,-1 2,-3 1,-3 -1,-1 -3,2 -1,-1 0,0 1,-1 2,-1z"/>
   <path class="fil8" d="M4552 5710c3,-1 6,-1 9,-2 11,-4 2,1 -3,3 -2,2 4,0 5,0 3,0 -9,5 -8,5 4,0 16,-4 7,-1 -1,1 -5,2 -5,2 0,2 14,-3 8,-1 -2,1 -11,4 -3,3 7,-1 9,-3 0,1 -7,3 2,1 5,0 0,0 -13,4 -12,4 2,0 16,-2 10,0 -1,1 -12,3 -5,3 4,0 9,-2 3,1 -3,1 -8,2 -2,2 4,-1 9,-1 2,1 -14,4 9,0 4,2 -5,2 -11,2 -15,5 -2,1 24,-2 14,0 -2,0 -22,4 -11,3 7,0 -10,1 -10,2 0,1 2,1 3,1 2,1 -10,4 -6,4 10,-1 -2,2 -8,4 -10,-15 -1,-41 18,-49 2,-1 5,-2 9,-3 1,0 0,1 -3,4 -2,0 6,-2 1,0 -4,2 -5,3 -7,6z"/>
   <path class="fil8" d="M4401 5756c3,0 4,-1 7,-1 2,-1 4,-3 2,0 -2,3 3,2 5,2 1,0 -5,1 -2,1 5,1 -3,1 2,2 0,0 -2,2 -2,2 -4,2 0,1 3,1 0,-1 -2,1 -2,1 -1,1 3,0 1,1 -1,0 -1,1 -2,1 0,0 -1,2 -2,3 -1,1 -5,4 -5,4 0,0 2,0 1,0 -2,1 -5,1 -8,2 0,0 7,-3 7,-4 0,-1 -5,0 -6,0 -1,0 6,-2 5,-2 -1,-1 2,-4 -1,-3 0,0 -1,0 -1,0 0,0 0,-1 0,-1 -1,-1 -3,0 -5,0 -2,1 -4,1 -1,-1 1,0 1,0 2,-1 1,0 -3,2 1,-2 1,0 -3,1 -3,0 0,-1 3,-2 3,-3 -1,0 -4,2 -2,-1 1,0 2,-1 3,-1z"/>
   <path class="fil10" d="M4401 5756c1,0 2,-1 3,-1 1,0 3,-1 4,-1l0 0c0,0 1,0 2,0 0,-1 1,-1 1,-1 1,1 0,1 -1,3l0 0c0,0 0,1 0,1 0,0 2,0 3,-1 1,0 2,0 2,0l0 0c1,0 1,0 1,1l0 0c0,0 -1,0 -1,0 -1,1 -2,1 -2,1l0 0c0,0 0,0 0,0 2,0 2,0 2,1l0 0c0,0 0,0 0,0 -1,1 -1,1 -1,1l0 0c0,0 0,0 1,0l0 0 0 0 0 0c1,0 1,0 0,1 0,0 0,0 0,0 -1,0 -2,1 -2,1l0 0c-1,1 -2,1 -2,1l0 0c0,0 1,0 2,-1 1,0 2,0 3,0 0,0 0,0 0,0l0 0c0,0 0,1 0,1l0 0c0,0 0,0 0,0 -1,0 -1,1 -1,1 0,0 1,0 1,0l0 0c0,0 0,1 -1,1l0 0c-1,1 -1,1 -2,2 0,0 -1,2 -2,3 -1,0 -2,1 -3,2 -1,0 -1,1 -1,1 0,0 0,0 1,0l0 0c0,0 0,1 -1,1 -1,0 -3,1 -5,1 -1,0 -2,0 -3,1l0 0c0,0 0,0 0,-1l0 0c0,0 0,0 0,0 0,0 0,0 0,0l0 0 0 0c0,0 1,-1 2,-1 2,-1 5,-2 5,-2l0 0c0,-1 -3,-1 -5,-1 -1,0 -1,0 -1,0l0 0c-1,0 -1,0 -1,0l0 0 0 0 0 0c0,-1 1,-1 2,-1 1,-1 3,-1 3,-1 0,-1 0,-1 0,-1 0,-1 1,-1 1,-1 0,-1 0,-1 0,-1 0,0 0,0 0,0 -1,0 -1,0 -1,1 -1,0 -2,0 -2,0l0 0c0,-1 0,-1 0,-2 0,0 1,1 1,0l0 0c-1,0 -3,0 -4,1l0 0c0,0 0,0 -1,0 -1,0 -2,0 -3,0 -1,0 -1,-1 2,-2 0,0 0,-1 1,-1 0,0 0,-1 1,-1 0,0 0,0 0,0 -1,0 -1,0 -2,0l0 0c0,0 0,-1 0,-1l0 0c0,-1 1,-2 2,-2l0 0c0,0 0,0 -1,0 0,0 -1,0 -1,0 0,0 0,-1 1,-2 0,0 1,-1 1,-1 1,0 2,0 2,0zm4 0c-1,0 -3,1 -4,1l0 0c0,0 -1,0 -1,0 -1,0 -1,0 -2,1 0,0 0,0 0,0 0,0 0,0 0,0 1,0 2,0 2,0 0,0 0,0 0,1 0,0 0,0 0,0 -1,1 -2,1 -2,2 0,0 0,0 1,0 1,0 1,0 2,0 0,0 0,0 -1,1 0,0 -1,1 -1,1 0,0 0,0 1,0l0 0c0,0 -1,1 -1,1 0,0 0,0 0,0l0 0 0 0 0 0c-1,0 -1,0 -2,1 -1,0 -2,0 -1,0 0,0 1,0 2,0 1,0 1,0 1,0l0 0c1,-1 3,-1 4,0 0,0 0,0 0,1 0,0 0,0 0,0l0 0c0,1 0,0 0,0 1,0 1,-1 1,-1 1,0 2,0 2,1 0,0 0,1 0,1 -1,0 -1,1 -1,1 0,0 0,0 0,0 0,0 1,0 1,1l0 0c-1,0 -2,1 -4,1 2,0 4,0 4,1l0 0c1,1 -2,2 -4,3l0 0c1,0 3,0 4,-1 -1,0 0,-1 1,-2 1,-1 3,-2 3,-2 2,-1 2,-2 2,-3 0,0 0,0 0,0 1,-1 2,-1 2,-1l1 0c-1,0 -1,0 -1,-1 -1,0 -1,0 0,-1l0 0c0,0 0,0 0,0 0,0 0,0 -1,0 -1,0 -2,1 -2,0l0 0c-1,0 0,-1 2,-2l0 0c0,0 1,0 1,-1 -1,0 -1,0 -1,0l0 0c0,-1 0,-1 1,-1 0,0 -1,0 -1,0l0 0c-1,0 -1,0 -1,-1l0 0c0,0 0,0 1,-1 -2,1 -3,1 -4,0 0,0 0,-1 1,-2l0 0c0,-1 1,-1 1,-1 0,0 0,0 -1,0 -1,1 -1,1 -2,1 -1,0 -2,1 -3,1zm10 3c0,0 -1,0 -1,0 0,0 1,0 1,0l0 0zm0 5c0,0 0,0 0,0 0,1 0,1 0,0l0 0zm-8 9c-1,0 -1,0 -1,0l0 0c0,0 0,0 1,0z"/>
   <path class="fil6" d="M4405 5739c31,6 32,42 12,68 -21,26 -62,37 -93,27 -35,-12 -20,-56 8,-65 26,-8 62,1 73,-30z"/>
   <path class="fil10" d="M4405 5738c6,1 11,3 15,6 5,4 8,9 10,15 2,6 2,13 1,20 -2,9 -6,19 -13,28 -11,14 -26,23 -43,28 -17,5 -36,5 -52,0 -8,-3 -13,-7 -16,-12 -4,-6 -5,-12 -5,-19 1,-6 3,-13 7,-18 5,-8 13,-15 22,-18 8,-2 17,-3 26,-4 20,-2 40,-4 47,-25l0 -1 1 0zm14 8c-4,-2 -8,-4 -13,-5 -8,21 -28,23 -49,25 -8,1 -17,2 -25,4 -9,3 -16,9 -21,17 -3,5 -6,12 -6,18 -1,5 0,11 4,16 3,5 8,9 15,11 16,6 34,5 51,1 16,-5 31,-14 41,-27 6,-9 11,-19 12,-28 2,-6 1,-13 0,-18 -2,-6 -5,-10 -9,-14z"/>
   <path class="fil8" d="M4331 5777c3,-1 7,0 10,-1 13,-3 2,1 -3,3 -3,1 4,1 5,1 2,0 -10,4 -10,4 5,0 18,-3 8,0 -1,0 -5,0 -6,1 0,2 16,-2 9,0 -3,1 -12,2 -4,2 8,0 11,-1 1,2 -9,2 2,1 5,0 0,0 -14,3 -13,3 2,1 17,0 10,2 -1,0 -13,2 -5,2 4,0 9,-1 2,1 -2,1 -8,2 -2,2 5,0 10,0 2,1 -15,3 10,2 4,3 -5,1 -12,1 -17,3 -2,1 26,1 16,2 -2,0 -24,2 -13,3 8,0 -11,-1 -11,0 0,1 2,1 3,2 3,1 -11,3 -6,3 11,0 -3,3 -10,4 -9,-18 5,-44 26,-51 3,-1 6,-2 10,-2 1,1 0,2 -4,4 -2,0 6,-1 1,0 -5,2 -5,3 -8,6z"/>
   <path class="fil6" d="M4414 5797c31,3 34,39 16,67 -19,28 -60,41 -91,33 -36,-9 -24,-54 3,-65 26,-10 63,-3 72,-35z"/>
   <path class="fil10" d="M4414 5796c6,1 11,2 15,5 5,4 9,8 11,14 2,6 3,13 2,20 -1,9 -5,20 -11,29 -9,14 -24,25 -40,31 -17,6 -36,7 -52,3 -8,-2 -14,-6 -18,-11 -4,-5 -5,-11 -5,-18 0,-6 2,-13 5,-19 5,-8 12,-15 21,-19 8,-3 17,-4 25,-6 20,-3 40,-7 46,-28l0 -1 1 0zm14 7c-4,-2 -8,-4 -13,-5 -7,22 -27,26 -47,29 -9,2 -18,3 -25,6 -9,4 -16,10 -20,18 -3,6 -5,12 -5,18 0,6 1,12 5,17 3,4 9,8 16,10 16,4 34,2 51,-4 16,-5 30,-16 39,-29 6,-9 9,-19 10,-29 1,-6 1,-12 -1,-18 -2,-5 -6,-10 -10,-13z"/>
   <path class="fil8" d="M4411 5815c3,-1 4,-2 7,-3 2,0 4,-3 2,0 -2,4 3,1 5,1 1,0 -5,2 -1,2 5,-1 -3,1 2,1 0,0 -2,2 -2,2 -4,3 0,1 3,1 0,-1 -1,1 -1,1 -2,1 3,-1 1,1 -1,1 -2,1 -2,2 0,0 -1,2 -2,3 -1,1 -4,4 -4,5 0,0 2,-1 1,0 -2,1 -5,2 -7,3 -1,0 6,-5 6,-5 -1,-1 -5,0 -6,0 -1,0 5,-3 4,-3 -1,0 2,-4 -1,-2 0,0 -1,1 -1,1 0,-1 0,-2 0,-2 -2,0 -4,1 -5,1 -2,1 -4,2 -1,0 0,-1 1,-1 1,-2 2,0 -2,2 1,-2 1,-1 -2,1 -3,0 0,-1 3,-3 3,-3 -1,0 -4,2 -2,-1 0,0 2,-1 2,-1z"/>
   <path class="fil8" d="M4342 5840c3,-1 7,0 11,-2 11,-3 1,1 -4,3 -3,2 4,1 5,1 3,0 -9,4 -9,4 4,0 18,-3 7,0 -1,0 -5,1 -5,2 0,1 15,-3 9,-1 -3,1 -12,3 -4,3 8,-1 10,-3 1,1 -9,3 2,1 5,0 0,0 -14,4 -13,4 2,0 18,-1 11,1 -2,0 -14,3 -6,2 4,0 10,-1 3,1 -3,1 -8,3 -2,2 5,0 10,0 2,2 -15,4 10,0 4,2 -5,2 -12,2 -16,5 -2,0 25,-1 15,0 -2,1 -24,4 -12,4 7,0 -11,0 -11,1 0,1 2,1 3,1 3,1 -11,4 -6,4 11,0 -2,3 -9,4 -11,-17 1,-44 21,-52 3,-1 7,-2 10,-3 1,1 1,2 -3,4 -2,1 6,-1 1,1 -5,2 -5,3 -8,6z"/>
   <path class="fil6" d="M4486 5687c32,3 35,40 17,69 -20,29 -62,42 -94,34 -37,-10 -24,-56 3,-67 27,-10 65,-3 74,-36z"/>
   <path class="fil10" d="M4486 5686c6,1 11,2 16,5 5,4 9,9 11,15 2,6 3,13 2,20 -1,10 -5,20 -11,30 -10,15 -25,25 -42,32 -17,6 -37,7 -53,3 -9,-2 -15,-6 -19,-11 -4,-5 -5,-12 -5,-19 0,-6 2,-13 5,-19 5,-9 13,-16 22,-20 8,-3 17,-5 26,-6 21,-4 41,-7 47,-29l0 -1 1 0zm14 7c-3,-2 -8,-4 -13,-5 -7,23 -28,27 -48,30 -9,2 -18,3 -26,6 -9,4 -16,11 -21,19 -3,6 -5,12 -5,18 0,7 2,13 5,17 4,5 9,9 17,11 16,4 35,3 52,-4 17,-6 31,-16 41,-30 6,-10 9,-20 11,-30 0,-6 0,-13 -2,-18 -2,-6 -6,-11 -11,-14z"/>
   <path class="fil8" d="M4483 5705c3,0 5,-2 7,-3 2,0 4,-3 2,1 -1,3 3,1 6,0 1,0 -5,3 -2,2 5,0 -3,2 3,2 0,0 -2,2 -3,2 -4,3 1,1 3,0 1,0 -1,1 -1,2 -1,1 3,-1 1,1 -1,0 -1,1 -2,1 0,0 0,2 -2,4 0,0 -4,4 -3,5 0,0 1,-1 1,0 -3,1 -6,2 -8,3 -1,0 6,-5 6,-5 0,-1 -5,0 -6,0 -1,0 6,-3 5,-3 -2,0 2,-4 -1,-3 -1,0 -2,1 -2,1 0,0 0,-1 0,-1 -1,-1 -3,1 -5,1 -2,1 -4,2 -1,-1 0,0 1,-1 2,-1 1,-1 -3,2 1,-2 0,-1 -3,0 -3,0 0,-1 2,-3 2,-3 -1,-1 -4,2 -2,-1 0,-1 2,-2 2,-2z"/>
   <path class="fil8" d="M4412 5731c4,-1 7,0 11,-1 12,-4 1,0 -4,3 -3,1 4,0 5,0 3,0 -9,5 -9,5 5,0 19,-4 8,-1 -1,1 -6,2 -6,2 0,2 16,-3 9,0 -2,1 -12,3 -4,2 8,-1 11,-2 1,2 -9,3 3,0 5,0 1,0 -14,4 -13,4 2,0 18,-2 11,0 -2,1 -14,3 -6,3 5,0 10,-1 3,1 -2,1 -8,2 -2,2 5,0 11,0 2,2 -15,4 10,0 4,2 -5,2 -11,2 -17,5 -1,1 27,-1 17,0 -3,1 -25,4 -13,4 7,0 -11,0 -11,1 -1,1 2,1 3,2 3,1 -12,3 -7,3 12,0 -2,3 -9,5 -11,-18 2,-46 22,-54 3,-1 7,-2 10,-3 2,1 1,2 -3,4 -2,1 6,-1 2,1 -6,2 -6,3 -9,6z"/>
   <path class="fil4" d="M4077 5805c6,-49 -133,-52 -187,-97 -9,26 0,47 -1,71 -36,0 -60,12 -102,-9 28,76 151,72 202,122 29,-29 58,-58 88,-87z"/>
   <path class="fil10" d="M4074 5804c3,-25 -39,-37 -85,-51 -36,-11 -74,-22 -98,-41 -4,15 -3,29 -1,43 1,8 2,16 2,24l0 2 -3 0c-9,0 -17,1 -26,2 -22,3 -43,5 -71,-8 18,39 65,55 110,71 33,12 66,23 87,42l85 -84zm-84 -56c49,15 93,28 89,58l-2 -1 1 2 -87 86 -2 2 -2 -2c-20,-19 -53,-31 -86,-42 -49,-17 -99,-34 -116,-80l3 -3c30,15 51,13 75,10 7,-1 15,-1 24,-2 0,-7 -1,-13 -2,-20 -2,-16 -4,-31 3,-49l1 -3 3 2c23,19 62,31 98,42z"/>
   <path class="fil10" d="M4056 5826c-5,-15 -18,-26 -34,-35 -20,-11 -45,-19 -69,-27 -2,0 -3,-2 -3,-4 1,-2 3,-3 5,-3 25,8 50,17 71,28 16,9 29,20 36,35l-6 6zm-250 -48c19,27 59,40 97,54 31,10 62,20 80,37 1,2 1,4 0,5 -2,2 -4,2 -5,1 -17,-16 -47,-26 -77,-37 -43,-14 -88,-30 -105,-64 3,2 7,3 10,4zm260 38c-12,-32 -60,-47 -106,-62 -28,-9 -55,-17 -74,-29 0,-3 1,-5 1,-8 18,12 46,21 75,30 46,15 95,31 109,64l-5 5zm-61 60l5 -5c-7,-10 -18,-18 -30,-25 -21,-11 -46,-19 -71,-27 -2,-1 -4,0 -5,2 0,2 1,4 3,5 24,8 49,16 69,27 12,6 22,14 29,23zm8 -8l5 -5c-6,-11 -17,-20 -30,-27 -20,-11 -44,-20 -69,-27 -2,-1 -4,0 -4,2 -1,2 0,4 2,4 24,8 48,16 67,27 13,7 23,16 29,26zm11 -11l5 -5c-6,-11 -17,-20 -31,-28 -19,-11 -44,-19 -68,-27 -2,-1 -4,0 -5,2 0,2 1,4 2,5 25,7 49,15 67,26 14,8 24,16 30,27zm10 -10l6 -5c-7,-12 -18,-22 -32,-30 -20,-11 -44,-19 -69,-27 -2,-1 -4,0 -4,2 -1,2 0,4 2,5 24,7 48,15 67,26 14,8 25,17 30,29zm8 -8l6 -5c-5,-15 -18,-27 -34,-36 -18,-11 -42,-19 -66,-27 -2,-1 -4,0 -4,2 -1,2 0,4 2,5 23,7 47,15 64,26 16,9 28,21 32,35z"/>
   <path class="fil4" d="M3991 5804c13,-21 72,22 86,1 -22,29 -44,58 -66,87 -7,-29 -13,-58 -20,-88z"/>
   <path class="fil10" d="M3989 5803c8,-12 27,-6 46,-1 16,5 33,10 39,3l1 -1 4 3c-1,0 -1,1 -2,1l-64 86 -3 4 -2 -5 -19 -88 2 -1 -2 -1zm45 4c-17,-5 -34,-10 -40,-2l18 82 56 -74c-9,1 -22,-2 -34,-6z"/>
   <path class="fil4" d="M4428 5805c-6,-49 133,-52 187,-97 9,26 0,47 1,71 36,0 60,12 102,-9 -28,76 -151,72 -202,122 -29,-29 -58,-58 -88,-87z"/>
   <path class="fil10" d="M4431 5804c-3,-25 39,-37 85,-51 36,-11 74,-22 98,-41 4,15 3,29 1,43 -1,8 -2,16 -2,24l0 2 2 0c10,0 18,1 27,2 22,3 43,5 71,-8 -18,39 -65,55 -110,71 -33,12 -66,23 -87,42l-85 -84zm84 -56c-49,15 -93,28 -89,58l2 -1 -1 2 87 86 2 2 2 -2c20,-19 53,-31 86,-42 49,-17 99,-34 116,-80l-3 -3c-30,15 -51,13 -75,10 -7,-1 -15,-1 -24,-2 0,-7 1,-13 2,-20 2,-16 4,-31 -3,-49l-1 -3 -3 2c-23,19 -62,31 -98,42z"/>
   <path class="fil10" d="M4449 5826c5,-15 18,-26 34,-35 20,-11 45,-19 69,-27 2,0 3,-2 3,-4 -1,-2 -3,-3 -5,-3 -25,8 -50,17 -71,28 -16,9 -29,20 -36,35l6 6zm249 -48c-18,27 -58,40 -96,54 -31,10 -62,20 -80,37 -1,2 -1,4 0,5 2,2 4,2 5,1 17,-16 47,-26 77,-37 43,-14 88,-30 105,-64 -3,2 -7,3 -11,4zm-259 38c12,-32 60,-47 106,-62 28,-9 55,-17 74,-29 0,-3 -1,-5 -1,-8 -18,12 -46,21 -75,30 -46,15 -95,31 -109,64l5 5zm61 60l-5 -5c7,-10 18,-18 30,-25 21,-11 46,-19 71,-27 2,-1 4,0 5,2 0,2 -1,4 -3,5 -24,8 -49,16 -69,27 -12,6 -22,14 -29,23zm-8 -8l-5 -5c6,-11 17,-20 30,-27 20,-11 44,-20 69,-27 2,-1 4,0 4,2 1,2 0,4 -2,4 -24,8 -48,16 -67,27 -13,7 -23,16 -29,26zm-11 -11l-5 -5c6,-11 17,-20 31,-28 19,-11 44,-19 68,-27 2,-1 4,0 5,2 0,2 -1,4 -2,5 -25,7 -49,15 -67,26 -14,8 -24,16 -30,27zm-10 -10l-6 -5c7,-12 18,-22 32,-30 20,-11 44,-19 69,-27 2,-1 4,0 4,2 1,2 0,4 -2,5 -24,7 -48,15 -67,26 -14,8 -25,17 -30,29zm-8 -8l-6 -5c5,-15 18,-27 34,-36 18,-11 42,-19 66,-27 2,-1 4,0 4,2 1,2 0,4 -2,5 -23,7 -47,15 -65,26 -15,9 -27,21 -31,35z"/>
   <path class="fil4" d="M4513 5804c-12,-21 -71,22 -85,1 22,29 44,58 66,87 7,-29 13,-58 19,-88z"/>
   <path class="fil10" d="M4511 5805c-6,-8 -23,-3 -40,2 -12,4 -25,7 -34,6l56 74 18 -82zm-41 -3c19,-5 38,-11 46,1l-3 1 3 1 -19 88 -2 5 -3 -4 -64 -86c-1,0 -1,-1 -2,-1l4 -3 1 1c6,7 23,2 39,-3z"/>
   <path class="fil4" d="M4040 5839c-7,-5 -47,-27 -49,-35 -29,30 -59,59 -89,89 179,173 522,173 701,0 -30,-30 -60,-59 -90,-89 -1,8 -41,30 -48,35 -127,80 -298,80 -425,0z"/>
   <path class="fil10" d="M4038 5841c-1,-1 -3,-2 -5,-3 -11,-7 -35,-21 -42,-30l-86 85c89,85 218,127 347,127 130,0 259,-42 348,-127l-86 -85c-7,9 -31,23 -42,30 -2,1 -4,2 -5,3 -64,40 -139,60 -215,60 -75,0 -150,-20 -214,-60zm-2 -7c2,1 4,2 5,3 63,40 137,60 211,60 75,0 149,-20 212,-60 1,-1 3,-2 5,-3 13,-8 41,-25 42,-30l1 -4 3 3 90 88 2 2 -2 2c-90,87 -221,130 -353,130 -131,0 -262,-43 -352,-130l-2 -2 2 -2 90 -88 3 -3 1 4c1,5 29,22 42,30z"/>
   <path class="fil10" d="M3913 5885c5,5 9,9 13,13 5,4 8,8 10,9 85,69 199,103 314,104 6,0 11,0 17,0 119,-3 237,-43 321,-120l0 0c1,-1 2,-2 3,-3 1,-1 1,-1 2,-2l-72 -71c-3,3 -7,6 -11,9 -4,3 -8,7 -13,10 -5,3 -10,6 -14,8 -4,3 -8,5 -11,7 -66,41 -143,62 -220,62 -76,0 -153,-21 -219,-62 -3,-2 -7,-4 -11,-7 -4,-2 -9,-5 -14,-8 -3,-2 -5,-4 -8,-6 -3,-2 -6,-4 -8,-6l-3 -2 -6 -4 -70 69zm10 17c-5,-5 -10,-10 -15,-15l-2 -2 2 -1 73 -73 2 -1 1 1 8 5c1,1 2,2 3,2 2,2 5,4 8,6 2,2 5,4 8,6 4,3 9,5 14,8 3,2 7,5 11,7 64,41 140,61 216,61 77,0 153,-20 217,-61 4,-2 8,-5 11,-7 5,-3 10,-5 14,-8 5,-3 9,-6 13,-10 5,-3 9,-6 13,-10l1 -1 2 1 75 74 2 2 -2 2c-1,1 -2,2 -3,3 -2,1 -3,3 -4,4 -84,77 -204,117 -324,120 -121,3 -244,-31 -334,-104 -2,-2 -6,-5 -10,-9z"/>
   <path class="fil10" d="M3966 5875l-10 12 -9 -6 27 -34 11 9c3,3 5,5 6,7 1,2 1,4 1,7 -1,2 -2,4 -3,6 -3,3 -6,5 -9,6 -3,0 -7,-1 -10,-3l-4 -4zm5 -7l3 2c2,2 5,2 6,0 2,-2 2,-4 -1,-6l-3 -3 -5 7zm32 51l-11 -6 4 -17 -3 -2 -8 14 -9 -5 22 -37 15 10c4,2 6,4 7,7 0,4 0,7 -2,10 -1,2 -3,4 -5,5 -1,1 -4,2 -6,2l-4 19zm-5 -33l4 3c1,0 2,1 3,1 1,-1 2,-1 3,-2 1,-3 1,-5 -2,-6l-4 -3 -4 7zm27 44l2 -8 -8 -5 -6 7 -8 -4 29 -33 10 5 -9 43 -10 -5zm-1 -20l6 2 2 -12 -8 10zm17 14l10 2c-1,4 1,6 4,7 2,1 4,1 5,-1 0,0 0,-1 0,-2 -1,-1 -2,-1 -3,-2 -5,-4 -8,-7 -9,-10 -1,-3 -1,-6 1,-9 1,-3 4,-6 7,-7 3,-2 7,-2 11,0 7,3 10,8 10,15l-10 0c0,-3 -1,-5 -3,-6 -3,-1 -4,-1 -5,1 0,0 0,1 0,2 1,0 1,1 3,2 3,3 6,5 7,6 1,1 2,3 3,6 0,2 0,4 -1,7 -2,4 -5,6 -8,8 -4,1 -8,1 -12,-1 -8,-3 -12,-9 -10,-18zm48 31l1 -9 -9 -2 -5 7 -8 -3 23 -37 11 4 -2 43 -11 -3zm-4 -20l6 2 1 -13 -7 11zm46 -12l-7 26c-1,4 -2,7 -3,9 -2,1 -3,3 -5,4 -2,0 -5,0 -8,-1 -2,0 -4,-1 -6,-2l2 -10c2,1 3,1 4,2 2,0 3,0 4,-1 1,0 1,-2 2,-4l7 -26 10 3zm14 47l0 -9 -9 -2 -4 8 -9 -2 20 -39 11 2 2 44 -11 -2zm-6 -19l6 1 0 -13 -6 12zm64 28l-8 -1 -8 -20c-1,-3 -2,-6 -2,-9 0,3 0,5 0,7l-3 20 -9 -1 6 -42 10 1 6 17c1,3 2,6 3,8 0,-3 0,-7 0,-11l2 -12 8 1 -5 42zm40 -21l-2 24 -5 -1c0,-1 -1,-3 -1,-4 -2,3 -6,5 -10,4 -4,0 -8,-2 -11,-6 -3,-4 -4,-9 -3,-16 0,-6 2,-11 5,-15 3,-5 7,-6 13,-6 4,0 7,2 10,4 2,3 3,7 4,11l-11 1c0,-4 -1,-7 -4,-7 -4,0 -6,4 -6,12 0,5 0,8 1,10 1,2 3,2 4,2 2,1 3,0 4,-1 1,-1 1,-2 1,-4l-6 0 1 -9 16 1zm32 13l0 10 -26 1 -1 -43 26 0 1 10 -16 0 0 6 13 0 0 9 -13 0 0 7 16 0zm1 -3l10 -3c1,4 4,5 7,5 3,0 4,-1 4,-3 0,-1 0,-1 -1,-2 -1,0 -2,-1 -3,-1 -7,-1 -11,-3 -13,-5 -2,-2 -3,-5 -3,-8 0,-4 1,-7 3,-10 2,-3 6,-4 11,-5 7,0 12,3 15,10l-9 4c-1,-3 -3,-4 -6,-4 -2,0 -3,1 -3,3 0,1 0,1 1,2 0,0 1,0 3,1 4,0 7,1 9,2 2,0 3,2 5,4 1,2 2,4 2,7 0,4 -1,7 -4,10 -2,3 -6,5 -11,5 -8,1 -14,-3 -17,-12zm49 -24l4 32 -10 1 -4 -32 -8 1 -1 -10 25 -3 1 10 -7 1zm19 -14l7 42 -10 2 -8 -42 11 -2zm60 -14l1 43 -8 2 -11 -21 1 24 -9 2 -19 -39 10 -2 10 22 -1 -25 8 -2 11 23 -1 -25 8 -2zm12 -5l13 40 -10 4 -13 -41 10 -3zm20 38l-16 -39 17 -7c4,-1 6,-1 9,1 2,1 4,3 5,6 1,2 1,4 1,6 0,2 -1,3 -3,5 5,-1 8,1 10,6 1,3 2,6 1,9 0,3 -3,5 -8,7l-16 6zm0 -28l4 -1c2,-1 2,-2 2,-2 1,-1 1,-2 0,-3 -1,-2 -2,-3 -4,-2l-5 2 3 6zm6 16l5 -2c1,-1 2,-1 2,-2 0,-1 0,-2 0,-3 0,-1 -1,-2 -2,-2 -1,-1 -2,-1 -3,0l-5 2 3 7zm45 -10l-6 -6 -8 4 1 8 -8 4 -8 -43 10 -5 28 34 -9 4zm-17 -11l5 -3 -8 -10 3 13zm45 -54l14 41 -8 5 -16 -18 8 23 -8 5 -30 -32 9 -5 16 18 -8 -23 7 -5 17 19 -8 -24 7 -4zm39 21l-7 -5 -7 6 3 8 -7 5 -17 -40 9 -7 35 26 -9 7zm-18 -8l4 -3 -10 -8 6 11z"/>
  </g>
 </g>
</svg>
